<?xml version="1.0" encoding="UTF-8"?>
<svg version="1.1" xmlns="http://www.w3.org/2000/svg" width="226" height="223">
<path d="M0 0 C74.58 0 149.16 0 226 0 C226 73.59 226 147.18 226 223 C151.42 223 76.84 223 0 223 C0 149.41 0 75.82 0 0 Z " fill="#FF8D0A" transform="translate(0,0)"/>
<path d="M0 0 C74.58 0 149.16 0 226 0 C226 37.62 226 75.24 226 114 C224.35 114 222.7 114 221 114 C220.835 114.680625 220.67 115.36125 220.5 116.0625 C215.63612805 125.58758257 205.17427377 129.28225867 195.62109375 132.5 C182.44405377 136.7552522 167.93510885 141 154 141 C153.59955696 139.34817245 153.28520405 137.67557379 153 136 C152.81695312 134.92621094 152.63390625 133.85242188 152.4453125 132.74609375 C153.06996766 128.52747194 153.51317858 128.09935731 156.6484375 125.5078125 C158.2072688 124.35724654 159.78369391 123.23021581 161.375 122.125 C162.1690625 121.54492188 162.963125 120.96484375 163.78125 120.3671875 C169.36101974 116.31949013 169.36101974 116.31949013 172 115 C169.36 114.67 166.72 114.34 164 114 C164 113.67 164 113.34 164 113 C167.3 113 170.6 113 174 113 C171.31617772 94.58417884 165.94587637 78.30662439 151 66 C139.09228219 57.34485326 127.54133716 53.61570413 113 52 C113 59.26 113 66.52 113 74 C102.875 79.625 102.875 79.625 96.99609375 79.70703125 C95.14467773 79.75053711 95.14467773 79.75053711 93.25585938 79.79492188 C91.99580078 79.80072266 90.73574219 79.80652344 89.4375 79.8125 C88.14263672 79.83763672 86.84777344 79.86277344 85.51367188 79.88867188 C82.34214175 79.94718719 79.17198085 79.98373016 76 80 C71.29487696 60.67701896 68.12526795 32.07361096 78.4375 14.25 C82.08066771 9.28794072 82.08066771 9.28794072 85 8 C90.78301468 7.77321511 94.28038669 10.07876198 98.578125 13.61328125 C103.29850727 18.26514184 107.13477851 23.63387831 111 29 C111.46684893 22.08214771 109.73646799 19.47960874 105.37109375 14.375 C100.33227384 9.3278789 94.51358394 4.91114119 87.25 4.625 C83.06023832 4.69140833 80.34177213 5.21587823 77.2421875 8.32421875 C69.14142265 19.25260906 68.80322867 34.45639467 68.8125 47.5 C68.8115332 48.92880493 68.8115332 48.92880493 68.81054688 50.38647461 C68.86557999 57.87160352 69.51255228 65.16161019 70.5625 72.56640625 C70.92809568 75.43567947 71.08858634 78.11540715 71 81 C68.27172635 81.50534727 65.54255306 82.00443845 62.8125 82.5 C62.04357422 82.64308594 61.27464844 82.78617187 60.48242188 82.93359375 C52.89018957 84.30215065 52.89018957 84.30215065 49 84 C48.67 83.67 48.34 83.34 48 83 C45.0842309 82.58297878 45.0842309 82.58297878 42 83 C41.61585937 83.60714844 41.23171875 84.21429688 40.8359375 84.83984375 C38.03830474 88.13152655 34.55919404 88.69624384 30.5 89.875 C14.59421864 94.73147942 14.59421864 94.73147942 2.9765625 105.8671875 C2.24134301 107.5467256 1.61019607 109.27111114 1 111 C0.67 111 0.34 111 0 111 C0 74.37 0 37.74 0 0 Z " fill="#FFFEFD" transform="translate(0,0)"/>
<path d="M0 0 C36.96 0 73.92 0 112 0 C112 37.29 112 74.58 112 113 C103.42 113 94.84 113 86 113 C85.690625 109.101875 85.690625 109.101875 85.375 105.125 C83.04797852 82.17095662 72.21903254 60.78587895 54.40698242 45.94482422 C38.25450699 33.2078393 20.19681232 27.97042071 0 26 C0 17.42 0 8.84 0 0 Z " fill="#FF8C02" transform="translate(114,0)"/>
<path d="M0 0 C1.32 1.65 2.64 3.3 4 5 C10.37758061 12.01070604 18.45992703 15.34155728 27 19 C26.32904297 20.01707031 26.32904297 20.01707031 25.64453125 21.0546875 C23.72290567 24.0129256 21.85370149 26.99876902 20 30 C19.49082031 30.80179688 18.98164063 31.60359375 18.45703125 32.4296875 C14.40219596 39.49294898 13.61940178 46.94888386 14 55 C15.6545586 58.16556922 15.6545586 58.16556922 18.36328125 58.73046875 C42.22645823 62.42847101 65.97595268 56.4537717 87.81298828 46.65209961 C90.37482914 45.88823748 91.56746073 45.90240663 94 47 C95.43678572 49.71057474 96.61447144 52.29108059 97.75 55.125 C98.45162132 56.78039292 99.15742422 58.43401914 99.8671875 60.0859375 C100.22264648 60.91577148 100.57810547 61.74560547 100.94433594 62.60058594 C107.92392058 78.46445223 118.16414808 98.09298383 135 105 C135 105.33 135 105.66 135 106 C90.45 106 45.9 106 0 106 C0 71.02 0 36.04 0 0 Z " fill="#FFFEFE" transform="translate(0,117)"/>
<path d="M0 0 C0.33 0 0.66 0 1 0 C1 34.98 1 69.96 1 106 C-27.05 106 -55.1 106 -84 106 C-82.02 105.01 -82.02 105.01 -80 104 C-73.29827113 98.30353046 -70.52067956 91.19890251 -69.25 82.6875 C-69.06352905 81.50522827 -69.06352905 81.50522827 -68.87329102 80.29907227 C-67.65958023 71.49987847 -67.81468586 62.6765114 -68.02246094 53.81323242 C-68.04469727 52.69795166 -68.06693359 51.5826709 -68.08984375 50.43359375 C-68.11941162 49.43384521 -68.14897949 48.43409668 -68.17944336 47.40405273 C-68 45 -68 45 -66 43 C-65.83322718 39.41656024 -65.83322718 39.41656024 -66 36 C-67.32 35.34 -68.64 34.68 -70 34 C-70 32.02 -70 30.04 -70 28 C-69.38294189 27.91024902 -68.76588379 27.82049805 -68.13012695 27.72802734 C-32.24005114 23.01064866 -32.24005114 23.01064866 -2.5625 4.25 C-0.99160333 2.10224808 -0.99160333 2.10224808 0 0 Z " fill="#FFFEFE" transform="translate(225,117)"/>
<path d="M0 0 C16.99064612 0 31.34847034 6.42505357 43.375 18.27734375 C53.5377673 28.81819019 61.10853058 42.7984563 61.1875 57.75 C61.125625 58.8225 61.06375 59.895 61 61 C60.40832031 61.01417969 59.81664062 61.02835938 59.20703125 61.04296875 C53.82467498 61.36068467 53.82467498 61.36068467 49.375 64.25 C48.59125 65.1575 47.8075 66.065 47 67 C40.80758808 72 40.80758808 72 38 72 C37.34 68.7 36.68 65.4 36 62 C34.35 62 32.7 62 31 62 C31.2165625 62.75925781 31.433125 63.51851562 31.65625 64.30078125 C31.9346875 65.29464844 32.213125 66.28851563 32.5 67.3125 C32.7784375 68.29863281 33.056875 69.28476563 33.34375 70.30078125 C34 73 34 73 34 76 C22.67730416 86.78607518 9.4366686 92.30165262 -5.9604187 92.00772095 C-11.32186556 91.82861946 -16.65916432 91.5191222 -22 91 C-24.89616734 84.79139662 -26.73253714 78.40430172 -28.5625 71.8125 C-29.01786133 70.22211914 -29.01786133 70.22211914 -29.48242188 68.59960938 C-31.48123869 61.45351265 -32.9308824 54.34204355 -34 47 C-28.13766141 42.67387428 -22.10433822 38.73054821 -15.8125 35.0625 C-15.14798828 34.6610376 -14.48347656 34.2595752 -13.79882812 33.84594727 C-9.36871374 31.31578884 -6.22792048 30.55925443 -1 31 C-1.495 26.545 -1.495 26.545 -2 22 C-1.34 22 -0.68 22 0 22 C0 14.74 0 7.48 0 0 Z " fill="#FFFCFA" transform="translate(113,52)"/>
<path d="M0 0 C33.99 0 67.98 0 103 0 C103 33.99 103 67.98 103 103 C102.67 103 102.34 103 102 103 C101.84144531 101.87464844 101.68289062 100.74929687 101.51953125 99.58984375 C97.01141991 69.20590634 82.83041299 42.137842 58.20581055 23.1340332 C40.84317505 10.31893212 21.04431927 4.32676664 0 1 C0 0.67 0 0.34 0 0 Z " fill="#FFFEFD" transform="translate(123,0)"/>
<path d="M0 0 C0.04254356 1.99954746 0.04080783 4.00041636 0 6 C-0.33 6.33 -0.66 6.66 -1 7 C-1.33354403 10.41624258 -1.33354403 10.41624258 -1 14 C-0.50733643 14.45133301 -0.01467285 14.90266602 0.49291992 15.36767578 C2.69159276 17.74906677 2.37250492 19.54680942 2.36328125 22.7421875 C2.36263672 23.89203125 2.36199219 25.041875 2.36132812 26.2265625 C2.34521484 27.43054688 2.32910156 28.63453125 2.3125 29.875 C2.31572266 31.0403125 2.31894531 32.205625 2.32226562 33.40625 C2.24521435 46.04265914 1.610681 58.7651745 -6.375 69.0625 C-9 71 -9 71 -11.75 71.6875 C-22.56798488 69.39908012 -29.7692112 59.55012047 -35.56347656 50.82299805 C-40.30372259 43.43003028 -44.32596565 35.69447448 -48.1875 27.8125 C-48.68161377 26.82040527 -49.17572754 25.82831055 -49.68481445 24.80615234 C-50.13300537 23.86594238 -50.58119629 22.92573242 -51.04296875 21.95703125 C-51.44539795 21.12147705 -51.84782715 20.28592285 -52.26245117 19.42504883 C-53.15857694 16.47860155 -53.05550935 14.88574618 -52 12 C-50.40527344 10.74560547 -50.40527344 10.74560547 -48.359375 9.8671875 C-47.24755859 9.37025391 -47.24755859 9.37025391 -46.11328125 8.86328125 C-45.33339844 8.53714844 -44.55351563 8.21101562 -43.75 7.875 C-42.22294663 7.20804077 -40.69687827 6.53882106 -39.171875 5.8671875 C-38.4922168 5.57956543 -37.81255859 5.29194336 -37.11230469 4.99560547 C-34.89354977 4.00927802 -34.89354977 4.00927802 -32.60058594 2.43115234 C-29.64900351 0.8068399 -27.56384081 0.48607402 -24.21875 0.234375 C-23.12949219 0.14929688 -22.04023438 0.06421875 -20.91796875 -0.0234375 C-19.79003906 -0.09820312 -18.66210938 -0.17296875 -17.5 -0.25 C-16.37207031 -0.34023437 -15.24414062 -0.43046875 -14.08203125 -0.5234375 C-9.14813634 -0.88545109 -4.84344663 -1.16552346 0 0 Z " fill="#FFFDFC" transform="translate(151,147)"/>
<path d="M0 0 C11.96551724 0 11.96551724 0 18 2 C18.76957031 2.24492188 19.53914063 2.48984375 20.33203125 2.7421875 C36.0328002 8.33017771 47.45974935 20.48794332 55 35 C58.48627784 43.5599675 60 50.7197667 60 60 C52.41 60 44.82 60 37 60 C36.34 56.37 35.68 52.74 35 49 C31.05730804 38.20947464 25.18531115 30.92559596 14.77734375 26.06640625 C9.95283009 24.21395586 5.04250227 23.1140412 0 22 C0 14.74 0 7.48 0 0 Z " fill="#FF8C02" transform="translate(114,53)"/>
<path d="M0 0 C1.15371094 0.24234375 2.30742188 0.4846875 3.49609375 0.734375 C13.33941424 2.76961723 23.20019066 4.59359417 33.125 6.1875 C34.15423584 6.35411133 35.18347168 6.52072266 36.24389648 6.69238281 C42.48192432 7.67672289 48.70880606 8.44897819 55 9 C59 17.75 59 17.75 59 20 C12.31690929 40.43896976 12.31690929 40.43896976 -7 34 C-7.28875 33.195625 -7.5775 32.39125 -7.875 31.5625 C-8.77944219 28.76071559 -8.77944219 28.76071559 -11.625 27.6875 C-12.40875 27.460625 -13.1925 27.23375 -14 27 C-13.58589077 16.02610546 -7.43689881 7.67892806 0 0 Z " fill="#FFFCFB" transform="translate(32,138)"/>
<path d="M0 0 C0.5 1.5 0.5 1.5 1 4 C1.28875 5.216875 1.5775 6.43375 1.875 7.6875 C1.8359375 9.8125 1.8359375 9.8125 1 12 C-1.82658347 14.4957125 -4.90641517 16.44989092 -8.0859375 18.453125 C-12.34830008 21.15082284 -16.23002392 24.2392355 -20.125 27.4375 C-21.13348999 28.26411133 -21.13348999 28.26411133 -22.16235352 29.10742188 C-32.26085548 36.59074103 -32.26085548 36.59074103 -40 46 C-48.89594855 44.93031973 -58.19891247 40.50511864 -64.375 33.9375 C-66.24112474 31.46832732 -67.00726495 29.97261674 -67.8125 26.9375 C-66.38727078 21.78474819 -63.79591597 18.70422299 -59.29052734 15.95800781 C-54.64724472 13.3780158 -49.85813452 11.14204821 -45 9 C-43.70255859 8.41992188 -43.70255859 8.41992188 -42.37890625 7.828125 C-37.09790151 5.7738626 -32.32047184 5.86631778 -26.69921875 6.28515625 C-23.18202188 5.91358552 -22.40628305 4.49071404 -20 2 C-13.54968348 0.04647557 -6.70169446 -0.25775748 0 0 Z " fill="#FFFDFB" transform="translate(72,86)"/>
<path d="M0 0 C0.24121582 1.04172363 0.24121582 1.04172363 0.48730469 2.10449219 C1.23566621 5.3210589 1.99279164 8.5355049 2.75 11.75 C3.00265625 12.84183594 3.2553125 13.93367188 3.515625 15.05859375 C5.08717214 21.69838042 6.9480903 28.11919398 9.23925781 34.54785156 C10 37 10 37 10 40 C-6.86476707 39.38091361 -22.88588335 37.10366717 -39 32 C-32.76224611 24.00787783 -10.49471506 0 0 0 Z " fill="#FFFCFA" transform="translate(75,102)"/>
<path d="M0 0 C4.80835737 2.02077308 7.60229444 4.6626743 10.11328125 9.2265625 C11.95781314 13.92328722 11.51440386 17.7957776 9.83203125 22.5625 C7.01002378 26.79551121 3.87974133 29.73409664 -1.04296875 31.375 C-5.67819661 31.91356933 -9.12203221 31.82678019 -13.35546875 29.75 C-18.02692063 25.6217402 -20.68671827 21.40312904 -21.41796875 15.1875 C-20.87292442 9.64621603 -18.67158414 5.6040159 -14.3984375 1.98046875 C-9.62558109 -1.0685569 -5.38682409 -1.64797678 0 0 Z " fill="#FF8C04" transform="translate(118.04296875,97.625)"/>
<path d="M0 0 C1 2 1 2 1 9 C-3.95 9 -8.9 9 -14 9 C-11.51600034 6.51600034 -9.32749037 4.74074728 -6.4375 2.8125 C-5.65246094 2.28269531 -4.86742187 1.75289062 -4.05859375 1.20703125 C-2 0 -2 0 0 0 Z " fill="#FFF6EF" transform="translate(148,133)"/>
<path d="M0 0 C-4.60513939 3.99112081 -9.75483244 6.94456259 -15 10 C-15.33 7.03 -15.66 4.06 -16 1 C-10.61509359 0.08342019 -5.45769811 -0.11138159 0 0 Z " fill="#FFF8F2" transform="translate(93,84)"/>
<path d="M0 0 C5.94 0 11.88 0 18 0 C14.98638444 2.26021167 12.78104851 3.71090751 9.4375 5.1875 C8.29087891 5.70376953 8.29087891 5.70376953 7.12109375 6.23046875 C5 7 5 7 2 7 C0.5393715 4.35261084 0 3.10551666 0 0 Z " fill="#FFF9F4" transform="translate(93,148)"/>
</svg>
