<?xml version="1.0" encoding="UTF-8"?>
<svg version="1.1" xmlns="http://www.w3.org/2000/svg" width="512" height="512">
<path d="M0 0 C0.84328857 0.00182281 1.68657715 0.00364563 2.55541992 0.00552368 C65.3839774 0.23270223 125.9603565 22.59823743 172.46875 65.1328125 C174.0305593 66.54756833 175.61310279 67.93988737 177.21875 69.3046875 C191.53708257 81.5144985 191.53708257 81.5144985 192.15234375 88.4296875 C191.875 91.3125 191.875 91.3125 190.875 94.3125 C192.24220549 96.70360388 193.59184598 98.76243397 195.25 100.9375 C195.70536133 101.5370752 196.16072266 102.13665039 196.62988281 102.75439453 C199.43045147 106.20436732 199.43045147 106.20436732 203.3359375 108.140625 C204.84343396 108.17149523 206.3518942 108.17225047 207.859375 108.140625 C209.875 108.3125 209.875 108.3125 212.875 110.9375 C213.92304719 112.36169563 214.9156751 113.82709371 215.875 115.3125 C216.52855469 116.323125 217.18210937 117.33375 217.85546875 118.375 C220.31196885 122.28843585 222.60482203 126.28881131 224.875 130.3125 C225.31005859 131.07868652 225.74511719 131.84487305 226.19335938 132.63427734 C238.18832398 153.9802948 246.46583255 176.45849524 251.875 200.3125 C252.04080566 201.02970215 252.20661133 201.7469043 252.37744141 202.48583984 C256.27464124 219.58579829 257.25571226 236.47478716 257.1875 253.9375 C257.18476578 255.39183441 257.18476578 255.39183441 257.18197632 256.87554932 C257.13662737 271.20729259 256.71795422 285.22145512 253.875 299.3125 C253.69807617 300.21436035 253.52115234 301.1162207 253.33886719 302.04541016 C252.04002189 308.51832573 250.53323805 314.92270862 248.875 321.3125 C248.66004883 322.14313965 248.44509766 322.9737793 248.22363281 323.82958984 C241.01581034 351.00706696 228.78976373 377.14860305 212.875 400.3125 C212.48489746 400.88516602 212.09479492 401.45783203 211.69287109 402.04785156 C173.82902196 457.40257261 116.11385718 495.60839436 50.25 508.5625 C49.48856689 508.71372314 48.72713379 508.86494629 47.94262695 509.02075195 C32.48554738 511.85660484 16.93514093 512.69585947 1.25 512.625 C0.38170563 512.62284485 -0.48658875 512.6206897 -1.38119507 512.61846924 C-15.79820923 512.56137738 -29.90946201 511.88950393 -44.125 509.3125 C-45.19395508 509.11914062 -46.26291016 508.92578125 -47.36425781 508.7265625 C-106.57184073 497.58322421 -162.29547658 465.56508416 -199.125 417.3125 C-199.53250488 416.78672363 -199.94000977 416.26094727 -200.35986328 415.71923828 C-232.79056292 373.71642828 -255.05374955 319.9003712 -255.328125 266.30078125 C-255.33518463 265.37808945 -255.34224426 264.45539764 -255.34951782 263.50474548 C-255.57819193 224.8521198 -255.57819193 224.8521198 -252.125 208.3125 C-251.92100586 207.32024414 -251.71701172 206.32798828 -251.50683594 205.30566406 C-241.48613708 157.91519741 -219.78904239 116.94127235 -187.125 81.3125 C-186.14029184 80.22295726 -185.15593497 79.13309696 -184.171875 78.04296875 C-178.76703738 72.08321967 -173.34899678 66.43130109 -167.125 61.3125 C-166.28066406 60.5803125 -165.43632812 59.848125 -164.56640625 59.09375 C-118.98953091 20.01018797 -59.78482879 -0.27149227 0 0 Z " fill="#010203" transform="translate(255.125,-0.3125)"/>
<path d="M0 0 C1.24136719 0.40605469 2.48273438 0.81210938 3.76171875 1.23046875 C4.6842041 1.5150293 5.60668945 1.79958984 6.55712891 2.09277344 C9.79056491 3.1080331 12.99414248 4.19163987 16.19921875 5.29296875 C17.31232422 5.67001953 18.42542969 6.04707031 19.57226562 6.43554688 C22.30398484 7.3617521 25.03366736 8.29352684 27.76171875 9.23046875 C26.94957682 10.85475262 26.13734069 12.47898943 25.32470703 14.10302734 C24.60277361 15.54788904 23.8824514 16.99355668 23.16357422 18.43994141 C21.41137297 21.96026612 19.64692614 25.46929889 17.80078125 28.94140625 C8.12336613 47.32973092 -0.33367408 67.95975019 -4.03515625 88.50390625 C-5.67275641 97.1565377 -7.83473881 102.01982028 -15.3359375 107.265625 C-16.29371094 107.91402344 -17.25148438 108.56242187 -18.23828125 109.23046875 C-19.97114139 110.68082476 -21.68163888 112.15852656 -23.36328125 113.66796875 C-24.08773437 114.30605469 -24.8121875 114.94414062 -25.55859375 115.6015625 C-28.09848551 118.06466683 -28.41254367 119.79703181 -28.48828125 123.23046875 C-28.52695313 124.28234375 -28.52695313 124.28234375 -28.56640625 125.35546875 C-28.458125 125.97421875 -28.34984375 126.59296875 -28.23828125 127.23046875 C-24.62579984 129.63878969 -23.49953157 129.9540773 -19.23828125 129.23046875 C-16.29771961 127.18944601 -13.80025763 124.72141066 -11.23828125 122.23046875 C8.56893514 103.30442446 42.90351153 84.89256743 70.76171875 85.23046875 C70.76718719 86.17768044 70.76718719 86.17768044 70.77276611 87.14402771 C70.81474492 93.7473462 70.88419793 100.34997956 70.96923828 106.95288086 C70.99737355 109.41342296 71.01862489 111.87405419 71.03271484 114.3347168 C71.05424677 117.8824604 71.10095248 121.4291407 71.15234375 124.9765625 C71.15418671 126.61303993 71.15418671 126.61303993 71.15606689 128.28257751 C71.28305406 134.98270711 72.17270148 140.46795959 75.76171875 146.23046875 C80.10866627 150.37041877 82.70940653 151.35445303 88.61174011 151.37763977 C90.48125336 151.38837273 90.48125336 151.38837273 92.38853455 151.39932251 C93.77749609 151.40216293 95.1664579 151.40487464 96.55541992 151.4074707 C98.01232058 151.41373448 99.46921964 151.4203812 100.92611694 151.42738342 C104.89121253 151.44480373 108.85629605 151.45534849 112.82142043 151.46358895 C115.29895662 151.46873809 117.77648906 151.47481393 120.2540226 151.48110008 C128.0062435 151.50015707 135.75845486 151.51438579 143.51069468 151.52271205 C152.45782654 151.53248023 161.40471072 151.55878654 170.35175532 151.59921294 C177.26734889 151.62938716 184.18287152 151.64418225 191.09852964 151.64749306 C195.22864691 151.64984253 199.35849975 151.65878882 203.48854637 151.68395424 C207.37673854 151.70726231 211.2644927 151.71145742 215.15273666 151.70119286 C216.57692612 151.70069801 218.00113733 151.70700356 219.42526054 151.7207489 C229.82230453 151.88676396 229.82230453 151.88676396 238.76171875 147.23046875 C243.7402255 141.12688431 243.36320188 134.93286975 243.37109375 127.296875 C243.38763 126.06380112 243.40416626 124.83072723 243.42120361 123.56028748 C243.46962885 119.63779694 243.49104373 115.71569401 243.51171875 111.79296875 C243.53769252 109.1268947 243.56981057 106.46093854 243.6015625 103.79492188 C243.6753868 97.27350773 243.72706152 90.75220235 243.76171875 84.23046875 C245.35516456 84.5468464 246.94848309 84.86386516 248.54174805 85.18115234 C249.42904099 85.35762299 250.31633392 85.53409363 251.23051453 85.71591187 C279.97495545 91.55923728 307.46257396 103.88776224 328.76171875 124.23046875 C329.77298828 125.12958984 329.77298828 125.12958984 330.8046875 126.046875 C348.49167619 142.39233561 357.93701093 167.67745628 358.88623047 191.33349609 C359.51154395 217.48402835 359.51154395 217.48402835 355.76171875 229.23046875 C355.40980469 230.3803125 355.05789063 231.53015625 354.6953125 232.71484375 C350.37074593 245.78845094 344.44000593 256.42289147 334.76171875 266.23046875 C333.97796875 267.11734375 333.19421875 268.00421875 332.38671875 268.91796875 C318.42178875 281.22040709 303.32925465 284.24862977 285.28564453 283.45263672 C266.24431138 281.77652788 249.4663896 268.06640492 237.23828125 254.34375 C233.96408364 250.22776341 231.11028409 245.87752172 228.42358398 241.35693359 C224.95564264 235.76701832 221.06272003 233.33080251 214.76171875 231.23046875 C213.20640285 231.13304636 211.64728717 231.09127426 210.08894348 231.08329773 C209.12875305 231.07614243 208.16856262 231.06898712 207.17927551 231.06161499 C206.12729477 231.05892609 205.07531403 231.05623718 203.99145508 231.0534668 C202.32758255 231.04361 202.32758255 231.04361 200.63009644 231.03355408 C196.95131363 231.01380921 193.27257168 231.00215535 189.59375 230.9921875 C188.33774176 230.98811197 187.08173351 230.98403645 185.78766441 230.97983742 C179.82466428 230.96112297 173.86167713 230.94655905 167.89865476 230.93822545 C161.02754767 230.92846304 154.15676358 230.90216853 147.28577024 230.86172456 C141.32547087 230.82785196 135.36525003 230.81607429 129.40485191 230.81202126 C126.87434386 230.80715176 124.34383934 230.79552756 121.81339455 230.77698326 C118.2683206 230.75261966 114.72408724 230.75355244 111.17895508 230.76049805 C110.13709549 230.74768799 109.0952359 230.73487793 108.02180481 230.72167969 C101.75956667 230.76631102 96.97471743 231.60721415 91.76171875 235.23046875 C89.46139163 237.52640119 89.46139163 237.52640119 87.76171875 240.23046875 C87.08753906 241.21402344 86.41335937 242.19757813 85.71875 243.2109375 C85.01105469 244.26925781 84.30335938 245.32757813 83.57421875 246.41796875 C71.39115433 264.16777963 54.49653761 278.5672681 32.83691406 282.91699219 C21.27682468 284.66324569 9.42842652 284.25009594 -1.23828125 279.23046875 C-2.15609375 278.81796875 -3.07390625 278.40546875 -4.01953125 277.98046875 C-21.33515275 269.41993677 -32.04832815 253.54313443 -38.49609375 235.76171875 C-39.49453899 232.59627756 -40.41772432 229.44658526 -41.23828125 226.23046875 C-41.41633301 225.61276611 -41.59438477 224.99506348 -41.77783203 224.35864258 C-43.67174678 217.14176868 -43.53268739 209.96249538 -43.48828125 202.54296875 C-43.49988281 200.63354492 -43.49988281 200.63354492 -43.51171875 198.68554688 C-43.48715363 186.60564864 -42.41939453 175.13514751 -38.11328125 163.79296875 C-36.09135397 158.41840391 -34.76366721 154.08898584 -35.23828125 148.23046875 C-36.21877063 146.1664419 -36.21877063 146.1664419 -38.23828125 145.23046875 C-42.27096004 144.6767805 -42.27096004 144.6767805 -45.76953125 146.4140625 C-47.61597301 148.69756095 -48.61383811 150.95416847 -49.73828125 153.66796875 C-50.14046875 154.61542969 -50.54265625 155.56289062 -50.95703125 156.5390625 C-52.73479367 161.66096947 -53.92333616 166.97068838 -55.23828125 172.23046875 C-64.14828125 172.23046875 -73.05828125 172.23046875 -82.23828125 172.23046875 C-83.50763642 120.61002509 -63.0803388 70.31513789 -31.23828125 30.23046875 C-30.80080566 29.67584961 -30.36333008 29.12123047 -29.91259766 28.54980469 C-26.81566864 24.65767032 -23.5829076 20.91142625 -20.23828125 17.23046875 C-19.57038574 16.4945752 -18.90249023 15.75868164 -18.21435547 15.00048828 C-15.99938423 12.59171321 -13.75036998 10.21999168 -11.48828125 7.85546875 C-10.42444214 6.70220093 -10.42444214 6.70220093 -9.33911133 5.52563477 C-4.22682922 0.30082379 -4.22682922 0.30082379 0 0 Z " fill="#ECF3F4" transform="translate(98.23828125,75.76953125)"/>
<path d="M0 0 C32.34 0 64.68 0 98 0 C98 14 98 14 97 19 C96.55713056 22.84608635 96.25762218 26.70443486 95.9375 30.5625 C95.84662109 31.58408203 95.75574219 32.60566406 95.66210938 33.65820312 C94.69827371 44.3239498 94.69827371 44.3239498 95 55 C96.93602047 57.37198957 96.93602047 57.37198957 100.4375 57.25 C104.10420618 57.28809647 104.10420618 57.28809647 107 55 C107.75562399 52.67682131 107.75562399 52.67682131 108.0859375 49.890625 C108.2415918 48.81232422 108.39724609 47.73402344 108.55761719 46.62304688 C109.36527306 40.00847012 110.01717629 33.38515172 110.625 26.75 C110.76002302 25.31116092 110.8954374 23.87235851 111.03125 22.43359375 C111.3586644 18.95613885 111.68083245 15.47822269 112 12 C115.53006928 15.50282711 118.88684936 19.09256434 122.1875 22.8125 C133.783981 35.54585273 148.42068021 45.06730982 165 50 C166.258125 50.391875 167.51625 50.78375 168.8125 51.1875 C174.74237368 52.59227091 180.93612415 52.67636618 187 53 C185.1031761 58.9899702 182.94586293 64.76762693 180.375 70.5 C180.03380127 71.26393066 179.69260254 72.02786133 179.34106445 72.81494141 C176.79612428 78.42751022 174.06312083 83.92495738 171.1875 89.375 C170.8147998 90.08205078 170.44209961 90.78910156 170.05810547 91.51757812 C168.25064091 94.88190274 166.41893337 98.02402519 164 101 C158.25996808 100.34772365 152.66098036 99.38862196 147 98.25 C132.41007516 95.38375908 117.69737632 93.23209428 103 91 C102.81824219 89.93458984 102.81824219 89.93458984 102.6328125 88.84765625 C102.46523438 87.92855469 102.29765625 87.00945312 102.125 86.0625 C101.96257812 85.14597656 101.80015625 84.22945313 101.6328125 83.28515625 C101.31957031 82.15400391 101.31957031 82.15400391 101 81 C97.95016004 79.47508002 95.3576631 79.76437452 92 80 C90 81 90 81 89 83 C88.67 84.98 88.34 86.96 88 89 C62.26 89 36.52 89 10 89 C4.19081385 56.46855756 4.19081385 56.46855756 2.96875 44.39794922 C2.74780918 42.22848794 2.50766199 40.06173047 2.265625 37.89453125 C0.9281753 25.22219533 0.53360954 12.80662889 0 0 Z " fill="#2DCFDF" transform="translate(207,321)"/>
<path d="M0 0 C1.54389861 0.00081715 1.54389861 0.00081715 3.11898708 0.00165081 C4.88791569 -0.00464092 4.88791569 -0.00464092 6.69258022 -0.01105976 C7.99292202 -0.00544025 9.29326382 0.00017925 10.63300991 0.00596905 C12.01097612 0.00489657 13.38894189 0.00295839 14.76690578 0.00021648 C18.5147132 -0.00464001 22.26240195 0.00303345 26.01019502 0.01316953 C29.92551657 0.02193548 33.84083424 0.02019288 37.7561636 0.01980877 C44.33101806 0.02074598 50.90582643 0.02943814 57.48066616 0.04307842 C65.0923987 0.05881107 72.70408076 0.06407634 80.31582838 0.06334287 C87.62648762 0.06273345 94.93713034 0.06783061 102.24778461 0.07613468 C105.3646034 0.07967377 108.48141634 0.08149882 111.59823704 0.08202839 C115.26469121 0.08302973 118.93110267 0.08910917 122.59754276 0.09919453 C124.59285069 0.10352956 126.58816737 0.10294632 128.58347988 0.10225201 C129.75994579 0.10651699 130.93641171 0.11078197 132.1485281 0.1151762 C133.69186117 0.11768997 133.69186117 0.11768997 135.26637268 0.12025452 C137.57026577 0.24888897 137.57026577 0.24888897 138.57026577 1.24888897 C138.66455919 3.42694616 138.68769115 5.60810177 138.68379116 7.78819561 C138.68393719 8.47109158 138.68408321 9.15398754 138.68423367 9.85757732 C138.68353453 12.12476511 138.67574217 14.39187171 138.66792202 16.65904522 C138.66605784 18.22703284 138.66463394 19.79502104 138.6636343 21.36300945 C138.65980911 25.497654 138.64997883 29.63226363 138.63893032 33.76689434 C138.62871621 37.98289295 138.62413668 42.19889719 138.61909389 46.41490459 C138.60835656 54.69291544 138.59128013 62.97089787 138.57026577 71.24888897 C120.07303845 71.27221695 101.5758141 71.28986765 83.07857513 71.30070114 C74.49059528 71.30586431 65.90262454 71.31290741 57.31465054 71.32432842 C49.8321116 71.33427462 42.34957926 71.34074224 34.8670339 71.34297746 C30.90261991 71.34428468 26.93822482 71.34737123 22.97381687 71.35461903 C19.24666364 71.36137823 15.5195372 71.36350614 11.79237843 71.36199665 C10.42051072 71.36227302 9.04864217 71.36427875 7.67677975 71.36809444 C5.81165614 71.37303005 3.94651833 71.37128691 2.08138943 71.36914349 C1.03515439 71.37006528 -0.01108065 71.37098707 -1.08901978 71.3719368 C-3.42973423 71.24888897 -3.42973423 71.24888897 -4.42973423 70.24888897 C-4.53447981 68.14294469 -4.5682988 66.03345131 -4.5749979 63.92491436 C-4.57835651 63.26473812 -4.58171513 62.60456188 -4.58517551 61.9243803 C-4.59471118 59.73174972 -4.59662993 57.53919528 -4.59770298 55.34654522 C-4.60091378 53.82818857 -4.60427772 52.30983224 -4.60778904 50.79147625 C-4.61378688 47.60450301 -4.61562827 44.41755691 -4.61503696 41.23057842 C-4.61493531 37.14019297 -4.62858766 33.049981 -4.64580917 28.95963669 C-4.65690994 25.82244341 -4.65895677 22.68529231 -4.65842724 19.5480814 C-4.65961026 18.03975037 -4.66404998 16.53141836 -4.67175961 15.02310658 C-4.68152085 12.91603238 -4.67869705 10.80933799 -4.67265415 8.70225811 C-4.67407917 7.50170284 -4.67550419 6.30114758 -4.67697239 5.06421185 C-4.35949309 1.44904688 -3.67378891 0.37632327 0 0 Z " fill="#CAE4E7" transform="translate(188.4297342300415,141.7511110305786)"/>
<path d="M0 0 C2.04541016 1.65234375 2.04541016 1.65234375 4.0390625 3.9375 C4.78542969 4.74960938 5.53179687 5.56171875 6.30078125 6.3984375 C7.83990118 8.12121712 9.36620845 9.85553696 10.87890625 11.6015625 C15.06082355 16.35949745 15.06082355 16.35949745 20.82055664 18.31640625 C22.71124351 18.19069185 24.60075293 18.04545287 26.48828125 17.87890625 C29 18 29 18 30.90234375 19.27734375 C32.51788131 21.10482064 33.86191924 22.95335071 35.1875 25 C35.9000293 26.00160156 35.9000293 26.00160156 36.62695312 27.0234375 C37.78399402 28.65965695 38.89677433 30.32702336 40 32 C39.505 32.721875 39.01 33.44375 38.5 34.1875 C36.84718313 37.28653163 36.42631196 38.5630871 37 42 C38.62224629 45.03965543 38.62224629 45.03965543 40.875 48.1875 C57.9993117 73.83130183 70.23394646 102.64662382 76 133 C76.13390137 133.67885254 76.26780273 134.35770508 76.40576172 135.05712891 C78.81776806 147.52413581 79.27023021 159.29917993 79 172 C70.09 172 61.18 172 52 172 C51.175 169.03 50.35 166.06 49.5 163 C43.20648015 141.56072911 30.63214699 119.19913448 11.80029297 106.32397461 C4.52941313 101.30749654 2.07468894 96.86105072 0.43212891 88.11523438 C-0.40865941 83.9996468 -1.59653129 79.97445497 -2.75 75.9375 C-3.00499268 75.04216553 -3.25998535 74.14683105 -3.52270508 73.22436523 C-9.54364245 52.51138233 -17.75372829 30.35482221 -30.20825195 12.63208008 C-31 11 -31 11 -30 8 C-27.67089844 6.92504883 -27.67089844 6.92504883 -24.609375 5.95703125 C-23.50722656 5.60576172 -22.40507812 5.25449219 -21.26953125 4.89257812 C-20.10808594 4.53615234 -18.94664062 4.17972656 -17.75 3.8125 C-16.60402344 3.44447266 -15.45804687 3.07644531 -14.27734375 2.69726562 C-3.87252969 -0.56710852 -3.87252969 -0.56710852 0 0 Z " fill="#2DCFE0" transform="translate(417,76)"/>
<path d="M0 0 C1.24136719 0.40605469 2.48273438 0.81210938 3.76171875 1.23046875 C4.6842041 1.5150293 5.60668945 1.79958984 6.55712891 2.09277344 C9.79056491 3.1080331 12.99414248 4.19163987 16.19921875 5.29296875 C17.31232422 5.67001953 18.42542969 6.04707031 19.57226562 6.43554688 C22.30398484 7.3617521 25.03366736 8.29352684 27.76171875 9.23046875 C26.94957682 10.85475262 26.13734069 12.47898943 25.32470703 14.10302734 C24.60277361 15.54788904 23.8824514 16.99355668 23.16357422 18.43994141 C21.41137297 21.96026612 19.64692614 25.46929889 17.80078125 28.94140625 C8.12336613 47.32973092 -0.33367408 67.95975019 -4.03515625 88.50390625 C-5.67275641 97.1565377 -7.83473881 102.01982028 -15.3359375 107.265625 C-16.29371094 107.91402344 -17.25148438 108.56242187 -18.23828125 109.23046875 C-19.97114139 110.68082476 -21.68163888 112.15852656 -23.36328125 113.66796875 C-24.08773437 114.30605469 -24.8121875 114.94414062 -25.55859375 115.6015625 C-28.30351733 118.26350002 -28.23729197 119.16814408 -28.30078125 123.16796875 C-28.2830626 124.52217975 -28.26241394 125.87635686 -28.23828125 127.23046875 C-28.23828125 131.26392094 -29.83997407 132.9297238 -32.11328125 136.23046875 C-33.19222656 137.80828125 -33.19222656 137.80828125 -34.29296875 139.41796875 C-35.25589844 140.81015625 -35.25589844 140.81015625 -36.23828125 142.23046875 C-36.89828125 143.22046875 -37.55828125 144.21046875 -38.23828125 145.23046875 C-40.23828125 145.23046875 -42.23828125 145.23046875 -44.23828125 145.23046875 C-47.20608064 147.47330951 -48.33781527 150.28799798 -49.73828125 153.66796875 C-50.14046875 154.61542969 -50.54265625 155.56289062 -50.95703125 156.5390625 C-52.73479367 161.66096947 -53.92333616 166.97068838 -55.23828125 172.23046875 C-64.14828125 172.23046875 -73.05828125 172.23046875 -82.23828125 172.23046875 C-83.50763642 120.61002509 -63.0803388 70.31513789 -31.23828125 30.23046875 C-30.80080566 29.67584961 -30.36333008 29.12123047 -29.91259766 28.54980469 C-26.81566864 24.65767032 -23.5829076 20.91142625 -20.23828125 17.23046875 C-19.57038574 16.4945752 -18.90249023 15.75868164 -18.21435547 15.00048828 C-15.99938423 12.59171321 -13.75036998 10.21999168 -11.48828125 7.85546875 C-10.42444214 6.70220093 -10.42444214 6.70220093 -9.33911133 5.52563477 C-4.22682922 0.30082379 -4.22682922 0.30082379 0 0 Z " fill="#2DCFE0" transform="translate(98.23828125,75.76953125)"/>
<path d="M0 0 C8.25 0 16.5 0 25 0 C25 6.34014392 24.94752516 11.65488765 24.08203125 17.78125 C23.98485809 18.47304855 23.88768494 19.16484711 23.78756714 19.87760925 C23.47255982 22.08667283 23.14452453 24.29343345 22.8125 26.5 C22.64302353 27.63799545 22.64302353 27.63799545 22.47012329 28.79898071 C20.88629071 39.33437878 19.13180893 49.67819467 15.73632812 59.80175781 C14.90180051 62.29316586 14.11745557 64.79860749 13.328125 67.3046875 C2.99679666 99.25309308 -13.73528866 129.08150779 -36.76953125 153.6171875 C-38.75288924 155.73601127 -40.6323994 157.90477551 -42.5 160.125 C-45.23337728 163.2331666 -48.08701751 166.18457432 -51.0625 169.0625 C-52.25552734 170.22458984 -52.25552734 170.22458984 -53.47265625 171.41015625 C-56.82803272 173.52087993 -58.19257618 172.84873521 -62 172 C-63.9576419 171.42450564 -65.90330865 170.80694385 -67.8359375 170.15234375 C-68.89941406 169.79462891 -69.96289062 169.43691406 -71.05859375 169.06835938 C-72.15300781 168.69517578 -73.24742187 168.32199219 -74.375 167.9375 C-76.05142578 167.37192383 -76.05142578 167.37192383 -77.76171875 166.79492188 C-80.50921766 165.86734746 -83.25522228 164.93558963 -86 164 C-84.44488449 160.00173392 -82.59310437 156.37371562 -80.5 152.625 C-76.90499356 146.03009223 -73.80265831 139.26303326 -70.8125 132.375 C-70.37929443 131.3847583 -69.94608887 130.3945166 -69.49975586 129.37426758 C-67.70706174 125.2192156 -65.96395341 121.10794662 -64.640625 116.77734375 C-62.12550889 108.69434379 -62.12550889 108.69434379 -58.64453125 106.546875 C-55.875 105.5625 -55.875 105.5625 -52.953125 104.7890625 C-37.98860532 100.79060618 -24.96726952 87.74460761 -17 75 C-3.06571915 50.80035537 -0.72665683 27.46762817 0 0 Z " fill="#02C4DA" transform="translate(472,263)"/>
<path d="M0 0 C8.25 0 16.5 0 25 0 C25.03738281 1.81242187 25.07476562 3.62484375 25.11328125 5.4921875 C25.94328943 38.82549954 31.55065536 68.58085391 56.6875 92.6875 C63.93488125 98.9768293 72.35904693 103.99307889 81.5625 106.75 C84.46785304 107.86780628 85.70033738 108.53802013 87.40625 111.16796875 C88.48028784 113.74057965 89.40760188 116.33130716 90.28808594 118.97558594 C91.73144927 123.07996481 93.477477 127.06369383 95.1875 131.0625 C95.56592041 131.95428955 95.94434082 132.8460791 96.33422852 133.76489258 C100.10876762 142.51997634 104.51133059 150.90324126 109.11132812 159.24853516 C110 161 110 161 111 164 C107.23258427 165.31356822 103.46066969 166.61317715 99.68408203 167.90014648 C98.40054933 168.33971026 97.11829943 168.78303881 95.83740234 169.23022461 C93.99399574 169.87305724 92.14547762 170.5011722 90.296875 171.12890625 C89.18666992 171.51119385 88.07646484 171.89348145 86.93261719 172.28735352 C84.03038047 172.99261733 82.72282694 173.10414153 80 172 C69.55035633 164.53922821 60.873388 154.01451589 53 144 C52.22011719 143.03707031 51.44023438 142.07414063 50.63671875 141.08203125 C39.58718797 127.17759778 30.47279265 112.09464847 23 96 C22.6704834 95.30616211 22.3409668 94.61232422 22.00146484 93.89746094 C12.71188115 74.28759847 6.1924807 53.89496517 2.875 32.4375 C2.70613281 31.39142578 2.53726562 30.34535156 2.36328125 29.26757812 C0.81044688 19.41869559 0 9.98869104 0 0 Z " fill="#2DCEDF" transform="translate(15,263)"/>
<path d="M0 0 C0.75442383 0.00757324 1.50884766 0.01514648 2.28613281 0.02294922 C8.78177434 0.21581937 13.45777771 1.29433256 18.16796875 5.96875 C21.97192343 10.31612678 22.74847028 12.7578673 22.625 18.4375 C23.65625 18.52 24.6875 18.6025 25.75 18.6875 C32.17377183 19.93081068 35.92730387 23.15507695 39.625 28.4375 C43.21603123 33.97905539 42.27590613 42.07163804 41.625 48.4375 C40.10460544 54.79551361 37.17422249 59.02259385 31.625 62.4375 C28.89178386 63.09366922 26.45395978 63.29117449 23.625 63.4375 C23.521875 64.30375 23.41875 65.17 23.3125 66.0625 C21.91659967 72.91510163 19.11928854 76.43124794 13.625 80.4375 C9.25685606 81.89354798 5.01523051 81.78401015 0.4375 81.875 C-0.48353516 81.92076172 -1.40457031 81.96652344 -2.35351562 82.01367188 C-8.55432115 82.11489155 -12.03033246 81.01059278 -16.80981445 77.02758789 C-20.12425152 73.66041761 -21.30318706 70.73013299 -21.5625 66.0625 C-21.500625 65.19625 -21.43875 64.33 -21.375 63.4375 C-22.365 63.56125 -23.355 63.685 -24.375 63.8125 C-28.71285108 63.8125 -31.20999271 61.88224551 -34.578125 59.3359375 C-39.80845823 53.80997674 -39.8677716 48.14290721 -39.8125 40.9375 C-39.83248047 40.01324219 -39.85246094 39.08898437 -39.87304688 38.13671875 C-39.86797842 31.05101663 -38.21026781 27.27276781 -33.125 22.1875 C-29.57713379 19.92976695 -26.48714685 19.27386885 -22.375 18.4375 C-22.065625 16.6740625 -22.065625 16.6740625 -21.75 14.875 C-20.24394969 8.8932227 -16.87646298 4.99817953 -11.6953125 1.765625 C-7.63813023 0.14275209 -4.32561661 -0.06026401 0 0 Z " fill="#030303" transform="translate(123.375,214.5625)"/>
<path d="M0 0 C0.83192871 0.00644531 1.66385742 0.01289063 2.52099609 0.01953125 C12.84608508 0.32385809 21.19028833 3.81971001 28.70703125 10.98046875 C36.39866179 20.46632286 39.95001818 31.37275745 38.75 43.5 C36.09678391 54.5140824 30.15498984 63.15690143 20.6875 69.4375 C19.38850077 70.15018051 18.07630802 70.83953082 16.75 71.5 C15.615625 72.098125 14.48125 72.69625 13.3125 73.3125 C4.51995622 76.34201014 -7.68929683 75.89067795 -16.05078125 71.81640625 C-24.06194207 67.02109329 -29.49989172 61.57132219 -34.25 53.5 C-34.61222656 52.88769531 -34.97445313 52.27539062 -35.34765625 51.64453125 C-38.91468467 44.12888533 -38.40156071 33.9834097 -36.37109375 26.078125 C-32.52206621 16.06811278 -25.35250565 7.36505479 -15.53955078 2.68408203 C-10.33155261 0.50901497 -5.61395241 -0.04568832 0 0 Z " fill="#030303" transform="translate(391.25,218.5)"/>
<path d="M0 0 C0.33 0 0.66 0 1 0 C1.06316406 1.2478125 1.12632812 2.495625 1.19140625 3.78125 C2.28615301 21.56195146 4.92806683 39.06831827 7.61157227 56.66796875 C7.84534828 58.21373344 7.84534828 58.21373344 8.08384705 59.79072571 C8.37961779 61.74139686 8.6794104 63.69146395 8.98390198 65.64079285 C9.66731621 70.14092077 10.17661012 74.43127568 10 79 C9.26177002 79.10022461 8.52354004 79.20044922 7.76293945 79.30371094 C-4.80063158 81.02157306 -17.35421718 82.74592856 -29.8125 85.125 C-31.06196411 85.36234863 -31.06196411 85.36234863 -32.33666992 85.60449219 C-35.88355245 86.30152091 -39.29111639 87.08645824 -42.76171875 88.1171875 C-45.76303486 88.93539913 -47.93040974 89.47142049 -51 89 C-59.67789668 80.96904164 -64.62155881 65.00572575 -69.4375 54.3125 C-69.77958496 53.558479 -70.12166992 52.80445801 -70.47412109 52.02758789 C-72.09618793 48.36865086 -73.43994254 44.99928354 -74 41 C-72.92105469 40.93683594 -71.84210938 40.87367188 -70.73046875 40.80859375 C-46.27418329 38.9720974 -24.00664435 27.94154887 -7.7734375 9.40625 C-5.82491621 7.1204491 -3.92770569 4.79864056 -2.046875 2.45703125 C-1.37140625 1.64621094 -0.6959375 0.83539063 0 0 Z " fill="#2DCEDF" transform="translate(192,333)"/>
<path d="M0 0 C5.41329069 0.61175164 10.28635232 1.87232735 15.4375 3.625 C16.6138501 4.02477051 16.6138501 4.02477051 17.81396484 4.43261719 C48.23393241 14.98310745 76.3665546 33.43050106 91.03515625 62.984375 C101.93958847 86.17004743 105.87843976 116.32055015 98 141 C97.64808594 142.14984375 97.29617188 143.2996875 96.93359375 144.484375 C92.60902718 157.55798219 86.67828718 168.19242272 77 178 C76.21625 178.886875 75.4325 179.77375 74.625 180.6875 C63.676115 190.33294631 52.4264317 194.54776076 38 195 C40.22872191 192.6587874 42.59764026 190.74228929 45.1875 188.8125 C63.61541027 174.46974136 73.37797666 153.18563711 77.25 130.4375 C81.22442121 98.42729676 74.37523909 66.17002746 54.6875 40.3125 C40.29303043 22.19240301 20.60406109 10.85626961 0 1 C0 0.67 0 0.34 0 0 Z " fill="#DCEAEF" transform="translate(356,164)"/>
<path d="M0 0 C2.04541016 1.65234375 2.04541016 1.65234375 4.0390625 3.9375 C4.78542969 4.74960938 5.53179687 5.56171875 6.30078125 6.3984375 C7.83990118 8.12121712 9.36620845 9.85553696 10.87890625 11.6015625 C15.06082355 16.35949745 15.06082355 16.35949745 20.82055664 18.31640625 C22.71124351 18.19069185 24.60075293 18.04545287 26.48828125 17.87890625 C29 18 29 18 30.90234375 19.27734375 C32.51788131 21.10482064 33.86191924 22.95335071 35.1875 25 C35.9000293 26.00160156 35.9000293 26.00160156 36.62695312 27.0234375 C37.78399402 28.65965695 38.89677433 30.32702336 40 32 C39.505 32.721875 39.01 33.44375 38.5 34.1875 C36.84718313 37.28653163 36.42631196 38.5630871 37 42 C38.62224629 45.03965543 38.62224629 45.03965543 40.875 48.1875 C57.9993117 73.83130183 70.23394646 102.64662382 76 133 C76.13390137 133.67885254 76.26780273 134.35770508 76.40576172 135.05712891 C78.81776806 147.52413581 79.27023021 159.29917993 79 172 C71.74 172 64.48 172 57 172 C56.84144531 170.12441406 56.68289063 168.24882812 56.51953125 166.31640625 C51.42947887 109.1332605 32.06086689 55.27417445 -8 13 C-9.15504093 11.65367841 -10.30215353 10.30047094 -11.4375 8.9375 C-13.85445796 5.90754236 -13.85445796 5.90754236 -17 4 C-15.10751181 3.32389577 -13.2108398 2.65949561 -11.3125 2 C-10.25675781 1.62875 -9.20101563 1.2575 -8.11328125 0.875 C-5.07349832 0.02065699 -3.11691973 -0.36652144 0 0 Z " fill="#02C5DB" transform="translate(417,76)"/>
<path d="M0 0 C0.96292969 0.23074219 1.92585938 0.46148437 2.91796875 0.69921875 C12.80662289 3.00913529 22.74241934 4.9031065 32.75 6.625 C33.94391357 6.83084717 35.13782715 7.03669434 36.36791992 7.2487793 C44.5613485 8.63845953 52.76801724 9.86233559 61 11 C60.37978531 20.16334671 58.793762 29.00862697 57 38 C55.99839844 38.02578125 54.99679688 38.0515625 53.96484375 38.078125 C45.21078837 38.40792741 39.22573096 38.88847798 32.6875 45.25 C31.15214051 47.75206731 30.54769844 49.37666171 29.89453125 52.171875 C29.59933594 53.43515625 29.30414063 54.6984375 29 56 C27.7625 56.268125 26.525 56.53625 25.25 56.8125 C5.46658197 61.2337429 -13.64427869 67.3620135 -32 76 C-30.73843573 68.49652468 -28.66577101 61.51656646 -26.0625 54.375 C-25.6698999 53.29541016 -25.2772998 52.21582031 -24.87280273 51.10351562 C-18.22354563 33.19176219 -10.14192778 16.19188469 0 0 Z " fill="#2DCFE0" transform="translate(141,89)"/>
<path d="M0 0 C13.98318795 15.12590008 31.76493647 52.99796016 31 74 C26.02148176 72.40117538 21.17429009 70.54162753 16.3125 68.625 C13.21322162 67.40366275 10.10909997 66.19611788 7 65 C6.15187744 64.66871094 5.30375488 64.33742188 4.42993164 63.99609375 C-2.65530284 61.30848005 -9.8079734 59.44465403 -17.1875 57.75 C-18.33025391 57.481875 -19.47300781 57.21375 -20.65039062 56.9375 C-23.43225813 56.28568167 -26.21538618 55.63996421 -29 55 C-29.44759115 53.02449544 -29.89518229 51.04899089 -30.34277344 49.07348633 C-31.76322004 44.59211448 -34.67896472 41.80109428 -38.6796875 39.375 C-42.45067525 37.81336742 -45.85227855 37.44892951 -49.875 37.3125 C-50.56335938 37.27833984 -51.25171875 37.24417969 -51.9609375 37.20898438 C-53.64008613 37.12735909 -55.32001168 37.0619843 -57 37 C-58.42376067 32.31594703 -59.44648026 27.8002248 -60.125 22.9375 C-60.29257812 21.77089844 -60.46015625 20.60429688 -60.6328125 19.40234375 C-60.97503771 16.23129947 -61.02622436 13.18514335 -61 10 C-59.4679895 9.75878418 -59.4679895 9.75878418 -57.9050293 9.51269531 C-53.16489025 8.76446844 -48.42593725 8.00892536 -43.6875 7.25 C-42.8404248 7.1143866 -41.99334961 6.97877319 -41.12060547 6.83905029 C-30.79808345 5.17986276 -20.50804304 3.48604303 -10.3190918 1.11816406 C-3.04481749 -0.55408291 -3.04481749 -0.55408291 0 0 Z " fill="#2DCFDF" transform="translate(371,90)"/>
<path d="M0 0 C8.12639175 2.70879725 12.4439014 12.42609816 16.08007812 19.56933594 C24.00834257 36.00506441 29.99340953 53.54371984 32.109375 71.703125 C25.1532341 72.52688239 18.31031892 72.851085 11.30859375 72.8359375 C9.81124443 72.83737259 9.81124443 72.83737259 8.28364563 72.83883667 C6.18527157 72.83951281 4.08689535 72.83769833 1.98852539 72.83349609 C-1.18413106 72.82815696 -4.35664486 72.83345174 -7.52929688 72.83984375 C-17.69508095 72.84283747 -27.7712706 72.78176931 -37.890625 71.703125 C-37.27719014 65.89198403 -36.21437759 60.40681172 -34.703125 54.765625 C-34.37211792 53.52945435 -34.37211792 53.52945435 -34.03442383 52.26831055 C-18.84792967 -3.16425097 -18.84792967 -3.16425097 0 0 Z " fill="#2DCFE0" transform="translate(258.890625,15.296875)"/>
<path d="M0 0 C1.19286118 -0.00095673 2.38572235 -0.00191345 3.61473083 -0.00289917 C6.12686211 -0.00357726 8.63899517 -0.00174897 11.15112305 0.00244141 C14.98685655 0.0077996 18.82247322 0.00248131 22.65820312 -0.00390625 C25.10546901 -0.0032455 27.55273482 -0.00196439 30 0 C31.14183243 -0.00202423 32.28366486 -0.00404846 33.46009827 -0.00613403 C38.89158041 0.00979548 44.08433102 0.16684683 49.43359375 1.1328125 C48.5608794 8.02637431 46.83401558 14.57797298 44.95996094 21.25 C44.49419197 22.916053 44.04469581 24.58663657 43.59765625 26.2578125 C39.14972465 41.92758987 32.68561106 62.73254576 18.43359375 72.1328125 C15.43359375 73.1953125 15.43359375 73.1953125 12.43359375 73.1328125 C-4.44230532 64.69486297 -9.85002985 41.56826001 -15.3671875 25.12109375 C-20.8147457 8.24785818 -20.8147457 8.24785818 -20.56640625 1.1328125 C-13.68885371 0.08083477 -6.94992726 -0.01234265 0 0 Z " fill="#2DCFE0" transform="translate(241.56640625,423.8671875)"/>
<path d="M0 0 C1.52362656 -0.0099852 1.52362656 -0.0099852 3.07803345 -0.02017212 C5.22127478 -0.03027175 7.36454739 -0.03498997 9.5078125 -0.03466797 C12.77136496 -0.0390388 16.03356168 -0.07538153 19.296875 -0.11328125 C21.38541207 -0.11915057 23.47395553 -0.12311919 25.5625 -0.125 C26.53045502 -0.13937103 27.49841003 -0.15374207 28.49569702 -0.16854858 C35.63033798 -0.12088185 40.93815152 1.39684675 46.4375 6.046875 C51.68130176 12.50311647 52.94747217 18.0509971 52.79296875 26.36328125 C52.0195763 32.43082409 48.80551332 35.94448668 44.6015625 40.1484375 C37.7473398 44.85231582 31.64317978 45.79683086 23.54296875 45.76953125 C22.16032082 45.77739403 22.16032082 45.77739403 20.7497406 45.78541565 C18.81095379 45.79180515 16.87212806 45.79053894 14.93334961 45.78198242 C11.98805881 45.77347072 9.04470926 45.80227964 6.09960938 45.83398438 C4.20572974 45.83559678 2.31184671 45.8350181 0.41796875 45.83203125 C-0.88556801 45.84888222 -0.88556801 45.84888222 -2.21543884 45.86607361 C-9.63259308 45.7826835 -15.10208819 43.42624709 -21.3984375 39.6484375 C-26.32869948 34.43644627 -27.85218367 28.86707086 -28.1484375 21.7734375 C-27.91158888 14.77415256 -25.88555748 10.7859423 -21.12890625 5.8125 C-14.82695571 0.05926811 -8.06508223 0.01846704 0 0 Z " fill="#040303" transform="translate(243.5859375,246.6640625)"/>
<path d="M0 0 C0.21914062 1.07894531 0.43828125 2.15789062 0.6640625 3.26953125 C5.29556584 25.43869366 12.62348604 46.83387898 23 67 C17.55377862 66.4567888 13.21217818 65.08094157 8.25 62.8125 C7.5482666 62.49643799 6.8465332 62.18037598 6.12353516 61.85473633 C-10.14127558 54.43775906 -23.81468251 44.74090714 -36.61035156 32.34277344 C-37.81820531 31.17566247 -39.04429312 30.02747961 -40.2734375 28.8828125 C-45.89000468 23.53264376 -50.70895531 17.45643298 -55 11 C-55 10.34 -55 9.68 -55 9 C-17.06666667 0 -17.06666667 0 0 0 Z " fill="#2DCDDE" transform="translate(206,426)"/>
<path d="M0 0 C10.95633456 -0.68894634 21.29819522 1.4128076 32 3.4375 C33.79019084 3.76722078 35.58055469 4.09600365 37.37109375 4.42382812 C50.50746267 6.8441829 50.50746267 6.8441829 55 8 C53.46483991 13.05926973 50.38235269 16.38192395 46.9375 20.25 C46.3489624 20.91676758 45.7604248 21.58353516 45.15405273 22.27050781 C26.69826268 43.03863008 4.48391922 59.60578206 -23 66 C-22.18208984 64.30423828 -22.18208984 64.30423828 -21.34765625 62.57421875 C-11.89400239 42.53069525 -5.21481423 21.51438435 0 0 Z " fill="#2DCEDF" transform="translate(306,427)"/>
<path d="M0 0 C0 3.24552926 -0.57553665 4.50793332 -2.01171875 7.359375 C-2.65016724 8.64932373 -2.65016724 8.64932373 -3.30151367 9.96533203 C-3.75888916 10.88427246 -4.21626465 11.80321289 -4.6875 12.75 C-11.65602485 27.13921981 -15.79142533 41.58582291 -19.6784668 57.07470703 C-20.10832886 58.78182861 -20.10832886 58.78182861 -20.546875 60.5234375 C-20.80307617 61.55388184 -21.05927734 62.58432617 -21.32324219 63.64599609 C-22 66 -22 66 -23 67 C-40.20645297 67.11173021 -59.65336334 64.44887889 -76 59 C-76.33 58.34 -76.66 57.68 -77 57 C-58.67462348 31.43070994 -31.45512861 7.23020729 0 0 Z " fill="#2DCEDE" transform="translate(228,18)"/>
<path d="M0 0 C28.8517954 3.23846683 54.91427123 27.91994527 73 49 C74.77753739 51.28761333 76.40500423 53.58000643 78 56 C77.505 56.99 77.505 56.99 77 58 C74.18701172 58.74609375 74.18701172 58.74609375 70.4296875 59.4375 C69.75640411 59.56310303 69.08312073 59.68870605 68.38943481 59.81811523 C66.95260105 60.08436333 65.51497377 60.34635797 64.07666016 60.60449219 C61.93077219 60.98998104 59.78759428 61.38820179 57.64453125 61.7890625 C33.89800136 66.18027551 33.89800136 66.18027551 23 66 C22.8548999 65.38294189 22.7097998 64.76588379 22.56030273 64.13012695 C17.58447023 43.15487043 11.72188388 23.28732365 2 4 C1.59394531 3.18660156 1.18789063 2.37320312 0.76953125 1.53515625 C0.51558594 1.02855469 0.26164062 0.52195312 0 0 Z " fill="#2DCFDF" transform="translate(283,19)"/>
<path d="M0 0 C0.33 0 0.66 0 1 0 C0.4734814 6.39434637 -0.65592297 11.96680787 -2.8125 18 C-3.26447754 19.27109619 -3.26447754 19.27109619 -3.72558594 20.56787109 C-12.7955662 45.17940911 -25.83106821 67.45198252 -42 88 C-42.7940625 89.01964844 -43.588125 90.03929687 -44.40625 91.08984375 C-46.54956695 93.78031027 -48.74452753 96.40302994 -51 99 C-52.25296875 100.45019531 -52.25296875 100.45019531 -53.53125 101.9296875 C-54.3871875 102.86039062 -55.243125 103.79109375 -56.125 104.75 C-56.89070313 105.59046875 -57.65640625 106.4309375 -58.4453125 107.296875 C-61 109 -61 109 -64.49609375 108.86328125 C-67.37007709 108.1551984 -70.14925916 107.4241083 -72.9375 106.4375 C-73.70964844 106.16808594 -74.48179687 105.89867187 -75.27734375 105.62109375 C-75.84582031 105.41613281 -76.41429687 105.21117187 -77 105 C-75.50603672 100.98123878 -73.58867629 97.365785 -71.5 93.625 C-67.90499356 87.03009223 -64.80265831 80.26303326 -61.8125 73.375 C-61.37929443 72.3847583 -60.94608887 71.3945166 -60.49975586 70.37426758 C-58.70706174 66.2192156 -56.96395341 62.10794662 -55.640625 57.77734375 C-53.12550889 49.69434379 -53.12550889 49.69434379 -49.64453125 47.546875 C-46.875 46.5625 -46.875 46.5625 -43.953125 45.7890625 C-29.02494453 41.80031587 -15.9145278 28.74953068 -8 16 C-5.11358054 10.77294344 -2.52019248 5.41120348 0 0 Z " fill="#2DCEDF" transform="translate(463,322)"/>
<path d="M0 0 C25.74 0 51.48 0 78 0 C81 17 81 17 81 25 C52.95 25 24.9 25 -4 25 C-1 3 -1 3 0 0 Z " fill="#2DCFE0" transform="translate(217,102)"/>
<path d="M0 0 C18.23645998 -0.02332809 36.47291611 -0.04097873 54.70938778 -0.05181217 C63.17629939 -0.05697532 71.64320175 -0.06401838 80.11010742 -0.07543945 C87.48717094 -0.08538572 94.86422775 -0.09185329 102.24129778 -0.09408849 C106.14982053 -0.0953957 110.05832412 -0.09848217 113.96684074 -0.10573006 C117.64146442 -0.11248937 121.31606093 -0.11461715 124.99069023 -0.11310768 C126.99079611 -0.11351638 128.99089898 -0.11891204 130.99099731 -0.12442017 C132.76003166 -0.12235817 132.76003166 -0.12235817 134.56480408 -0.12025452 C135.59629043 -0.12117631 136.62777678 -0.1220981 137.69052029 -0.12304783 C140 0 140 0 141 1 C141.09429342 3.17805719 141.11742538 5.3592128 141.11352539 7.53930664 C141.11367142 8.22220261 141.11381744 8.90509857 141.1139679 9.60868835 C141.11326876 11.87587614 141.1054764 14.14298274 141.09765625 16.41015625 C141.09579207 17.97814387 141.09436817 19.54613207 141.09336853 21.11412048 C141.08954334 25.24876503 141.07971306 29.38337466 141.06866455 33.51800537 C141.05845044 37.73400398 141.05387091 41.95000822 141.04882812 46.16601562 C141.03809078 54.44402826 141.02049399 62.72200577 141 71 C133.74 71 126.48 71 119 71 C119 47.9 119 24.8 119 1 C79.73 1 40.46 1 0 1 C0 0.67 0 0.34 0 0 Z " fill="#A3CCD1" transform="translate(186,142)"/>
<path d="M0 0 C5.92014804 3.13900768 10.1625528 8.9017209 12.26171875 15.19921875 C12.65692688 23.10338141 11.78967435 28.70479512 6.57421875 34.94921875 C1.16892314 40.61512682 -3.32693991 42.32844059 -11.11328125 42.69921875 C-18.74097874 42.51489004 -23.75807654 40.17942346 -29.11328125 34.82421875 C-33.4044758 27.89228909 -34.77422063 22.36901338 -33.73828125 14.19921875 C-31.92986593 7.93435141 -28.060041 3.80319529 -22.73828125 0.19921875 C-14.58439889 -4.24835344 -8.20991891 -3.58319585 0 0 Z " fill="#FA626D" transform="translate(402.73828125,235.80078125)"/>
<path d="M0 0 C1.08152344 -0.01417969 2.16304687 -0.02835938 3.27734375 -0.04296875 C6.0625 0.1875 6.0625 0.1875 8.0625 2.1875 C8.30078125 4.140625 8.30078125 4.140625 8.375 6.4375 C8.69717569 9.65925688 9.1395081 12.00735083 11 14.6875 C14.74907175 17.74796674 17.13282451 17.89940989 21.85546875 17.984375 C24.0625 18.1875 24.0625 18.1875 26.0625 20.1875 C26.29296875 22.97265625 26.29296875 22.97265625 26.25 26.25 C26.24355469 27.33410156 26.23710937 28.41820312 26.23046875 29.53515625 C26.0625 32.1875 26.0625 32.1875 25.0625 33.1875 C23.66902455 33.31951346 22.27231548 33.41808033 20.875 33.5 C16.17324816 33.96492602 13.68960177 35.19514104 10.0625 38.1875 C8.5148445 41.28281099 8.61840549 44.5541763 8.34375 47.97265625 C8.0625 50.1875 8.0625 50.1875 7.0625 51.1875 C4.70936445 51.26021741 2.35416332 51.27120868 0 51.25 C-1.29035156 51.24097656 -2.58070312 51.23195313 -3.91015625 51.22265625 C-4.90917969 51.21105469 -5.90820312 51.19945312 -6.9375 51.1875 C-6.96328125 50.60742188 -6.9890625 50.02734375 -7.015625 49.4296875 C-7.41139636 43.97883645 -8.27571011 40.47702531 -11.9375 36.1875 C-14.8444604 34.41616744 -17.31602672 33.85998294 -20.6875 33.5625 C-21.48671875 33.48773438 -22.2859375 33.41296875 -23.109375 33.3359375 C-23.71265625 33.28695312 -24.3159375 33.23796875 -24.9375 33.1875 C-24.96435412 30.87506208 -24.98382841 28.5625373 -25 26.25 C-25.01160156 24.96222656 -25.02320312 23.67445313 -25.03515625 22.34765625 C-24.9375 19.1875 -24.9375 19.1875 -23.9375 18.1875 C-21.71604367 17.90362221 -19.49432352 17.73984827 -17.26171875 17.56640625 C-14.76470062 17.15932934 -13.08094023 16.52253066 -10.9375 15.1875 C-7.96673169 10.56630485 -7.47982718 6.52038397 -6.9375 1.1875 C-5.13003866 -0.61996134 -2.43304219 0.01446517 0 0 Z " fill="#658A95" transform="translate(123.9375,229.8125)"/>
<path d="M0 0 C1.25393555 0.02707031 1.25393555 0.02707031 2.53320312 0.0546875 C4.58513228 0.10158874 6.63646756 0.17332589 8.6875 0.25 C2.83074256 16.69624817 -13.12889889 30.61021076 -28.25 38.625 C-36.90237626 42.66430563 -45.70834006 45.56648689 -55.3125 45.25 C-53.10548397 43.54578139 -50.87475516 41.96555821 -48.53515625 40.4453125 C-35.9068699 32.17214592 -26.12962224 22.38289197 -18.00146484 9.63061523 C-12.98148716 1.82056412 -9.26103139 -0.38008969 0 0 Z " fill="#DBE9EE" transform="translate(177.3125,313.75)"/>
<path d="M0 0 C-0.81082031 0.73863281 -1.62164062 1.47726563 -2.45703125 2.23828125 C-5.99231687 5.46982046 -9.49876257 8.73165431 -13 12 C-14.41345703 13.31097656 -14.41345703 13.31097656 -15.85546875 14.6484375 C-22.21806743 20.75728409 -27.52822856 27.33799183 -32.76171875 34.42651367 C-33.28507812 35.13396729 -33.8084375 35.8414209 -34.34765625 36.5703125 C-34.81179932 37.20727051 -35.27594238 37.84422852 -35.75415039 38.50048828 C-37 40 -37 40 -39 41 C-41.12304688 40.57861328 -41.12304688 40.57861328 -43.71875 39.8203125 C-44.65074219 39.55089844 -45.58273438 39.28148437 -46.54296875 39.00390625 C-47.51878906 38.71386719 -48.49460937 38.42382812 -49.5 38.125 C-50.96373047 37.70154297 -50.96373047 37.70154297 -52.45703125 37.26953125 C-59.6723941 35.16380295 -59.6723941 35.16380295 -62 34 C-60.88774304 30.66322912 -60.39562386 30.30115628 -57.59765625 28.43359375 C-56.88150146 27.9530957 -56.16534668 27.47259766 -55.42749023 26.97753906 C-54.64704346 26.46932617 -53.86659668 25.96111328 -53.0625 25.4375 C-52.25562744 24.90737305 -51.44875488 24.37724609 -50.61743164 23.83105469 C-7.83575335 -3.91787668 -7.83575335 -3.91787668 0 0 Z " fill="#2CCADA" transform="translate(173,31)"/>
<path d="M0 0 C1.57059369 1.88072904 3.06109302 3.82920654 4.5 5.8125 C12.47297728 16.50795732 21.57607154 25.87154345 31.50390625 34.7578125 C33.39856435 36.45974325 35.22743995 38.17372601 37 40 C32.25167019 39.32033711 28.21032382 37.51553494 23.875 35.5625 C23.09020264 35.20978027 22.30540527 34.85706055 21.49682617 34.49365234 C6.86768664 27.82254418 -6.80877951 20.1807029 -20 11 C-21.9939651 9.65731883 -23.99609818 8.32785022 -26 7 C-25.67 6.01 -25.34 5.02 -25 4 C-21.71915238 2.46872178 -18.17185355 1.65243334 -14.6875 0.6875 C-13.24213867 0.2534082 -13.24213867 0.2534082 -11.76757812 -0.18945312 C-10.83751953 -0.45306641 -9.90746094 -0.71667969 -8.94921875 -0.98828125 C-8.09674561 -1.23102783 -7.24427246 -1.47377441 -6.3659668 -1.72387695 C-3.50795522 -2.05742469 -2.36682057 -1.58779885 0 0 Z " fill="#2CCBDB" transform="translate(137,442)"/>
<path d="M0 0 C5.7926463 0.61425377 10.94609066 2.15533044 16.4375 4.0625 C17.67790039 4.48499023 17.67790039 4.48499023 18.94335938 4.91601562 C20.96412338 5.60517792 22.98233282 6.3018231 25 7 C10.06629097 23.00870364 -15.17044137 35.80907701 -36 42 C-36.66 41.67 -37.32 41.34 -38 41 C-37.14019531 40.29617188 -36.28039062 39.59234375 -35.39453125 38.8671875 C-22.60115045 28.24313496 -7.57081343 15.14162686 0 0 Z " fill="#02C3D9" transform="translate(376,440)"/>
<path d="M0 0 C21.40084427 6.76217153 45.2744365 17.75492896 62 33 C62 33.66 62 34.32 62 35 C54.41 37.31 46.82 39.62 39 42 C35.62318801 38.62318801 32.69290063 35.50202542 29.75 31.8125 C20.7351214 20.69663316 11.10795213 10.06175042 0 1 C0 0.67 0 0.34 0 0 Z " fill="#02C2D7" transform="translate(339,30)"/>
<path d="M0 0 C0.84775497 -0.01268417 1.69550995 -0.02536835 2.56895447 -0.03843689 C3.4814949 -0.03550125 4.39403534 -0.03256561 5.33422852 -0.02954102 C6.74527611 -0.03740379 6.74527611 -0.03740379 8.18482971 -0.04542542 C10.1744793 -0.05184933 12.16416684 -0.05050385 14.15380859 -0.04199219 C17.19836103 -0.03348853 20.24103371 -0.06222812 23.28540039 -0.09399414 C25.21834254 -0.09560639 27.15128801 -0.09502818 29.08422852 -0.09204102 C29.99474472 -0.10327499 30.90526093 -0.11450897 31.84336853 -0.12608337 C38.1218552 -0.05686527 38.1218552 -0.05686527 41.34619141 2.21630859 C43.47213161 5.47003194 43.38517432 7.61136218 42.77563477 11.40405273 C39.96369275 14.52564313 37.71506234 15.64875046 33.61547852 15.92163086 C31.9815687 15.94789762 30.3471786 15.95117721 28.71313477 15.93530273 C27.84422607 15.93912964 26.97531738 15.94295654 26.08007812 15.94689941 C24.24779091 15.94961452 22.41546467 15.94228141 20.58325195 15.92553711 C17.78451829 15.90412071 14.98835143 15.92535128 12.18969727 15.95092773 C10.40583745 15.94828439 8.62197923 15.94315926 6.83813477 15.93530273 C6.00467529 15.94339966 5.17121582 15.95149658 4.3125 15.95983887 C0.27353286 15.89490837 -1.75437478 15.69976643 -5.25366211 13.49804688 C-7.22436523 11.40405273 -7.22436523 11.40405273 -7.81811523 9.36889648 C-7.56358591 3.86469995 -7.56358591 3.86469995 -5.95713806 1.68321228 C-3.81178152 0.0994771 -2.64957547 0.01921137 0 0 Z " fill="#F77941" transform="translate(238.224365234375,261.595947265625)"/>
<path d="M0 0 C4.3177458 0.50797009 8.03302114 1.19682779 12 3 C7.59987096 8.55103998 2.98509177 12.52706459 -2.8125 16.5625 C-3.56853516 17.10068359 -4.32457031 17.63886719 -5.10351562 18.19335938 C-10.33379375 21.89869707 -15.65059087 25.46943759 -21 29 C-21.66 28.67 -22.32 28.34 -23 28 C-22.24976563 27.21238281 -21.49953125 26.42476563 -20.7265625 25.61328125 C-9.11956601 13.73851044 -9.11956601 13.73851044 0 0 Z " fill="#2BCCDC" transform="translate(376,440)"/>
<path d="M0 0 C4.20110948 0.61505077 7.3757536 2.98605969 10.8125 5.3125 C11.46033447 5.74820313 12.10816895 6.18390625 12.77563477 6.6328125 C17.80796372 10.07206511 22.65950494 13.71662914 27.4375 17.5 C28.09403564 18.01602783 28.75057129 18.53205566 29.42700195 19.0637207 C30.99237662 20.32656692 32.5024023 21.6574727 34 23 C34 23.66 34 24.32 34 25 C28.555 26.485 28.555 26.485 23 28 C22.16597656 26.96101563 21.33195312 25.92203125 20.47265625 24.8515625 C14.68708073 17.67214226 8.88660267 10.57864156 2.609375 3.8203125 C1 2 1 2 0 0 Z " fill="#2BCDDD" transform="translate(354,44)"/>
<path d="M0 0 C0.66 0.33 1.32 0.66 2 1 C-1.10138699 5.22916408 -2.70579708 7.16407322 -8 8 C-5.33333333 5.33333333 -2.66666667 2.66666667 0 0 Z " fill="#01AEC1" transform="translate(346,474)"/>
</svg>
