<?xml version="1.0" encoding="UTF-8"?>
<svg version="1.1" xmlns="http://www.w3.org/2000/svg" width="512" height="512">
<path d="M0 0 C1.10168757 -0.00262956 1.10168757 -0.00262956 2.22563145 -0.00531223 C4.68203175 -0.00995712 7.13837247 -0.00751064 9.5947752 -0.00507832 C11.37560391 -0.00694705 13.15643221 -0.009248 14.93725985 -0.01194364 C19.82762284 -0.01806032 24.71796872 -0.0179282 29.60833466 -0.01674926 C34.88384682 -0.01654522 40.15935349 -0.0220643 45.43486309 -0.02680683 C55.76917754 -0.03511312 66.10348628 -0.03786166 76.43780378 -0.03841921 C84.8376289 -0.03889436 93.23745213 -0.04094906 101.63727665 -0.04411983 C125.4510762 -0.05292619 149.26487125 -0.05753922 173.07867245 -0.05678936 C175.004368 -0.05672943 175.004368 -0.05672943 176.96896648 -0.05666828 C178.25433045 -0.0566274 179.53969442 -0.05658652 180.86400881 -0.0565444 C201.69843066 -0.05613789 222.53283445 -0.06570878 243.36725108 -0.07980665 C264.758657 -0.09416724 286.15005411 -0.10107701 307.54146498 -0.10021287 C319.55162169 -0.0998808 331.56175945 -0.10263227 343.57191181 -0.11339092 C353.7968905 -0.12249172 364.02184165 -0.12467461 374.24682263 -0.1178815 C379.46319079 -0.11461424 384.67950611 -0.1145671 389.89586926 -0.12323475 C394.67332076 -0.13109143 399.45067744 -0.12967678 404.22812661 -0.12095062 C405.95419466 -0.11941381 407.68026975 -0.1212386 409.40632949 -0.12681069 C424.15235564 -0.17125212 436.48586263 0.35983209 447.73239422 10.94113445 C453.54355142 17.06484394 456.5368303 23.67535902 456.5541153 32.12193012 C456.55857314 33.13391204 456.56303098 34.14589397 456.56762391 35.18854201 C456.56734737 36.85339567 456.56734737 36.85339567 456.56706524 38.55188274 C456.57074193 39.73247497 456.57441862 40.9130672 456.57820672 42.12943494 C456.58732529 45.4075541 456.59194144 48.68564383 456.59459603 51.96377349 C456.5985029 55.49904103 456.60808098 59.03429412 456.61680889 62.56955242 C456.63656262 71.10786275 456.64663818 79.64617424 456.65553668 88.18450171 C456.65992142 92.20684865 456.66528775 96.22919428 456.67052555 100.25154018 C456.68753683 113.6253415 456.70203054 126.99914199 456.70927429 140.37295246 C456.71118414 143.84278267 456.71310448 147.31261287 456.71506023 150.78244305 C456.71554397 151.64483622 456.71602771 152.50722939 456.71652611 153.39575569 C456.72482472 167.36295044 456.7501592 181.33005951 456.78264091 195.29721685 C456.81572791 209.6417709 456.83372454 223.98628143 456.83691853 238.33087385 C456.83908212 246.38289573 456.84780863 254.43479265 456.87337971 262.48677731 C456.89510915 269.34486411 456.90312614 276.2027956 456.89341293 283.06091292 C456.88887465 286.55791117 456.89072634 290.05458912 456.91017437 293.55154324 C456.92786364 297.34912655 456.9208003 301.14590039 456.90764141 304.94348431 C456.92409528 306.58826147 456.92409528 306.58826147 456.94088155 308.26626647 C456.85645644 318.37682732 454.11790977 326.09668573 447.13473797 333.44894695 C436.04554146 344.31080231 423.85268868 344.28281016 409.10934734 344.24215984 C407.669762 344.24187739 406.2301765 344.24203685 404.79059124 344.24260235 C400.90274645 344.24288804 397.01493281 344.23702824 393.12709522 344.23002839 C389.05652431 344.22375682 384.98595261 344.22318805 380.91537762 344.22200298 C373.2162059 344.21890086 365.51704846 344.21070259 357.81788301 344.20065349 C349.04882157 344.18945756 340.27975942 344.18397315 331.5106926 344.17895806 C313.48041839 344.16851901 295.45015745 344.15094129 277.41989422 344.12863445 C278.0552646 346.54046365 278.69258146 348.95175008 279.33102703 351.36276531 C279.50989452 352.04255192 279.68876202 352.72233852 279.87304974 353.42272472 C281.08049987 357.97451446 282.41682428 362.32392788 284.16989422 366.69113445 C284.81184734 368.33275555 284.81184734 368.33275555 285.46676922 370.0075407 C285.7500407 370.60349041 286.03331219 371.19944012 286.32516766 371.81344891 C287.23285508 373.73307421 288.04674173 375.6967266 288.83493328 377.66842937 C290.6122777 381.71773463 292.41504634 384.8383534 295.41989422 388.12863445 C300.88592405 389.93371821 305.98146961 389.65411675 311.66989422 389.31613445 C314.54968997 389.22121381 317.42968286 389.16238101 320.31051922 389.1091032 C321.35775661 389.08306011 321.35775661 389.08306011 322.42615032 389.0564909 C331.79112801 388.92342133 340.28079987 391.48857115 348.54489422 395.75363445 C349.22157146 396.09845867 349.89824871 396.44328289 350.59543133 396.79855633 C356.72125802 400.05397478 361.62292391 404.11727441 366.41989422 409.12863445 C367.03993328 409.71773602 367.65997234 410.30683758 368.29880047 410.9137907 C377.41972578 420.19795405 383.29906525 434.27112498 384.41989422 447.12863445 C384.23410346 452.12354749 383.486869 455.06165967 379.91989422 458.62863445 C376.20828421 460.85560046 374.30370279 461.25472172 369.97156334 461.26006222 C368.80721061 461.26390336 367.64285789 461.26774451 366.44322175 461.27170205 C364.50771107 461.27040233 364.50771107 461.27040233 362.53309917 461.26907635 C361.15725236 461.2716586 359.78140629 461.27467137 358.40556127 461.27807975 C354.61160363 461.28616948 350.81766489 461.28794041 347.02369964 461.28867722 C342.93702457 461.29052435 338.85035938 461.29806996 334.76368999 461.30481243 C325.82161048 461.31841031 316.87953544 461.32442274 307.93744731 461.32882309 C302.35697792 461.33158307 296.77651027 461.33581998 291.19604206 461.34032726 C275.75406757 461.35252186 260.31209448 461.36282078 244.87011528 461.36620235 C243.88126117 461.36642192 242.89240707 461.36664149 241.87358769 461.36686771 C240.88232855 461.36708598 239.89106942 461.36730426 238.86977214 461.36752915 C236.86100749 461.36797262 234.85224285 461.36841919 232.8434782 461.36886883 C231.34884403 461.36920097 231.34884403 461.36920097 229.82401524 461.36953983 C213.67411629 461.37348883 197.52426243 461.3909451 181.37438091 461.41422835 C164.80491982 461.43792425 148.23548137 461.4504034 131.66600305 461.45157027 C122.35826114 461.45248803 113.05057797 461.4582656 103.74285221 461.47638988 C95.81776802 461.49176713 87.89276072 461.49692543 79.96766444 461.48865178 C75.9225159 461.48473681 71.87752231 461.48571595 67.83239269 461.49970913 C64.13065729 461.51239756 60.4291941 461.51129543 56.72745935 461.49911842 C54.75089443 461.49621989 52.77432502 461.50813543 50.79779691 461.52054048 C49.62562094 461.51395063 48.45344497 461.50736079 47.24574852 461.50057125 C45.72830356 461.50146688 45.72830356 461.50146688 44.18020314 461.50238061 C39.76178963 460.90412689 36.21260277 458.5866905 33.41989422 455.12863445 C30.5445932 443.81911712 35.26335547 430.89069954 40.67380047 420.93332195 C50.89456776 404.51607158 66.17959001 394.23302036 84.89255047 389.71750164 C91.78223194 388.56731395 98.70652778 388.82076315 105.66989422 388.94113445 C107.2050372 388.95622305 108.74019468 388.969904 110.27536297 388.98215008 C113.99051442 389.01479168 117.70510755 389.06633798 121.41989422 389.12863445 C121.86800457 387.97004925 121.86800457 387.97004925 122.32516766 386.78805828 C123.51292084 383.90264449 125.01106499 381.45755847 126.66989422 378.81613445 C132.02811268 369.74065193 135.48514608 360.07400442 138.00485516 349.86300945 C138.27102642 348.78760906 138.53719769 347.71220867 138.81143475 346.60422039 C139.11262218 345.37880535 139.11262218 345.37880535 139.41989422 344.12863445 C138.6715135 344.13047804 137.92313278 344.13232162 137.15207386 344.13422108 C118.91431174 344.17845385 100.67656037 344.21151714 82.43875599 344.2322588 C73.61897253 344.24255676 64.79922495 344.25658873 55.97946453 344.27951336 C48.28918396 344.29949262 40.59892938 344.31236164 32.90862358 344.31681144 C28.83938145 344.31941115 24.77021367 344.32549061 20.70099545 344.34009457 C16.86463056 344.35375025 13.0283701 344.35784108 9.19198322 344.35484982 C7.79002787 344.35539643 6.38806874 344.35932605 4.98613453 344.3670454 C-8.11100726 344.43557503 -19.27055665 343.62601146 -29.39260578 334.62863445 C-30.11448078 333.80363445 -30.83635578 332.97863445 -31.58010578 332.12863445 C-32.26073078 331.38613445 -32.94135578 330.64363445 -33.64260578 329.87863445 C-40.47579647 320.17991219 -40.73086883 310.24719277 -40.71381855 298.76259136 C-40.71608411 297.63645674 -40.71834966 296.51032211 -40.72068387 295.35006219 C-40.72700082 291.58638241 -40.72619599 287.82273886 -40.72536945 284.05905437 C-40.72781984 281.35654343 -40.73173705 278.65403501 -40.73554707 275.95152569 C-40.7438363 269.37826596 -40.74660112 262.80501521 -40.74715944 256.23175069 C-40.7476354 250.88640129 -40.74969409 245.54105484 -40.75286007 240.19570637 C-40.76166169 225.02553451 -40.76628018 209.85536972 -40.7655296 194.68519529 C-40.76548964 193.86819769 -40.76544968 193.0512001 -40.76540852 192.209445 C-40.76536764 191.39144475 -40.76532675 190.5734445 -40.76528464 189.73065636 C-40.76487824 176.47573821 -40.7744475 163.22084847 -40.78854688 149.96593853 C-40.80292493 136.34107061 -40.80981629 122.71621654 -40.80895311 109.09134084 C-40.80862165 101.44795424 -40.81134644 93.80459744 -40.82213116 86.16121769 C-40.83125494 79.65352579 -40.83339599 73.14587719 -40.82662173 66.63818165 C-40.82336606 63.32135271 -40.82436107 60.00467427 -40.83197498 56.68784237 C-40.8397111 53.08369746 -40.83503918 49.47976884 -40.82734394 45.87562847 C-40.8324875 44.83922496 -40.83763107 43.80282144 -40.8429305 42.73501176 C-40.78615105 30.65529283 -39.17850635 19.20472394 -30.58010578 10.12863445 C-21.30201229 2.01030264 -12.23991615 0.00661085 0 0 Z M-17.60354328 21.70675945 C-18.27256672 22.53433758 -18.27256672 22.53433758 -18.95510578 23.37863445 C-19.41659016 23.9200407 -19.87807453 24.46144695 -20.35354328 25.01925945 C-24.08585296 31.43788119 -23.86681736 38.17823743 -23.84080219 45.38788128 C-23.84462774 46.51457261 -23.84845329 47.64126395 -23.85239476 48.80209744 C-23.86270507 52.57358837 -23.85873628 56.34492649 -23.85476398 60.11642742 C-23.85801853 62.82203899 -23.86423047 65.52764208 -23.87025166 68.23324871 C-23.88298858 74.81734646 -23.8847936 81.40140341 -23.88245139 87.98551141 C-23.88066691 93.338533 -23.88242067 98.69154223 -23.88667583 104.04456234 C-23.88727102 104.80701511 -23.88786621 105.56946787 -23.88847944 106.35502527 C-23.88969122 107.90405495 -23.89090535 109.45308463 -23.89212181 111.00211431 C-23.90299352 125.52286344 -23.90083664 140.04358934 -23.89473697 154.56433977 C-23.88956841 167.8400893 -23.90082228 181.11576544 -23.91983519 194.39150046 C-23.93922053 208.03215216 -23.94746835 221.67276915 -23.94371194 235.31343472 C-23.94180091 242.96796307 -23.94427779 250.62242897 -23.95842648 258.27694607 C-23.97035014 264.79352281 -23.97173416 271.30999866 -23.95963631 277.82657681 C-23.95375436 281.14928549 -23.95426162 284.47165877 -23.96463871 287.79437923 C-23.97509125 291.40156368 -23.96701673 295.00825364 -23.95432758 298.61542034 C-23.96170187 299.65833166 -23.96907615 300.70124298 -23.9766739 301.77575767 C-23.9254266 308.7093363 -23.28931796 315.56664362 -18.96682453 321.2497282 C-18.40608234 321.68414227 -17.84534016 322.11855633 -17.26760578 322.56613445 C-16.43809406 323.24482586 -16.43809406 323.24482586 -15.59182453 323.9372282 C-10.58958544 326.89971931 -5.86022176 327.37888907 -0.13028526 327.38031673 C0.96848716 327.38467706 0.96848716 327.38467706 2.08945701 327.38912547 C4.54530323 327.39642734 7.00089976 327.38948125 9.45674419 327.38260174 C11.23472393 327.3849061 13.01270272 327.38808245 14.79067951 327.39205623 C19.67771329 327.40041634 24.56466911 327.39627341 29.45170319 327.39008379 C34.72172492 327.38556526 39.99173308 327.39254011 45.26175213 327.39804363 C55.58651576 327.40694586 65.91125035 327.40501187 76.23601513 327.39921835 C84.62635684 327.39470489 93.0166904 327.39408759 101.40703297 327.39626598 C103.19705301 327.39672568 103.19705301 327.39672568 105.02323507 327.39719467 C107.44737275 327.39783411 109.87151043 327.39848254 112.29564811 327.39913985 C135.03748965 327.40484564 157.77931509 327.39828148 180.52115399 327.38753912 C200.04022456 327.37860453 219.55927134 327.38015441 239.07834148 327.38937664 C261.73626267 327.40007685 284.39416973 327.40429508 307.05209309 327.39815211 C309.46770863 327.397515 311.88332416 327.39688626 314.2989397 327.39626598 C315.48751632 327.39595743 316.67609293 327.39564888 317.90068702 327.39533098 C326.28170567 327.39360321 334.66271538 327.39652094 343.04373264 327.40122509 C353.25638111 327.4068312 363.46899883 327.40532318 373.68164378 327.3946636 C378.89358068 327.3894031 384.1054663 327.38735661 389.31740284 327.39396191 C394.08733913 327.39991566 398.85717651 327.39665568 403.62710381 327.3860068 C405.35381991 327.38377033 407.08054433 327.38491459 408.80725508 327.38975838 C411.15303326 327.39583464 413.4984721 327.38960712 415.84423256 327.38031673 C417.79928039 327.37982968 417.79928039 327.37982968 419.79382414 327.37933278 C426.81779414 326.8937113 431.41956767 325.128961 436.41989422 320.12863445 C440.17087902 314.53767769 439.84359754 309.1624702 439.80757427 302.67247295 C439.81295981 301.5125565 439.81834535 300.35264004 439.82389408 299.15757459 C439.83571261 295.94648795 439.83410827 292.73573456 439.82672727 289.52464497 C439.82199462 286.05830204 439.83450628 282.59201462 439.84474468 279.12568951 C439.86193604 272.33823948 439.86277202 265.55088202 439.85753178 258.76341588 C439.85348954 253.24635127 439.85493428 247.72931401 439.86028004 242.21225071 C439.86102846 241.42688212 439.86177688 240.64151352 439.86254798 239.83234588 C439.86407947 238.2368472 439.86561781 236.64134852 439.86716295 235.04584985 C439.88088916 220.08545987 439.87544941 205.12512219 439.86397774 190.1647334 C439.85404479 176.48015528 439.86698685 162.79571236 439.89091193 149.1111551 C439.915298 135.05695304 439.92491204 121.00281397 439.9182592 106.94859117 C439.91476594 99.05935258 439.91700611 91.17021797 439.93451023 83.28099537 C439.94922606 76.56521808 439.94987583 69.849618 439.93243932 63.1338442 C439.92392179 59.70809852 439.9217977 56.28266951 439.93709087 52.85694027 C439.95024289 49.14158636 439.93880302 45.42709603 439.92109966 41.71177959 C439.93070467 40.63123289 439.94030968 39.55068618 439.95020574 38.43739563 C439.88803872 32.10608973 439.16244342 28.29153138 435.41989422 23.12863445 C429.9640183 17.81633421 424.39006744 16.87909307 416.95724964 16.87415886 C416.22334592 16.87095238 415.48944219 16.8677459 414.73329896 16.86444226 C412.27272278 16.85613724 409.81238969 16.86206827 407.3518095 16.86793804 C405.57041732 16.86491759 403.78902644 16.86102864 402.00763786 16.85634547 C397.11113668 16.84604306 392.21470854 16.84825301 387.3182013 16.85252607 C382.03793274 16.85498922 376.75768195 16.84598424 371.47741985 16.83848858 C361.13227059 16.82572809 350.78714727 16.82394957 340.44199146 16.82628884 C332.03449536 16.82807066 323.62700714 16.82632528 315.21951199 16.8220644 C314.02367865 16.82146921 312.82784532 16.82087402 311.59577461 16.8202608 C309.16656567 16.81904907 306.73735672 16.81783493 304.30814777 16.81661842 C281.51811133 16.80573767 258.72808968 16.8079079 235.9380524 16.81400327 C215.08280538 16.81917284 194.22760506 16.80791685 173.37236728 16.78890505 C151.96517936 16.76953947 130.55801354 16.7612684 109.1508168 16.7650283 C97.12952283 16.7669423 85.10826861 16.76443346 73.08698177 16.75031376 C62.85312548 16.73841531 52.6193334 16.73697781 42.38547625 16.74910393 C37.16326456 16.75500341 31.94117043 16.7560625 26.71896648 16.74410152 C21.93845259 16.73327937 17.15815494 16.73630233 12.37765132 16.75036321 C10.64822479 16.75302026 8.9187815 16.75061208 7.18937136 16.74262735 C4.83739402 16.73252193 2.48616845 16.74094224 0.13422108 16.75390434 C-1.17180219 16.75384933 -2.47782545 16.75379431 -3.82342517 16.75373763 C-8.88046287 17.2584032 -13.52346191 18.52461105 -17.60354328 21.70675945 Z M157.41989422 344.12863445 C156.33219996 347.93556437 155.24883293 351.73930255 154.19333172 355.5544157 C153.72787374 357.18351864 153.26171459 358.81242139 152.79489422 360.44113445 C152.58477703 361.21263836 152.37465984 361.98414227 152.15817547 362.77902508 C149.44762923 372.11781964 145.48782034 379.97580069 141.41989422 389.12863445 C185.63989422 389.12863445 229.85989422 389.12863445 275.41989422 389.12863445 C272.44989422 382.52863445 269.47989422 375.92863445 266.41989422 369.12863445 C263.15600533 358.22585668 263.15600533 358.22585668 261.96310711 353.25827312 C261.18231094 350.19720123 260.28776099 347.16616816 259.41989422 344.12863445 C225.75989422 344.12863445 192.09989422 344.12863445 157.41989422 344.12863445 Z M61.04880047 422.05050945 C55.57928691 429.02840205 52.57633134 435.50288597 50.41989422 444.12863445 C154.69989422 444.12863445 258.97989422 444.12863445 366.41989422 444.12863445 C361.31347318 428.80937133 354.83947682 418.35199671 340.41989422 410.81613445 C332.50140095 406.88916429 325.28574737 405.83079981 316.58586407 405.86120892 C315.62448267 405.8566778 314.66310127 405.85214669 313.6725871 405.84747827 C310.46631768 405.83486584 307.26021882 405.83645262 304.05392742 405.83810711 C301.74874434 405.83211984 299.44356327 405.82531384 297.13838482 405.81775188 C290.88610821 405.80010365 284.63388637 405.79539696 278.38158727 405.79412031 C274.47176023 405.79269735 270.56194705 405.78842496 266.65212345 405.78312588 C253.7055764 405.7655826 240.75906814 405.75628515 227.81250975 405.75778683 C226.76702126 405.75790669 226.76702126 405.75790669 225.7004118 405.75802898 C224.65363524 405.75815163 224.65363524 405.75815163 223.58571168 405.75827675 C212.2849905 405.75908904 200.9844028 405.73996282 189.68372021 405.71175225 C178.05895502 405.68296348 166.43426092 405.66958081 154.80945939 405.6709398 C148.29161233 405.67144872 141.77391634 405.66580404 135.25610065 405.6445837 C129.12220172 405.62515821 122.98859728 405.62510658 116.85468769 405.63961697 C114.6106196 405.64170088 112.36653286 405.63702926 110.1224966 405.62489605 C91.27944335 405.52965905 74.7190323 407.42500841 61.04880047 422.05050945 Z " fill="#F28318" transform="translate(47.580105781555176,24.871365547180176)"/>
<path d="M0 0 C1.32954208 -0.00006042 1.32954208 -0.00006042 2.6859436 -0.00012207 C4.55697738 0.0052278 6.42801099 0.02278783 8.29882812 0.05175781 C11.14784234 0.09351228 13.99448212 0.09283168 16.84375 0.0859375 C18.66668295 0.09643473 20.48960379 0.10937571 22.3125 0.125 C23.15751068 0.12520142 24.00252136 0.12540283 24.87313843 0.12561035 C32.13102923 0.26921757 37.8769906 2.06730687 43.45440674 7.03504944 C48.23797556 12.62162211 49.65354958 20.41044917 50.9296875 27.44140625 C51.10159607 28.33870956 51.27350464 29.23601288 51.45062256 30.1605072 C51.99040227 32.99058552 52.51497405 35.82322861 53.0390625 38.65625 C53.40524265 40.59068575 53.77242108 42.52493281 54.140625 44.45898438 C55.03498129 49.16847254 55.91572272 53.88032121 56.7890625 58.59375 C57.54812771 58.59521656 58.30719292 58.59668312 59.0892601 58.59819412 C77.55036165 58.63522942 96.01127347 58.69420045 114.47222519 58.77765274 C123.39978084 58.81747934 132.32724788 58.84985338 141.25488281 58.86474609 C149.03530036 58.8777439 156.81552323 58.90466046 164.59583116 58.94836307 C168.71632689 58.97102023 172.83658214 58.98665815 176.95714569 58.98563385 C180.83472657 58.98488973 184.71177499 59.00273973 188.58921814 59.03491783 C190.01301394 59.04344406 191.43686929 59.04514831 192.86067963 59.03955269 C194.80360797 59.03293339 196.74657266 59.05315772 198.68939209 59.07476807 C199.77710781 59.07845524 200.86482353 59.08214241 201.98550034 59.08594131 C205.48589219 59.71996663 206.67285773 60.77484209 208.7890625 63.59375 C209.94325767 72.48997698 207.12440867 81.52308002 205.2109375 90.18359375 C204.83880981 91.89543065 204.46725809 93.60739284 204.09625244 95.31947327 C203.31874032 98.89719419 202.53459215 102.47337655 201.74560547 106.04858398 C200.74036239 110.60605842 199.75129162 115.16686004 198.76716232 119.72893429 C198.0031009 123.26245052 197.23062734 126.79408768 196.45566559 130.32522774 C196.08800113 132.00501463 195.72282939 133.6853493 195.36031342 135.36625481 C190.11224532 159.63479331 190.11224532 159.63479331 183.8515625 164.59375 C183.20316406 165.13 182.55476562 165.66625 181.88671875 166.21875 C176.42306676 169.80013827 171.66134121 169.87211236 165.31713867 169.82080078 C164.37031219 169.82109283 163.42348572 169.82138489 162.44796753 169.82168579 C159.32589477 169.82029513 156.2040622 169.80474621 153.08203125 169.7890625 C150.91441478 169.78533144 148.74679662 169.7824849 146.57917786 169.78048706 C140.87947925 169.77285798 135.17988288 169.75321563 129.48022461 169.7310791 C123.66196068 169.7106051 117.84368021 169.70148201 112.02539062 169.69140625 C100.61323638 169.66996913 89.20115795 169.63584186 77.7890625 169.59375 C78.06743486 170.89997499 78.3587046 172.20345666 78.65551758 173.50561523 C78.8163533 174.23175522 78.97718903 174.9578952 79.14289856 175.70603943 C79.64969953 177.81426823 79.64969953 177.81426823 81.92578125 179.00390625 C83.18841797 179.32681641 83.18841797 179.32681641 84.4765625 179.65625 C89.85632987 181.42355419 93.52944481 183.90804957 96.7890625 188.59375 C97.4490625 190.57375 98.1090625 192.55375 98.7890625 194.59375 C114.9590625 194.59375 131.1290625 194.59375 147.7890625 194.59375 C148.7790625 191.62375 148.7790625 191.62375 149.7890625 188.59375 C153.11609135 183.13742269 158.76397941 179.82924848 164.8125 177.97265625 C172.44144417 176.51019067 179.02595944 177.79299787 185.7890625 181.59375 C192.16053411 186.42315812 195.39162815 192.1055003 196.6015625 200.03125 C197.19110842 207.26546977 195.12336381 213.78152299 190.7890625 219.59375 C184.76467795 225.48425934 179.68612049 227.74235391 171.4140625 228.03125 C164.30482526 227.82743012 159.01841986 226.56719602 153.71875 221.6875 C150.68220786 218.39279031 148.76832189 215.9866893 147.7890625 211.59375 C140.90162412 211.53391276 134.01620591 211.53620797 127.12866211 211.58154297 C124.78622006 211.58964999 122.44368398 211.58357404 120.10131836 211.56298828 C116.73165694 211.5358424 113.36562584 211.5598328 109.99609375 211.59375 C108.42708061 211.56462524 108.42708061 211.56462524 106.82637024 211.53491211 C101.40197877 211.5165234 101.40197877 211.5165234 97.06820679 214.36010742 C95.71002009 216.46671774 95.71002009 216.46671774 94.7207489 218.65307617 C92.6840367 222.89548442 88.26586228 225.36492738 84 227.05078125 C76.61382635 228.86470022 68.57044665 228.53321596 61.7890625 224.98046875 C55.17208688 220.39252667 51.34210617 214.45603358 49.7890625 206.59375 C48.90845004 198.66823788 51.35860381 192.12896265 55.8515625 185.59375 C57.7890625 183.59375 57.7890625 183.59375 60.7890625 181.59375 C60.21519593 172.93418108 58.78515511 164.53324423 57.13696289 156.02197266 C56.86375966 154.59014168 56.59101167 153.15822377 56.31867981 151.72622681 C55.5839224 147.8703308 54.84249804 144.01574582 54.09951711 140.16142702 C53.32044392 136.1151905 52.54668511 132.06793718 51.77207947 128.02084351 C50.47207281 121.23337257 49.16762626 114.44676615 47.8605957 107.66064453 C46.35073663 99.82109215 44.84836752 91.98013183 43.34986883 84.13840067 C41.90482377 76.57751261 40.45412314 69.01771993 39.00097466 61.45838547 C38.38387478 58.24755099 37.76882404 55.03633409 37.15544319 51.82478714 C36.43358855 48.04652921 35.70680534 44.26925202 34.9762249 40.49267197 C34.7092447 39.10829942 34.44396558 37.72359756 34.18052673 36.33854675 C33.82027947 34.44604876 33.45321839 32.55485161 33.08583069 30.66372681 C32.88249146 29.60596857 32.67915224 28.54821033 32.46965122 27.45839882 C31.41166598 22.64002964 31.41166598 22.64002964 28.7890625 18.59375 C25.95319576 18.48293968 23.13757654 18.43211006 20.30078125 18.41796875 C18.54490993 18.39476705 16.78905052 18.37064957 15.03320312 18.34570312 C12.25488369 18.31059047 9.47700057 18.28125212 6.69848633 18.26782227 C4.02370833 18.25235011 1.35021908 18.21214046 -1.32421875 18.16796875 C-2.15351395 18.16987717 -2.98280914 18.17178558 -3.8372345 18.17375183 C-7.60166366 18.09388486 -9.60082086 18.02703151 -12.73120117 15.80395508 C-14.51328392 13.1421509 -14.73261813 10.86402312 -14.83984375 7.69140625 C-12.57961215 0.15262135 -6.65334002 -0.12847546 0 0 Z M59.7890625 76.59375 C61.22551155 86.31740514 62.94228578 95.9401444 64.7890625 105.59375 C70.3990625 105.59375 76.0090625 105.59375 81.7890625 105.59375 C81.14641923 101.32241405 80.50009522 97.0516921 79.8515625 92.78125 C79.66916016 91.56630859 79.48675781 90.35136719 79.29882812 89.09960938 C79.12158203 87.93623047 78.94433594 86.77285156 78.76171875 85.57421875 C78.59937744 84.50067139 78.43703613 83.42712402 78.26977539 82.32104492 C77.84353244 79.51257528 77.84353244 79.51257528 76.7890625 76.59375 C71.1790625 76.59375 65.5690625 76.59375 59.7890625 76.59375 Z M93.7890625 76.59375 C95.4390625 86.16375 97.0890625 95.73375 98.7890625 105.59375 C104.7290625 105.59375 110.6690625 105.59375 116.7890625 105.59375 C116.7890625 96.02375 116.7890625 86.45375 116.7890625 76.59375 C109.1990625 76.59375 101.6090625 76.59375 93.7890625 76.59375 Z M133.7890625 76.59375 C133.7890625 86.16375 133.7890625 95.73375 133.7890625 105.59375 C139.7290625 105.59375 145.6690625 105.59375 151.7890625 105.59375 C153.47411041 98.9101865 153.47411041 98.9101865 154.640625 92.21875 C154.81585693 90.96964844 154.81585693 90.96964844 154.99462891 89.6953125 C155.13304199 88.67179687 155.27145508 87.64828125 155.4140625 86.59375 C155.8678125 83.29375 156.3215625 79.99375 156.7890625 76.59375 C149.1990625 76.59375 141.6090625 76.59375 133.7890625 76.59375 Z M173.7890625 76.59375 C173.11610212 80.30104067 172.45048883 84.00939963 171.7890625 87.71875 C171.59828125 88.76546875 171.4075 89.8121875 171.2109375 90.890625 C171.03046875 91.90898437 170.85 92.92734375 170.6640625 93.9765625 C170.49648438 94.90871582 170.32890625 95.84086914 170.15625 96.80126953 C169.65869319 100.11579583 169.65869319 100.11579583 169.7890625 105.59375 C174.4090625 105.59375 179.0290625 105.59375 183.7890625 105.59375 C184.79304937 101.32381775 185.79241978 97.05289663 186.7890625 92.78125 C187.07523438 91.56630859 187.36140625 90.35136719 187.65625 89.09960938 C187.92695313 87.93623047 188.19765625 86.77285156 188.4765625 85.57421875 C188.72792969 84.50067139 188.97929687 83.42712402 189.23828125 82.32104492 C189.88804004 79.56737023 189.88804004 79.56737023 189.7890625 76.59375 C184.5090625 76.59375 179.2290625 76.59375 173.7890625 76.59375 Z M68.7890625 122.59375 C69.44954565 129.37239289 70.53597872 135.97605956 71.8515625 142.65625 C72.03783203 143.61724609 72.22410156 144.57824219 72.41601562 145.56835938 C72.87051441 147.91077619 73.32933625 150.25235352 73.7890625 152.59375 C78.7390625 152.59375 83.6890625 152.59375 88.7890625 152.59375 C88.13880922 142.44979885 86.55500459 132.58964863 84.7890625 122.59375 C79.5090625 122.59375 74.2290625 122.59375 68.7890625 122.59375 Z M101.7890625 122.59375 C102.24175376 126.09456245 102.70103131 129.59430274 103.1640625 133.09375 C103.29039062 134.07601562 103.41671875 135.05828125 103.546875 136.0703125 C104.29819991 141.7052493 105.28750633 147.10980574 106.7890625 152.59375 C110.0890625 152.59375 113.3890625 152.59375 116.7890625 152.59375 C116.7890625 142.69375 116.7890625 132.79375 116.7890625 122.59375 C111.8390625 122.59375 106.8890625 122.59375 101.7890625 122.59375 Z M133.7890625 122.59375 C133.7890625 132.49375 133.7890625 142.39375 133.7890625 152.59375 C137.4190625 152.59375 141.0490625 152.59375 144.7890625 152.59375 C145.46176399 148.71971015 146.12742713 144.8446815 146.7890625 140.96875 C146.97984375 139.87433594 147.170625 138.77992188 147.3671875 137.65234375 C147.54765625 136.58886719 147.728125 135.52539062 147.9140625 134.4296875 C148.16542969 132.96861572 148.16542969 132.96861572 148.421875 131.47802734 C148.91534983 128.08634898 148.91534983 128.08634898 148.7890625 122.59375 C143.8390625 122.59375 138.8890625 122.59375 133.7890625 122.59375 Z M165.7890625 123.59375 C165.42006874 125.39374243 165.10613547 127.20509301 164.81640625 129.01953125 C164.63916016 130.12619141 164.46191406 131.23285156 164.27929688 132.37304688 C164.00569336 134.12198242 164.00569336 134.12198242 163.7265625 135.90625 C163.54029297 137.06060547 163.35402344 138.21496094 163.16210938 139.40429688 C162.12204486 145.96694189 162.12204486 145.96694189 161.7890625 152.59375 C163.39090876 152.7289903 164.99602876 152.82585847 166.6015625 152.90625 C167.49488281 152.96425781 168.38820313 153.02226562 169.30859375 153.08203125 C171.90875673 152.82638611 171.90875673 152.82638611 173.4453125 150.76953125 C175.407759 146.13153996 176.42190385 141.38199364 177.4765625 136.46875 C177.81397461 134.96634766 177.81397461 134.96634766 178.15820312 133.43359375 C179.3800207 128.06264805 179.3800207 128.06264805 179.7890625 122.59375 C177.64329613 122.56689062 175.49743605 122.54741912 173.3515625 122.53125 C171.55912109 122.51384766 171.55912109 122.51384766 169.73046875 122.49609375 C166.90032909 122.25473208 166.90032909 122.25473208 165.7890625 123.59375 Z M67.7890625 198.59375 C66.79239361 201.78309044 66.47889922 203.66326017 67.5390625 206.84375 C68.84011122 208.88392165 68.84011122 208.88392165 71.7890625 210.59375 C75.75013774 211.0258673 77.90258873 211.2469412 81.1640625 208.84375 C83.27133698 205.98336935 83.27133698 205.98336935 83.7890625 202.59375 C82.22931854 198.69439011 81.32177977 196.94889485 77.7890625 194.59375 C73.18061044 193.86609968 70.94609397 195.26132789 67.7890625 198.59375 Z M163.7890625 198.59375 C162.79239361 201.78309044 162.47889922 203.66326017 163.5390625 206.84375 C164.84011122 208.88392165 164.84011122 208.88392165 167.7890625 210.59375 C171.75013774 211.0258673 173.90258873 211.2469412 177.1640625 208.84375 C179.27133698 205.98336935 179.27133698 205.98336935 179.7890625 202.59375 C178.22931854 198.69439011 177.32177977 196.94889485 173.7890625 194.59375 C169.18061044 193.86609968 166.94609397 195.26132789 163.7890625 198.59375 Z " fill="#F0721A" transform="translate(137.2109375,66.40625)"/>
<path d="M0 0 C1.16273437 -0.01546875 2.32546875 -0.0309375 3.5234375 -0.046875 C14.32265129 0.00254932 14.32265129 0.00254932 19 4.5 C22.59020863 9.05600292 23.50107734 12.01312246 23.50793457 17.78686523 C23.51417453 18.4982965 23.5204145 19.20972776 23.52684355 19.94271755 C23.5427365 22.31501832 23.53018471 24.68628626 23.51757812 27.05859375 C23.52300092 28.76401364 23.53012446 30.46942885 23.53881836 32.17483521 C23.55703599 36.79881934 23.54999066 41.42244602 23.53730202 46.04643631 C23.52716627 50.88830775 23.5365693 55.73014883 23.54284668 60.57202148 C23.5501214 68.70269254 23.54053996 76.83321821 23.52148438 84.96386719 C23.49971597 94.36046342 23.50676747 103.75671247 23.52879 113.15330029 C23.54694897 121.22481601 23.54949988 129.29622729 23.53903532 137.36775684 C23.53280313 142.18686933 23.53195723 147.00581869 23.54518127 151.82492065 C23.55674638 156.35586655 23.54870206 160.88636537 23.52560425 165.41726303 C23.52032067 167.07889947 23.52182495 168.7405736 23.53065491 170.40219498 C23.54160851 172.67301405 23.52785113 174.94240629 23.50793457 177.21313477 C23.50642647 178.48294693 23.50491837 179.75275909 23.50336456 181.06105042 C22.74578448 186.23678168 20.265589 189.2830875 16.5625 192.84375 C11.11839071 195.37478327 5.92800874 195.07886486 0 195 C-1.74410156 195.02320313 -1.74410156 195.02320313 -3.5234375 195.046875 C-14.32265129 194.99745068 -14.32265129 194.99745068 -19 190.5 C-22.59020863 185.94399708 -23.50107734 182.98687754 -23.50793457 177.21313477 C-23.51417453 176.5017035 -23.5204145 175.79027224 -23.52684355 175.05728245 C-23.5427365 172.68498168 -23.53018471 170.31371374 -23.51757812 167.94140625 C-23.52300092 166.23598636 -23.53012446 164.53057115 -23.53881836 162.82516479 C-23.55703599 158.20118066 -23.54999066 153.57755398 -23.53730202 148.95356369 C-23.52716627 144.11169225 -23.5365693 139.26985117 -23.54284668 134.42797852 C-23.5501214 126.29730746 -23.54053996 118.16678179 -23.52148438 110.03613281 C-23.49971597 100.63953658 -23.50676747 91.24328753 -23.52879 81.84669971 C-23.54694897 73.77518399 -23.54949988 65.70377271 -23.53903532 57.63224316 C-23.53280313 52.81313067 -23.53195723 47.99418131 -23.54518127 43.17507935 C-23.55674638 38.64413345 -23.54870206 34.11363463 -23.52560425 29.58273697 C-23.52032067 27.92110053 -23.52182495 26.2594264 -23.53065491 24.59780502 C-23.54160851 22.32698595 -23.52785113 20.05759371 -23.50793457 17.78686523 C-23.50642647 16.51705307 -23.50491837 15.24724091 -23.50336456 13.93894958 C-22.74578448 8.76321832 -20.265589 5.7169125 -16.5625 2.15625 C-11.11839071 -0.37478327 -5.92800874 -0.07886486 0 0 Z M-6 17.5 C-6 70.3 -6 123.1 -6 177.5 C-2.04 177.5 1.92 177.5 6 177.5 C6 124.7 6 71.9 6 17.5 C2.04 17.5 -1.92 17.5 -6 17.5 Z " fill="#F49116" transform="translate(103,99.5)"/>
<path d="M0 0 C1.17626953 -0.02900391 2.35253906 -0.05800781 3.56445312 -0.08789062 C14.3264367 -0.16697812 14.3264367 -0.16697812 19.1875 4.3125 C23.06408381 8.72378502 23.3143409 12.41152859 23.32794189 18.16267395 C23.33091302 18.86337484 23.33388414 19.56407572 23.3369453 20.28600997 C23.34563372 22.63965995 23.34714066 24.99325907 23.34863281 27.34692383 C23.35326088 29.03219207 23.35828553 30.71745925 23.36367798 32.40272522 C23.37680501 36.98544851 23.38324752 41.56815715 23.38768864 46.15089631 C23.39061886 49.01353481 23.39472357 51.87616929 23.39919281 54.73880577 C23.41286851 63.69398188 23.42253482 72.64914883 23.4263947 81.60433465 C23.43087584 91.94430484 23.44842601 102.28414286 23.4773953 112.62407285 C23.49900634 120.61482191 23.50909867 128.60553377 23.51043582 136.59631175 C23.51148426 141.36963173 23.51740033 146.14282748 23.53525543 150.91611671 C23.55172613 155.40670584 23.5538965 159.89707722 23.54511642 164.38768578 C23.54434551 166.03482013 23.5486959 167.68196614 23.55857468 169.32907104 C23.57128256 171.58009831 23.56542425 173.83035303 23.55499268 176.08137512 C23.55645924 177.34033505 23.5579258 178.59929499 23.5594368 179.89640522 C23.00624453 184.97726101 21.40841962 188.21069449 17.625 191.625 C12.22995245 195.36003292 6.84501172 194.57321515 0.4375 194.625 C-0.74328125 194.65400391 -1.9240625 194.68300781 -3.140625 194.71289062 C-14.20478107 194.79387825 -14.20478107 194.79387825 -18.8125 190.3125 C-22.40121646 185.75505241 -23.31357652 182.80006583 -23.32043457 177.02563477 C-23.32667453 176.3142035 -23.3329145 175.60277224 -23.33934355 174.86978245 C-23.3552365 172.49748168 -23.34268471 170.12621374 -23.33007812 167.75390625 C-23.33550092 166.04848636 -23.34262446 164.34307115 -23.35131836 162.63766479 C-23.36953599 158.01368066 -23.36249066 153.39005398 -23.34980202 148.76606369 C-23.33966627 143.92419225 -23.3490693 139.08235117 -23.35534668 134.24047852 C-23.3626214 126.10980746 -23.35303996 117.97928179 -23.33398438 109.84863281 C-23.31221597 100.45203658 -23.31926747 91.05578753 -23.34129 81.65919971 C-23.35944897 73.58768399 -23.36199988 65.51627271 -23.35153532 57.44474316 C-23.34530313 52.62563067 -23.34445723 47.80668131 -23.35768127 42.98757935 C-23.36924638 38.45663345 -23.36120206 33.92613463 -23.33810425 29.39523697 C-23.33282067 27.73360053 -23.33432495 26.0719264 -23.34315491 24.41030502 C-23.35410851 22.13948595 -23.34035113 19.87009371 -23.32043457 17.59936523 C-23.31892647 16.32955307 -23.31741837 15.05974091 -23.31586456 13.75144958 C-22.56828005 8.64400728 -19.78511489 4.59422534 -15.8125 1.3125 C-10.70275539 -0.3907482 -5.34955176 0.04353949 0 0 Z M-5.8125 17.3125 C-5.8125 70.1125 -5.8125 122.9125 -5.8125 177.3125 C-1.8525 177.3125 2.1075 177.3125 6.1875 177.3125 C6.1875 124.5125 6.1875 71.7125 6.1875 17.3125 C2.2275 17.3125 -1.7325 17.3125 -5.8125 17.3125 Z " fill="#ED531E" transform="translate(408.8125,99.6875)"/>
</svg>
