<?xml version="1.0" encoding="UTF-8"?>
<svg version="1.1" xmlns="http://www.w3.org/2000/svg" width="256" height="256">
<path d="M0 0 C23.3938734 20.90712308 35.12660729 49.30055062 37.21875 80.234375 C37.39184251 85.57139394 37.18594706 89.49573002 34 94 C29.68421053 98 29.68421053 98 27 98 C27 103.94 27 109.88 27 116 C29.31 116.66 31.62 117.32 34 118 C36.63460707 120.17384619 38.4700679 122.9401358 40 126 C40.11077454 127.69369615 40.15916633 129.39164606 40.17700195 131.08886719 C40.19625481 132.68127228 40.19625481 132.68127228 40.21589661 134.30584717 C40.22328354 135.45788635 40.23067047 136.60992554 40.23828125 137.796875 C40.246353 138.97840149 40.25442474 140.15992798 40.26274109 141.3772583 C40.2765917 143.88234994 40.28730946 146.38746052 40.29516602 148.89257812 C40.31236706 152.72041721 40.35624487 156.54739024 40.40039062 160.375 C40.4105183 162.80728531 40.41903417 165.23957797 40.42578125 167.671875 C40.44328934 168.81581726 40.46079742 169.95975952 40.47883606 171.1383667 C40.4617861 177.39878195 40.29889091 181.29484241 36 186 C28.51586026 191.57641784 19.91366569 190.36464996 11 190 C10.87367188 190.78890625 10.74734375 191.5778125 10.6171875 192.390625 C10 195 10 195 8.125 196.75 C4.03694659 199.1547373 0.67225837 199.31676328 -4 199 C-7.98066095 197.42275698 -9.60667274 196.58999089 -12 193 C-12.20433203 190.42949236 -12.29372255 187.9664141 -12.29052734 185.39501953 C-12.29724457 184.62232727 -12.30396179 183.84963501 -12.31088257 183.05352783 C-12.32989609 180.49655748 -12.33378849 177.93984916 -12.3359375 175.3828125 C-12.34236334 173.60545747 -12.34909154 171.82810352 -12.35610962 170.05075073 C-12.36809093 166.32335966 -12.37178959 162.59606132 -12.37060547 158.86865234 C-12.37040228 154.09463432 -12.39769985 149.32121162 -12.43214989 144.54733467 C-12.45439901 140.87557245 -12.45844362 137.20395392 -12.45738602 133.5321312 C-12.45974515 131.77227604 -12.46858627 130.01241711 -12.48405075 128.25262833 C-12.50367009 125.78925281 -12.49788931 123.32716626 -12.48583984 120.86376953 C-12.49707886 120.13839996 -12.50831787 119.4130304 -12.51989746 118.66567993 C-12.47565962 115.10264825 -12.07152511 113.11367953 -10.15713501 110.0710144 C-6.54005819 106.59834433 -2.98057177 106.72318861 1.77734375 106.77734375 C4.81891514 107.08203544 6.64975207 108.07706987 9 110 C11 113 11 113 11 116 C12.98 116 14.96 116 17 116 C17 110.06 17 104.12 17 98 C15.68 97.67 14.36 97.34 13 97 C7.29877594 91.96170897 6.79609141 87.84612142 6.0625 80.5625 C5.30076819 73.32240662 4.32016624 66.16260409 3 59 C2.44054687 58.93683594 1.88109375 58.87367187 1.3046875 58.80859375 C-13.25275988 56.58518941 -21.84219933 49.5979857 -31.6730957 39.28222656 C-43.45904988 27.09971314 -58.29002907 20.63155193 -75.33984375 19.9140625 C-93.19224384 20.33322237 -108.59640483 27.1275404 -121 40 C-122.15628906 41.26070312 -122.15628906 41.26070312 -123.3359375 42.546875 C-132.11190073 51.91926291 -142.19715325 57.33473693 -155 59 C-155.48565647 61.74899886 -155.96501741 64.49872484 -156.4375 67.25 C-156.57873291 68.06887695 -156.71996582 68.88775391 -156.86547852 69.73144531 C-157.64827487 74.41443372 -158.19768116 79.0015869 -158.4375 83.75 C-158.84333024 89.61830533 -160.69182109 92.96337155 -165.125 96.875 C-167 98 -167 98 -169 98 C-169 103.94 -169 109.88 -169 116 C-167.02 116 -165.04 116 -163 116 C-162.896875 115.236875 -162.79375 114.47375 -162.6875 113.6875 C-161.94405866 110.78132022 -161.34113037 109.80086951 -159 108 C-153.96096545 106.32032182 -148.94859377 106.12935172 -144.0625 108.3125 C-142 110 -142 110 -140 113 C-139.79055694 115.57013347 -139.69594673 118.03352 -139.69360352 120.60498047 C-139.68528 121.37767273 -139.67695648 122.15036499 -139.66838074 122.94647217 C-139.64426538 125.50342839 -139.63550683 128.06012958 -139.62890625 130.6171875 C-139.61994107 132.39454221 -139.61081924 134.17189613 -139.60154724 135.94924927 C-139.58505052 139.67663406 -139.5773559 143.40392896 -139.57446289 147.13134766 C-139.56907838 151.9054818 -139.5313989 156.67877008 -139.48571873 161.45266533 C-139.45596245 165.12443113 -139.44873965 168.7959929 -139.44773674 172.4678688 C-139.44353156 174.2277425 -139.43108525 175.98761665 -139.41021919 177.74737167 C-139.38333326 180.21095549 -139.38812054 182.6725744 -139.40063477 185.13623047 C-139.38580048 185.86160004 -139.37096619 186.5869696 -139.35568237 187.33432007 C-139.41175763 191.21487852 -139.89082435 192.8639237 -142.34996033 195.9289856 C-146.53285773 199.19793318 -149.7962588 199.35279601 -155 199 C-158.98066095 197.42275698 -160.60667274 196.58999089 -163 193 C-163 192.01 -163 191.02 -163 190 C-164.134375 190.04640625 -165.26875 190.0928125 -166.4375 190.140625 C-181.84237531 190.58803408 -181.84237531 190.58803408 -188 186 C-193.00693897 180.482886 -192.58275609 175.00951507 -192.53125 167.8125 C-192.5350769 166.6366333 -192.53890381 165.4607666 -192.54284668 164.24926758 C-192.54556351 161.76805768 -192.53821849 159.28681902 -192.52148438 156.80566406 C-192.50007351 153.01302081 -192.52129596 149.222272 -192.546875 145.4296875 C-192.54423169 143.01562083 -192.53910664 140.60155533 -192.53125 138.1875 C-192.53934692 137.05610596 -192.54744385 135.92471191 -192.55578613 134.7590332 C-192.48181729 128.53288871 -192.19525898 124.7250625 -188 120 C-184.83327378 117.03757869 -183.57616557 116.91523311 -179 116 C-179 110.06 -179 104.12 -179 98 C-180.65 97.34 -182.3 96.68 -184 96 C-190.00518597 88.1598961 -189.66082819 81.07401552 -188.50390625 71.61328125 C-184.22881951 40.38094945 -169.84419058 13.49818577 -144.84790039 -6.22387695 C-101.46385369 -39.11871696 -40.66162479 -35.32796133 0 0 Z " fill="#F24524" transform="translate(204,43)"/>
<path d="M0 0 C3.3 0 6.6 0 10 0 C10 5.94 10 11.88 10 18 C12.31 18.66 14.62 19.32 17 20 C19.63460707 22.17384619 21.4700679 24.9401358 23 28 C23.11077454 29.69369615 23.15916633 31.39164606 23.17700195 33.08886719 C23.19625481 34.68127228 23.19625481 34.68127228 23.21589661 36.30584717 C23.22328354 37.45788635 23.23067047 38.60992554 23.23828125 39.796875 C23.246353 40.97840149 23.25442474 42.15992798 23.26274109 43.3772583 C23.2765917 45.88234994 23.28730946 48.38746052 23.29516602 50.89257812 C23.31236706 54.72041721 23.35624487 58.54739024 23.40039062 62.375 C23.4105183 64.80728531 23.41903417 67.23957797 23.42578125 69.671875 C23.44328934 70.81581726 23.46079742 71.95975952 23.47883606 73.1383667 C23.4617861 79.39878195 23.29889091 83.29484241 19 88 C11.51586026 93.57641784 2.91366569 92.36464996 -6 92 C-6.18949219 93.18335938 -6.18949219 93.18335938 -6.3828125 94.390625 C-7 97 -7 97 -8.875 98.75 C-12.96305341 101.1547373 -16.32774163 101.31676328 -21 101 C-24.98066095 99.42275698 -26.60667274 98.58999089 -29 95 C-29.20433203 92.42949236 -29.29372255 89.9664141 -29.29052734 87.39501953 C-29.29724457 86.62232727 -29.30396179 85.84963501 -29.31088257 85.05352783 C-29.32989609 82.49655748 -29.33378849 79.93984916 -29.3359375 77.3828125 C-29.34236334 75.60545747 -29.34909154 73.82810352 -29.35610962 72.05075073 C-29.36809093 68.32335966 -29.37178959 64.59606132 -29.37060547 60.86865234 C-29.37040228 56.09463432 -29.39769985 51.32121162 -29.43214989 46.54733467 C-29.45439901 42.87557245 -29.45844362 39.20395392 -29.45738602 35.5321312 C-29.45974515 33.77227604 -29.46858627 32.01241711 -29.48405075 30.25262833 C-29.50367009 27.78925281 -29.49788931 25.32716626 -29.48583984 22.86376953 C-29.49707886 22.13839996 -29.50831787 21.4130304 -29.51989746 20.66567993 C-29.47565962 17.10264825 -29.07152511 15.11367953 -27.15713501 12.0710144 C-23.54005819 8.59834433 -19.98057177 8.72318861 -15.22265625 8.77734375 C-12.18108486 9.08203544 -10.35024793 10.07706987 -8 12 C-6 15 -6 15 -6 18 C-4.02 18 -2.04 18 0 18 C0 12.06 0 6.12 0 0 Z " fill="#F24624" transform="translate(221,141)"/>
<path d="M0 0 C3.3 0 6.6 0 10 0 C10 5.94 10 11.88 10 18 C11.98 18 13.96 18 16 18 C16.103125 17.236875 16.20625 16.47375 16.3125 15.6875 C17.05594134 12.78132022 17.65886963 11.80086951 20 10 C25.03903455 8.32032182 30.05140623 8.12935172 34.9375 10.3125 C37 12 37 12 39 15 C39.20944306 17.57013347 39.30405327 20.03352 39.30639648 22.60498047 C39.31472 23.37767273 39.32304352 24.15036499 39.33161926 24.94647217 C39.35573462 27.50342839 39.36449317 30.06012958 39.37109375 32.6171875 C39.38005893 34.39454221 39.38918076 36.17189613 39.39845276 37.94924927 C39.41494948 41.67663406 39.4226441 45.40392896 39.42553711 49.13134766 C39.43092162 53.9054818 39.4686011 58.67877008 39.51428127 63.45266533 C39.54403755 67.12443113 39.55126035 70.7959929 39.55226326 74.4678688 C39.55646844 76.2277425 39.56891475 77.98761665 39.58978081 79.74737167 C39.61666674 82.21095549 39.61187946 84.6725744 39.59936523 87.13623047 C39.61419952 87.86160004 39.62903381 88.5869696 39.64431763 89.33432007 C39.58824237 93.21487852 39.10917565 94.8639237 36.65003967 97.9289856 C32.46714227 101.19793318 29.2037412 101.35279601 24 101 C20.01933905 99.42275698 18.39332726 98.58999089 16 95 C16 94.01 16 93.02 16 92 C14.865625 92.04640625 13.73125 92.0928125 12.5625 92.140625 C-2.84237531 92.58803408 -2.84237531 92.58803408 -9 88 C-14.00693897 82.482886 -13.58275609 77.00951507 -13.53125 69.8125 C-13.5350769 68.6366333 -13.53890381 67.4607666 -13.54284668 66.24926758 C-13.54556351 63.76805768 -13.53821849 61.28681902 -13.52148438 58.80566406 C-13.50007351 55.01302081 -13.52129596 51.222272 -13.546875 47.4296875 C-13.54423169 45.01562083 -13.53910664 42.60155533 -13.53125 40.1875 C-13.53934692 39.05610596 -13.54744385 37.92471191 -13.55578613 36.7590332 C-13.48181729 30.53288871 -13.19525898 26.7250625 -9 22 C-5.83327378 19.03757869 -4.57616557 18.91523311 0 18 C0 12.06 0 6.12 0 0 Z " fill="#F24624" transform="translate(25,141)"/>
<path d="M0 0 C0.72703125 0.57105469 1.4540625 1.14210938 2.203125 1.73046875 C13.45598551 10.95702745 20.70993483 23.61718613 26 37 C26 37.66 26 38.32 26 39 C10.73788317 37.27685778 1.53797483 29.99691017 -8.6730957 19.28222656 C-20.45904988 7.09971314 -35.29002907 0.63155193 -52.33984375 -0.0859375 C-70.19224384 0.33322237 -85.59640483 7.1275404 -98 20 C-99.15628906 21.26070312 -99.15628906 21.26070312 -100.3359375 22.546875 C-109.00641554 31.80660883 -119.25070777 37.56056378 -132 39 C-131.45758722 34.01896997 -129.81453657 30.09680493 -127.4375 25.75 C-127.08034912 25.09177246 -126.72319824 24.43354492 -126.35522461 23.75537109 C-123.14123737 17.98725448 -119.43035727 12.90473587 -115 8 C-114.33613281 7.24332031 -113.67226562 6.48664063 -112.98828125 5.70703125 C-83.78135705 -25.65936979 -32.30072072 -27.52634412 0 0 Z " fill="#2D3641" transform="translate(181,63)"/>
<path d="M0 0 C0.06957765 8.25817754 0.12285044 16.51623215 0.15543652 24.77463055 C0.17107795 28.60954343 0.19228805 32.44425545 0.22631836 36.27905273 C0.25896667 39.98137696 0.27686447 43.68350825 0.28463173 47.38596535 C0.29016547 48.79694467 0.30097164 50.20791369 0.31719017 51.61881065 C0.33903449 53.59822627 0.340226 55.57783693 0.34057617 57.55737305 C0.35056892 59.24614815 0.35056892 59.24614815 0.36076355 60.96903992 C-0.04875484 64.4096145 -0.93240625 66.24231841 -3 69 C-7.36816945 71.91211297 -10.46117032 72.26531546 -15.625 71.375 C-19.50270499 69.79519426 -20.882936 68.5827237 -23 65 C-24.37385647 60.38776757 -23.99223167 57.36393604 -22 53 C-20.08605504 50.78700114 -18.61074479 49.30537239 -16 48 C-13.03 48 -10.06 48 -7 48 C-7 39.42 -7 30.84 -7 22 C-9.93648438 22.7940625 -12.87296875 23.588125 -15.8984375 24.40625 C-18.73453896 25.17133675 -21.57087074 25.93556385 -24.40722656 26.69970703 C-26.38240439 27.2323356 -28.35734052 27.76586131 -30.33203125 28.30029297 C-33.16603953 29.06712553 -36.00089375 29.83075586 -38.8359375 30.59375 C-39.72243988 30.83436157 -40.60894226 31.07497314 -41.52230835 31.32287598 C-42.34300812 31.54310425 -43.16370789 31.76333252 -44.00927734 31.99023438 C-44.73319672 32.18564819 -45.45711609 32.38106201 -46.20297241 32.58239746 C-48 33 -48 33 -50 33 C-49.98428955 34.205354 -49.9685791 35.41070801 -49.95239258 36.65258789 C-49.89788813 41.14584612 -49.86357548 45.6390754 -49.83520508 50.13256836 C-49.82016509 52.07337364 -49.79972786 54.0141452 -49.77368164 55.95483398 C-49.73708705 58.75252632 -49.72022552 61.54976733 -49.70703125 64.34765625 C-49.69154739 65.2083522 -49.67606354 66.06904816 -49.66011047 66.95582581 C-49.65841169 73.10585285 -50.54441553 77.93051941 -54.5 82.875 C-58.04280661 85.53210496 -61.76180546 85.35916903 -66 85 C-69.70390021 82.97333762 -71.65363011 81.51955484 -74 78 C-74.69920885 73.20310209 -74.71482085 69.22540718 -72.25 65 C-67.83505493 61.07560438 -64.95712989 60.66904834 -59 61 C-58.34 61.33 -57.68 61.66 -57 62 C-57 46.16 -57 30.32 -57 14 C-47.99510228 10.62316335 -47.99510228 10.62316335 -44.34741211 9.6496582 C-43.52973862 9.42965652 -42.71206512 9.20965485 -41.86961365 8.98298645 C-41.01416458 8.75785873 -40.15871552 8.53273102 -39.27734375 8.30078125 C-38.37303116 8.0608696 -37.46871857 7.82095795 -36.53700256 7.57377625 C-34.63747657 7.07162462 -32.73735449 6.57172294 -30.83666992 6.07397461 C-27.93999901 5.31315637 -25.04718712 4.53872406 -22.15429688 3.76367188 C-20.29969939 3.27520475 -18.44488855 2.78754684 -16.58984375 2.30078125 C-15.73237045 2.06958084 -14.87489716 1.83838043 -13.99143982 1.60017395 C-9.17568723 0.35535256 -4.97411161 -0.24659134 0 0 Z " fill="#00AEFF" transform="translate(165,133)"/>
<path d="M0 0 C2.0625 1.6875 2.0625 1.6875 4.0625 4.6875 C4.27194306 7.25763347 4.36655327 9.72102 4.36889648 12.29248047 C4.38138176 13.45151886 4.38138176 13.45151886 4.39411926 14.63397217 C4.41823462 17.19092839 4.42699317 19.74762958 4.43359375 22.3046875 C4.44255893 24.08204221 4.45168076 25.85939613 4.46095276 27.63674927 C4.47744948 31.36413406 4.4851441 35.09142896 4.48803711 38.81884766 C4.49342162 43.5929818 4.5311011 48.36627008 4.57678127 53.14016533 C4.60653755 56.81193113 4.61376035 60.4834929 4.61476326 64.1553688 C4.61896844 65.9152425 4.63141475 67.67511665 4.65228081 69.43487167 C4.67916674 71.89845549 4.67437946 74.3600744 4.66186523 76.82373047 C4.67669952 77.54910004 4.69153381 78.2744696 4.70681763 79.02182007 C4.65074237 82.90237852 4.17167565 84.5514237 1.71253967 87.6164856 C-2.47035773 90.88543318 -5.7337588 91.04029601 -10.9375 90.6875 C-14.91816095 89.11025698 -16.54417274 88.27749089 -18.9375 84.6875 C-19.14183203 82.11699236 -19.23122255 79.6539141 -19.22802734 77.08251953 C-19.23474457 76.30982727 -19.24146179 75.53713501 -19.24838257 74.74102783 C-19.26739609 72.18405748 -19.27128849 69.62734916 -19.2734375 67.0703125 C-19.27986334 65.29295747 -19.28659154 63.51560352 -19.29360962 61.73825073 C-19.30559093 58.01085966 -19.30928959 54.28356132 -19.30810547 50.55615234 C-19.30790228 45.78213432 -19.33519985 41.00871162 -19.36964989 36.23483467 C-19.39189901 32.56307245 -19.39594362 28.89145392 -19.39488602 25.2196312 C-19.39724515 23.45977604 -19.40608627 21.69991711 -19.42155075 19.94012833 C-19.44117009 17.47675281 -19.43538931 15.01466626 -19.42333984 12.55126953 C-19.43457886 11.82589996 -19.44581787 11.1005304 -19.45739746 10.35317993 C-19.41315962 6.79014825 -19.00902511 4.80117953 -17.09463501 1.7585144 C-12.56092681 -2.59419182 -5.52256155 -2.4675275 0 0 Z " fill="#2C3641" transform="translate(210.9375,151.3125)"/>
<path d="M0 0 C2.0625 1.6875 2.0625 1.6875 4.0625 4.6875 C4.27194306 7.25763347 4.36655327 9.72102 4.36889648 12.29248047 C4.38138176 13.45151886 4.38138176 13.45151886 4.39411926 14.63397217 C4.41823462 17.19092839 4.42699317 19.74762958 4.43359375 22.3046875 C4.44255893 24.08204221 4.45168076 25.85939613 4.46095276 27.63674927 C4.47744948 31.36413406 4.4851441 35.09142896 4.48803711 38.81884766 C4.49342162 43.5929818 4.5311011 48.36627008 4.57678127 53.14016533 C4.60653755 56.81193113 4.61376035 60.4834929 4.61476326 64.1553688 C4.61896844 65.9152425 4.63141475 67.67511665 4.65228081 69.43487167 C4.67916674 71.89845549 4.67437946 74.3600744 4.66186523 76.82373047 C4.67669952 77.54910004 4.69153381 78.2744696 4.70681763 79.02182007 C4.65074237 82.90237852 4.17167565 84.5514237 1.71253967 87.6164856 C-2.47035773 90.88543318 -5.7337588 91.04029601 -10.9375 90.6875 C-14.91816095 89.11025698 -16.54417274 88.27749089 -18.9375 84.6875 C-19.14183203 82.11699236 -19.23122255 79.6539141 -19.22802734 77.08251953 C-19.23474457 76.30982727 -19.24146179 75.53713501 -19.24838257 74.74102783 C-19.26739609 72.18405748 -19.27128849 69.62734916 -19.2734375 67.0703125 C-19.27986334 65.29295747 -19.28659154 63.51560352 -19.29360962 61.73825073 C-19.30559093 58.01085966 -19.30928959 54.28356132 -19.30810547 50.55615234 C-19.30790228 45.78213432 -19.33519985 41.00871162 -19.36964989 36.23483467 C-19.39189901 32.56307245 -19.39594362 28.89145392 -19.39488602 25.2196312 C-19.39724515 23.45977604 -19.40608627 21.69991711 -19.42155075 19.94012833 C-19.44117009 17.47675281 -19.43538931 15.01466626 -19.42333984 12.55126953 C-19.43457886 11.82589996 -19.44581787 11.1005304 -19.45739746 10.35317993 C-19.41315962 6.79014825 -19.00902511 4.80117953 -17.09463501 1.7585144 C-12.56092681 -2.59419182 -5.52256155 -2.4675275 0 0 Z " fill="#2C3541" transform="translate(59.9375,151.3125)"/>
<path d="M0 0 C3.3 0 6.6 0 10 0 C10.23680854 24.9175209 10.23680854 24.9175209 9 32 C7 34 7 34 4.5 34.3125 C3.675 34.209375 2.85 34.10625 2 34 C-0.48360441 30.27459338 -0.2315867 28.36937027 -0.1953125 23.92578125 C-0.1924826 23.2419487 -0.18965271 22.55811615 -0.18673706 21.8535614 C-0.17555684 19.67302835 -0.15045691 17.49290855 -0.125 15.3125 C-0.11496738 13.83268823 -0.10584202 12.35287001 -0.09765625 10.87304688 C-0.07562481 7.248564 -0.04111002 3.62432234 0 0 Z " fill="#DBD6D6" transform="translate(221,141)"/>
<path d="M0 0 C3.3 0 6.6 0 10 0 C10.04945386 4.35992871 10.08574488 8.71970862 10.10986328 13.07983398 C10.11991821 14.56293583 10.13356404 16.04601788 10.15087891 17.52905273 C10.17515006 19.66134531 10.18648799 21.79337569 10.1953125 23.92578125 C10.20578613 25.20880127 10.21625977 26.49182129 10.22705078 27.8137207 C10 31 10 31 8 34 C5.5 34.3125 5.5 34.3125 3 34 C-1.77650791 29.22349209 -0.04760411 17.8443251 -0.06591797 11.29467773 C-0.0609819 7.52951814 -0.03578137 3.76499512 0 0 Z " fill="#DBD7D6" transform="translate(25,141)"/>
</svg>
