<?xml version="1.0" encoding="UTF-8"?>
<svg version="1.1" xmlns="http://www.w3.org/2000/svg" width="225" height="225">
<path d="M0 0 C74.25 0 148.5 0 225 0 C225 74.25 225 148.5 225 225 C150.75 225 76.5 225 0 225 C0 150.75 0 76.5 0 0 Z " fill="#FE9065" transform="translate(0,0)"/>
<path d="M0 0 C9.80069171 8.00475344 17.26082301 19.46527793 21.61328125 31.265625 C22.25716797 32.98072266 22.25716797 32.98072266 22.9140625 34.73046875 C33.52975916 64.67078037 31.58565548 100.37426067 26.61328125 131.265625 C26.36384766 132.91498047 26.36384766 132.91498047 26.109375 134.59765625 C25.59312026 137.91315892 25.0212567 141.21351148 24.42578125 144.515625 C24.26634033 145.51045898 24.10689941 146.50529297 23.94262695 147.53027344 C22.70016798 153.77453739 20.86293683 156.7551711 15.55737305 160.33105469 C13.61328125 161.265625 13.61328125 161.265625 10.61328125 161.265625 C9.03515625 159.54296875 9.03515625 159.54296875 7.36328125 157.203125 C1.51645643 149.44367426 -4.41514808 144.29088626 -12.76391602 139.37304688 C-14.35293532 138.41263407 -15.87684211 137.34620245 -17.38671875 136.265625 C-17.38671875 135.275625 -17.38671875 134.285625 -17.38671875 133.265625 C-20.02671875 132.605625 -22.66671875 131.945625 -25.38671875 131.265625 C-23.05737583 129.38712264 -20.72503697 127.51968526 -18.33203125 125.72265625 C-4.28825322 115.10478255 7.01867274 100.93911682 10.61328125 83.265625 C11.05580302 78.60370956 11.36682958 73.94172112 11.61328125 69.265625 C10.62328125 69.760625 10.62328125 69.760625 9.61328125 70.265625 C-23.47697381 72.00084569 -51.42747604 59.82609646 -77.38671875 40.265625 C-80.62528164 41.6899561 -83.330777 43.63575442 -86.15893555 45.74462891 C-101.62643177 57.265625 -101.62643177 57.265625 -109.38671875 57.265625 C-110.37166491 78.98596081 -107.63833824 96.45032634 -93.13671875 113.515625 C-86.31433238 120.74479761 -78.4173575 126.17627915 -69.38671875 130.265625 C-71.74624969 132.62515594 -73.16567492 132.75703913 -76.38671875 133.265625 C-76.46019531 133.87019531 -76.53367188 134.47476563 -76.609375 135.09765625 C-77.67472279 138.06885235 -79.05413787 138.51406582 -81.82421875 139.953125 C-92.57536547 146.07253662 -100.57486415 155.0478431 -107.38671875 165.265625 C-111.4401332 163.8758829 -114.33335559 162.29498373 -117.38671875 159.265625 C-118.6450309 156.45929539 -119.29098905 153.5749026 -119.94921875 150.578125 C-120.15264893 149.70889404 -120.3560791 148.83966309 -120.56567383 147.9440918 C-123.07501504 136.82681926 -124.84496514 125.55346391 -126.38671875 114.265625 C-126.5662207 112.97406494 -126.74572266 111.68250488 -126.93066406 110.35180664 C-128.31339252 99.91293038 -128.78512943 89.60280051 -128.76171875 79.078125 C-128.76217194 78.27701294 -128.76262512 77.47590088 -128.76309204 76.6505127 C-128.73716018 60.97051131 -127.33542541 46.01298159 -121.94165039 31.18383789 C-121.18966195 28.58446561 -121.51748879 26.80087904 -122.38671875 24.265625 C-122.57234375 23.5025 -122.75796875 22.739375 -122.94921875 21.953125 C-123.09359375 21.39625 -123.23796875 20.839375 -123.38671875 20.265625 C-121.07671875 20.265625 -118.76671875 20.265625 -116.38671875 20.265625 C-116.12761719 19.54890625 -115.86851563 18.8321875 -115.6015625 18.09375 C-109.66912902 4.28319747 -96.94401468 -5.40690755 -83.34814453 -11.00292969 C-56.32502239 -21.08026027 -23.28397433 -16.91994206 0 0 Z " fill="#74320A" transform="translate(163.38671875,43.734375)"/>
<path d="M0 0 C4.3745781 1.47987586 7.73072346 3.87292507 11.375 6.625 C35.53304328 24.28412625 61.4374295 30.28982912 91 30 C91.88191939 46.56048631 87.07745782 61.24011319 75.98706055 73.82617188 C71.31454314 78.90628334 66.35894837 83.64736999 61 88 C60.01 88.804375 59.02 89.60875 58 90.4375 C57.34 90.953125 56.68 91.46875 56 92 C56.969375 92.268125 57.93875 92.53625 58.9375 92.8125 C59.948125 93.204375 60.95875 93.59625 62 94 C62.33 94.99 62.66 95.98 63 97 C64.98543523 98.36911495 64.98543523 98.36911495 67.4375 99.625 C76.12363322 104.63813974 84.09597251 111.84775012 90 120 C90 120.66 90 121.32 90 122 C90.66 122.33 91.32 122.66 92 123 C65.12807728 138.8333922 35.19098514 146.98803266 4 140 C-7.49764311 136.91209929 -18.62024527 132.86681789 -29 127 C-21.86500988 114.4102734 -13.07668222 105.60964001 -0.5546875 98.65625 C2.28177363 97.19468263 2.28177363 97.19468263 3 94 C5.5625 92.8125 5.5625 92.8125 8 92 C4.88529105 89.58813511 1.63631527 87.48660029 -1.6875 85.375 C-15.34153919 76.23359588 -24.41727386 63.85804738 -29 48 C-29.35964844 46.76378906 -29.71929687 45.52757812 -30.08984375 44.25390625 C-31.19871719 39.731682 -31.26089893 35.38572209 -31.1875 30.75 C-31.18685547 29.96109375 -31.18621094 29.1721875 -31.18554688 28.359375 C-31.13060563 21.13154855 -31.13060563 21.13154855 -30 18 C-27.2265625 16.578125 -27.2265625 16.578125 -23.625 15.25 C-16.58569048 12.49348618 -10.90456296 8.7428522 -5 4 C-3.60974609 2.89011719 -3.60974609 2.89011719 -2.19140625 1.7578125 C-1.10666016 0.88769531 -1.10666016 0.88769531 0 0 Z " fill="#FDC494" transform="translate(84,83)"/>
<path d="M0 0 C9.80069171 8.00475344 17.26082301 19.46527793 21.61328125 31.265625 C22.25716797 32.98072266 22.25716797 32.98072266 22.9140625 34.73046875 C33.52975916 64.67078037 31.58565548 100.37426067 26.61328125 131.265625 C26.36384766 132.91498047 26.36384766 132.91498047 26.109375 134.59765625 C25.59312026 137.91315892 25.0212567 141.21351148 24.42578125 144.515625 C24.26634033 145.51045898 24.10689941 146.50529297 23.94262695 147.53027344 C22.70016798 153.77453739 20.86293683 156.7551711 15.55737305 160.33105469 C13.61328125 161.265625 13.61328125 161.265625 10.61328125 161.265625 C9.03515625 159.54296875 9.03515625 159.54296875 7.36328125 157.203125 C1.51645643 149.44367426 -4.41514808 144.29088626 -12.76391602 139.37304688 C-14.35293532 138.41263407 -15.87684211 137.34620245 -17.38671875 136.265625 C-17.38671875 135.275625 -17.38671875 134.285625 -17.38671875 133.265625 C-20.02671875 132.605625 -22.66671875 131.945625 -25.38671875 131.265625 C-23.05737583 129.38712264 -20.72503697 127.51968526 -18.33203125 125.72265625 C-1.51370245 113.00706856 8.42226816 96.79208935 12.015625 75.9296875 C12.3088261 73.7045723 12.48878863 71.50649219 12.61328125 69.265625 C12.66613281 68.37617187 12.71898437 67.48671875 12.7734375 66.5703125 C13.31298077 48.97651026 8.14003701 31.65984398 -3.38671875 18.265625 C-14.35219254 6.61618806 -30.72582922 1.890139 -46.38671875 1.265625 C-47.3715625 1.19085938 -48.35640625 1.11609375 -49.37109375 1.0390625 C-62.32326815 0.46138336 -75.23144797 3.98728956 -87.38671875 8.265625 C-88.04671875 7.275625 -88.70671875 6.285625 -89.38671875 5.265625 C-89.71470459 5.71478271 -90.04269043 6.16394043 -90.38061523 6.62670898 C-91.86091654 8.65284024 -93.34254973 10.67799374 -94.82421875 12.703125 C-95.34048828 13.41017578 -95.85675781 14.11722656 -96.38867188 14.84570312 C-96.88173828 15.51923828 -97.37480469 16.19277344 -97.8828125 16.88671875 C-98.33841553 17.5098999 -98.79401855 18.13308105 -99.26342773 18.77514648 C-100.38671875 20.265625 -100.38671875 20.265625 -101.38671875 21.265625 C-103.92213173 21.17476049 -106.42226659 21.0285305 -108.94921875 20.828125 C-109.66013672 20.77591797 -110.37105469 20.72371094 -111.10351562 20.66992188 C-112.86493874 20.53988393 -114.62588048 20.40335603 -116.38671875 20.265625 C-111.6101866 7.05292911 -100.85273688 -1.99724258 -88.82421875 -8.546875 C-60.85574063 -21.63332287 -24.90037425 -18.09454364 0 0 Z " fill="#562307" transform="translate(163.38671875,43.734375)"/>
<path d="M0 0 C2.74178151 3.52949432 4.73713421 7.24340305 6.6875 11.25 C7.16799805 12.22453125 7.16799805 12.22453125 7.65820312 13.21875 C8.44247141 14.81069757 9.22174255 16.40510529 10 18 C10.33 18 10.66 18 11 18 C10.97381592 18.91064209 10.94763184 19.82128418 10.9206543 20.75952148 C10.27906361 46.45076166 10.78371325 67.80190739 29.54296875 87.6796875 C35.93848678 93.7193341 43.00478397 98.37952482 51 102 C48.64046906 104.35953094 47.22104383 104.49141413 44 105 C43.92652344 105.60457031 43.85304687 106.20914063 43.77734375 106.83203125 C42.71199596 109.80322735 41.33258088 110.24844082 38.5625 111.6875 C27.81135328 117.80691162 19.8118546 126.7822181 13 137 C8.94658555 135.6102579 6.05336316 134.02935873 3 131 C1.74168785 128.19367039 1.0957297 125.3092776 0.4375 122.3125 C0.23406982 121.44326904 0.03063965 120.57403809 -0.17895508 119.6784668 C-2.68829629 108.56119426 -4.45824639 97.28783891 -6 86 C-6.17950195 84.70843994 -6.35900391 83.41687988 -6.54394531 82.08618164 C-7.92664615 71.64751385 -8.39963963 61.33704453 -8.375 50.8125 C-8.37512085 50.0110556 -8.3752417 49.20961121 -8.37536621 48.38388062 C-8.33906657 31.40345699 -6.73189839 15.73323123 0 0 Z " fill="#562307" transform="translate(43,72)"/>
<path d="M0 0 C35.97 0 71.94 0 109 0 C109 35.97 109 71.94 109 109 C108.67 109 108.34 109 108 109 C107.97421875 108.18660156 107.9484375 107.37320313 107.921875 106.53515625 C106.37216718 75.22401423 92.14859205 48.55387298 69.4609375 27.31298828 C65.90112561 24.11367874 62.06853432 21.50280099 58 19 C56.93007812 18.33226563 55.86015625 17.66453125 54.7578125 16.9765625 C38.16370058 6.90022817 19.35094544 1.60471704 0 1 C0 0.67 0 0.34 0 0 Z " fill="#FFFDFD" transform="translate(116,0)"/>
<path d="M0 0 C0.33 0 0.66 0 1 0 C1 35.97 1 71.94 1 109 C-33.32 109 -67.64 109 -103 109 C-103 108.67 -103 108.34 -103 108 C-102.11441406 107.91363281 -101.22882813 107.82726562 -100.31640625 107.73828125 C-83.84725908 105.87029265 -69.45717925 101.09266011 -55 93 C-53.50339844 92.16662109 -53.50339844 92.16662109 -51.9765625 91.31640625 C-44.43378332 86.81019004 -38.28580189 81.06936108 -32 75 C-31.31808594 74.36964844 -30.63617188 73.73929687 -29.93359375 73.08984375 C-10.55017827 54.74714857 -0.81763677 26.16437657 0 0 Z " fill="#FEFDFD" transform="translate(224,116)"/>
<path d="M0 0 C0.33 0 0.66 0 1 0 C1.00257813 0.74378906 1.00515625 1.48757812 1.0078125 2.25390625 C1.64521959 20.25003298 7.00758562 37.48367714 16 53 C16.55429687 53.99 17.10859375 54.98 17.6796875 56 C22.17166683 63.56543887 27.93449392 69.6980574 34 76 C34.56074219 76.63550781 35.12148438 77.27101563 35.69921875 77.92578125 C52.76612412 96.69489766 79.43169074 105.81106819 104 108 C104 108.33 104 108.66 104 109 C69.68 109 35.36 109 0 109 C0 73.03 0 37.06 0 0 Z " fill="#FEFDFD" transform="translate(0,116)"/>
<path d="M0 0 C33.33 0 66.66 0 101 0 C101 0.33 101 0.66 101 1 C100.38181396 1.12004395 99.76362793 1.24008789 99.12670898 1.36376953 C68.69961406 7.36729657 41.08164459 19.94242618 22.3125 45.75 C21.1781769 47.48060542 20.07720925 49.23327867 19 51 C18.64309082 51.58265625 18.28618164 52.1653125 17.91845703 52.765625 C7.24165051 70.38571324 1.90765502 88.40562065 1 109 C0.67 109 0.34 109 0 109 C0 73.03 0 37.06 0 0 Z " fill="#FFFEFD" transform="translate(0,0)"/>
<path d="M0 0 C4.29 1.32 8.58 2.64 13 4 C23.26833062 5.90154271 31.23227402 3.25590866 41 0 C41 15.51 41 31.02 41 47 C32.71844872 49.76051709 25.03423759 50.0854558 16.375 50.125 C15.67076904 50.12967285 14.96653809 50.1343457 14.2409668 50.13916016 C13.55043213 50.13706543 12.85989746 50.1349707 12.1484375 50.1328125 C11.54177246 50.13168457 10.93510742 50.13055664 10.31005859 50.12939453 C6.85822519 49.93604517 3.43054698 49.42881837 0 49 C0 32.83 0 16.66 0 0 Z " fill="#EE9257" transform="translate(96,175)"/>
<path d="M0 0 C0 16.17 0 32.34 0 49 C-6.99502268 47.72817769 -13.30869943 46.5170825 -19.9375 44.25 C-20.70239746 43.9926709 -21.46729492 43.7353418 -22.25537109 43.47021484 C-28.81398494 41.19775494 -34.92014455 38.36180243 -41 35 C-33.86500988 22.4102734 -25.07668222 13.60964001 -12.5546875 6.65625 C-9.71822637 5.19468263 -9.71822637 5.19468263 -9 2 C-5.67908998 0.29466783 -3.81507216 0 0 0 Z " fill="#3381A0" transform="translate(96,175)"/>
<path d="M0 0 C4.455 0.99 4.455 0.99 9 2 C9.33 2.99 9.66 3.98 10 5 C11.98543523 6.36911495 11.98543523 6.36911495 14.4375 7.625 C23.12363322 12.63813974 31.09597251 19.84775012 37 28 C37 28.66 37 29.32 37 30 C37.66 30.33 38.32 30.66 39 31 C26.24731146 38.51410018 14.6893747 44.06212506 0 47 C0 31.49 0 15.98 0 0 Z " fill="#33809E" transform="translate(137,175)"/>
<path d="M0 0 C1.16982422 -0.00386719 2.33964844 -0.00773438 3.54492188 -0.01171875 C4.66318359 -0.01042969 5.78144531 -0.00914062 6.93359375 -0.0078125 C7.94349365 -0.00668457 8.95339355 -0.00555664 9.99389648 -0.00439453 C12.5625 0.125 12.5625 0.125 15.5625 1.125 C15.5625 7.065 15.5625 13.005 15.5625 19.125 C7.49816523 20.3777122 -0.27407398 21.31972507 -8.4375 21.3125 C-9.13029053 21.31314453 -9.82308105 21.31378906 -10.53686523 21.31445312 C-14.98328782 21.26729329 -18.97997663 20.76178905 -23.4375 20.125 C-23.4375 13.855 -23.4375 7.585 -23.4375 1.125 C-15.59515776 0.19717359 -7.89316734 -0.02671123 0 0 Z " fill="#FE0402" transform="translate(120.4375,203.875)"/>
<path d="M0 0 C2.40012869 2.96824774 3.97256266 5.8855446 5.48046875 9.38671875 C5.92197266 10.40701172 6.36347656 11.42730469 6.81835938 12.47851562 C7.27017578 13.53748047 7.72199219 14.59644531 8.1875 15.6875 C8.65091797 16.75806641 9.11433594 17.82863281 9.59179688 18.93164062 C13 26.84730532 13 26.84730532 13 28 C11.20824107 27.85530469 9.41659858 27.70916739 7.625 27.5625 C6.62726563 27.48128906 5.62953125 27.40007812 4.6015625 27.31640625 C0.06400037 26.9177701 -4.46756673 26.45324333 -9 26 C-12.96 31.61 -16.92 37.22 -21 43 C-23.30482558 39.92689923 -24.86228613 37.48137285 -26.48046875 34.0859375 C-26.92197266 33.16039062 -27.36347656 32.23484375 -27.81835938 31.28125 C-28.27017578 30.3221875 -28.72199219 29.363125 -29.1875 28.375 C-29.65091797 27.40820312 -30.11433594 26.44140625 -30.59179688 25.4453125 C-34 18.25746732 -34 18.25746732 -34 16 C-33.39639648 16.08378906 -32.79279297 16.16757813 -32.17089844 16.25390625 C-20.50387608 17.96822958 -20.50387608 17.96822958 -9.78027344 14.4296875 C-5.67428498 10.15392617 -2.75972496 5.21669528 0 0 Z " fill="#FB0100" transform="translate(74,48)"/>
<path d="M0 0 C4.455 0.99 4.455 0.99 9 2 C9.33 16.19 9.66 30.38 10 45 C6.7 45.66 3.4 46.32 0 47 C0 31.49 0 15.98 0 0 Z " fill="#3E96C2" transform="translate(137,175)"/>
<path d="M0 0 C0 16.17 0 32.34 0 49 C-3.96 48.505 -3.96 48.505 -8 48 C-8 32.82 -8 17.64 -8 2 C-4 0 -4 0 0 0 Z " fill="#3F98C4" transform="translate(96,175)"/>
<path d="M0 0 C2.3125 0.125 2.3125 0.125 5 1 C6.05008653 2.97416268 7.04987876 4.97582866 8 7 C11.34739304 9.63009453 14.88162305 9.29416978 19 9 C21.62761873 8.32432661 22.62907363 7.55574782 24.12890625 5.30859375 C25.13797596 3.56821219 26.07395562 1.78594274 27 0 C28.32 0 29.64 0 31 0 C32.22991531 2.90707256 32.00681965 3.98181428 30.875 7 C27.63741253 12.18013995 23.90686934 14.58235136 18 16 C12.47482602 16.71622626 9.26541214 15.56435972 4.8046875 12.4921875 C2.12677347 10.27798153 0.49875243 8.12783115 -1 5 C-0.75 2.125 -0.75 2.125 0 0 Z " fill="#FF0906" transform="translate(100,150)"/>
<path d="M0 0 C1.57394531 -0.04253906 1.57394531 -0.04253906 3.1796875 -0.0859375 C6.78311758 0.47799453 7.95959456 1.4895447 10.125 4.375 C10 7.0625 10 7.0625 9.125 9.375 C6.29470852 10.79014574 3.84120867 10.58280992 0.6875 10.625 C-0.46621094 10.65078125 -1.61992188 10.6765625 -2.80859375 10.703125 C-5.875 10.375 -5.875 10.375 -7.796875 9.01953125 C-8.875 7.375 -8.875 7.375 -8.6875 4.8125 C-7.06707697 -0.04876908 -4.70605178 0.0575312 0 0 Z " fill="#F29657" transform="translate(114.875,132.625)"/>
<path d="M0 0 C2 2 2 2 2.3125 5.4375 C2 9 2 9 0.875 10.9375 C-1.88980433 12.50422245 -3.88188517 12.38976435 -7 12 C-8.875 10.9375 -8.875 10.9375 -10 9 C-10.36841966 5.56141649 -10.58367385 3.09868019 -8.9375 0 C-5.80557344 -1.61647822 -3.32814714 -0.78665296 0 0 Z " fill="#353432" transform="translate(150,117)"/>
<path d="M0 0 C2 2 2 2 2.3125 5.4375 C2 9 2 9 0.875 10.9375 C-1.88980433 12.50422245 -3.88188517 12.38976435 -7 12 C-8.875 10.9375 -8.875 10.9375 -10 9 C-10.4375 5.5 -10.4375 5.5 -10 2 C-7.00303875 -1.6885677 -4.34072074 -1.22672543 0 0 Z " fill="#333331" transform="translate(89,117)"/>
</svg>
