<?xml version="1.0" encoding="UTF-8"?>
<svg version="1.1" xmlns="http://www.w3.org/2000/svg" width="225" height="225">
<path d="M0 0 C74.25 0 148.5 0 225 0 C225 74.25 225 148.5 225 225 C150.75 225 76.5 225 0 225 C0 150.75 0 76.5 0 0 Z " fill="#DEEBFA" transform="translate(0,0)"/>
<path d="M0 0 C1.051875 0.309375 2.10375 0.61875 3.1875 0.9375 C6.90931605 1.90726897 10.34921898 2.09433784 14.1875 2.1875 C25.97563867 2.97883338 35.43594364 10.36526529 44 18 C44.78246094 18.68835938 45.56492187 19.37671875 46.37109375 20.0859375 C58.56597398 31.47879357 65.60106865 47.93756486 66.37109375 64.56640625 C66.62291695 76.97255315 65.85628844 87.53487825 61 99 C60.60425781 99.95003906 60.20851562 100.90007812 59.80078125 101.87890625 C57.02292086 107.92375195 53.21241011 112.89050255 49 118 C48.3503125 118.92039063 48.3503125 118.92039063 47.6875 119.859375 C45.45088287 122.94943814 44.16128607 123.95472672 40.4375 125 C37.04250933 125 35.84832629 124.59556134 33 123 C33.05800781 121.94941406 33.11601562 120.89882812 33.17578125 119.81640625 C33.55289625 110.10627338 32.9342165 103.79770439 26.4375 96.1640625 C24.07038631 93.64308642 22.30867971 92.10289324 19 91 C19 90.34 19 89.68 19 89 C10.17320081 87.3071892 0.83802906 87.31656589 -8 89 C-8.36351562 88.35933594 -8.72703125 87.71867187 -9.1015625 87.05859375 C-16.14585388 74.93880012 -24.27869664 66.31966958 -38 62 C-38 61.34 -38 60.68 -38 60 C-50.97077316 57.51245446 -64.111525 56.53002596 -77 60 C-76.05109875 51.75730553 -74.16845567 45.19138154 -70 38 C-69.34 38 -68.68 38 -68 38 C-67.34 37.01 -66.68 36.02 -66 35 C-63.375 34.3125 -63.375 34.3125 -61 34 C-60.71125 33.113125 -60.4225 32.22625 -60.125 31.3125 C-59.75375 30.219375 -59.3825 29.12625 -59 28 C-58.71125 27.0925 -58.4225 26.185 -58.125 25.25 C-56.79743501 22.59487002 -55.73979504 22.00459151 -53 21 C-52.67 21.33 -52.34 21.66 -52 22 C-51.34 20.02 -50.68 18.04 -50 16 C-46.535 15.505 -46.535 15.505 -43 15 C-42.67 13.35 -42.34 11.7 -42 10 C-38.7 10.33 -35.4 10.66 -32 11 C-32 9.68 -32 8.36 -32 7 C-27.32045095 2.8004047 -23.01860967 2.21885853 -17 2 C-15.84564453 1.95746094 -15.84564453 1.95746094 -14.66796875 1.9140625 C-10.00374507 1.83460383 -5.59626911 2.21765632 -1 3 C-0.67 2.01 -0.34 1.02 0 0 Z " fill="#EAAC59" transform="translate(139,21)"/>
<path d="M0 0 C18.15 0 36.3 0 55 0 C55 74.25 55 148.5 55 225 C37.18 225 19.36 225 1 225 C3.18340255 222.81659745 5.12753135 221.83512536 7.875 220.4375 C13.47596085 217.448845 18.39111684 213.85222809 23.37109375 209.953125 C26 208 26 208 28.28515625 206.921875 C30.36160638 206.05827972 30.36160638 206.05827972 31 203 C31.99591007 201.99592673 32.99626172 200.99624769 34 200 C35.16417292 198.10512734 35.16417292 198.10512734 36.125 196.0625 C36.45757812 195.39347656 36.79015625 194.72445312 37.1328125 194.03515625 C40.79545003 185.4395069 38.87399493 176.56185939 36 168 C34.81746731 165.79599643 33.52296866 163.99561411 32 162 C32 161.34 32 160.68 32 160 C31.34 160 30.68 160 30 160 C29.21625 158.96875 28.4325 157.9375 27.625 156.875 C23.50425404 151.81678434 17.85563874 149.5867142 12 147 C13.48703907 143.67692289 15.41290042 141.15596733 17.75 138.375 C31.92517454 120.76497305 35.34894628 102.1969662 34 80 C32.39292555 67.16692258 26.4174579 54.75193293 18 45 C17.45085937 44.35675781 16.90171875 43.71351562 16.3359375 43.05078125 C9.68242401 35.8451677 0.85735521 30.16558785 -8 26 C-7.67 24.68 -7.34 23.36 -7 22 C-5.88625 21.79375 -4.7725 21.5875 -3.625 21.375 C0.22414898 20.40100279 0.22414898 20.40100279 1.3125 17.125 C1.539375 16.09375 1.76625 15.0625 2 14 C2.37125 13.34 2.7425 12.68 3.125 12 C4.37436749 9.14430287 4.38518335 7.08146678 4 4 C2.68 2.68 1.36 1.36 0 0 Z " fill="#FDFEFD" transform="translate(170,0)"/>
<path d="M0 0 C18.15 0 36.3 0 55 0 C55 17.82 55 35.64 55 54 C52.525 52.02 52.525 52.02 50 50 C44.85237482 50.09532639 40.48512725 51.49867903 36 54 C34.93753473 55.96752828 33.92862192 57.96587579 33 60 C30.91796875 60.6796875 30.91796875 60.6796875 29 61 C28.08333333 59.625 27.16666667 58.25 26.25 56.875 C25.69441406 56.04742187 25.13882813 55.21984375 24.56640625 54.3671875 C23.39977932 52.60415528 22.28071977 50.8094672 21.1875 49 C13.7468919 38.79573746 3.37135062 31.36278511 -8 26 C-7.67 24.68 -7.34 23.36 -7 22 C-5.88625 21.79375 -4.7725 21.5875 -3.625 21.375 C0.22414898 20.40100279 0.22414898 20.40100279 1.3125 17.125 C1.539375 16.09375 1.76625 15.0625 2 14 C2.37125 13.34 2.7425 12.68 3.125 12 C4.37436749 9.14430287 4.38518335 7.08146678 4 4 C2.68 2.68 1.36 1.36 0 0 Z " fill="#FEFEFD" transform="translate(170,0)"/>
<path d="M0 0 C4.04388492 2.74946381 7.0110182 6.1570234 10 10 C10.66 10.33 11.32 10.66 12 11 C12 11.66 12 12.32 12 13 C12.66 13 13.32 13 14 13 C15.38938077 14.96147874 16.7260411 16.96166576 18 19 C16.9275 19.268125 15.855 19.53625 14.75 19.8125 C11.43491072 20.86227827 9.56122354 21.74612328 7 24 C7.99 24.33 8.98 24.66 10 25 C10 25.66 10 26.32 10 27 C6.04 27 2.08 27 -2 27 C-1.34 26.34 -0.68 25.68 0 25 C-1.093125 24.690625 -2.18625 24.38125 -3.3125 24.0625 C-5.55407994 23.41662103 -7.7869351 22.7376883 -10 22 C-10 18.37 -10 14.74 -10 11 C-16.435 11.495 -16.435 11.495 -23 12 C-24.18821809 19.28565305 -23.99030432 26.27023139 -23.75 33.625 C-23.72292969 34.9346875 -23.69585937 36.244375 -23.66796875 37.59375 C-23.62800781 38.85445312 -23.58804688 40.11515625 -23.546875 41.4140625 C-23.51432617 42.5582666 -23.48177734 43.7024707 -23.44824219 44.88134766 C-22.9561145 48.30533408 -22.08433034 50.25762532 -20 53 C-17.51486417 53.81406498 -17.51486417 53.81406498 -14.8125 53.8125 C-13.91144531 53.86019531 -13.01039062 53.90789062 -12.08203125 53.95703125 C-11.39496094 53.97121094 -10.70789063 53.98539063 -10 54 C-9.79503906 53.38511719 -9.59007813 52.77023438 -9.37890625 52.13671875 C-6 42 -6 42 -3 40 C-0.80859375 39.69921875 -0.80859375 39.69921875 1.5625 39.6875 C2.34753906 39.67074219 3.13257813 39.65398437 3.94140625 39.63671875 C4.62074219 39.75660156 5.30007812 39.87648437 6 40 C8.85055503 44.27583255 8.48658817 47.9850026 8 53 C5.81049385 59.69731294 0.77058245 63.26838597 -5 66.875 C-9.92720999 68.82323016 -15.56787788 68.16185949 -20.76953125 68.0078125 C-23.89110565 67.7583131 -23.89110565 67.7583131 -26 69 C-34.15956781 61.06708685 -39.28766399 54.54617936 -39.49609375 42.9140625 C-39.50895049 40.60591073 -39.49746321 38.30016984 -39.46655273 35.9921875 C-39.43765095 33.63729889 -39.44595573 31.2846769 -39.45898438 28.9296875 C-39.433297 10.24644629 -39.433297 10.24644629 -33.625 3.0625 C-23.97378184 -4.52059999 -11.04876094 -5.72167977 0 0 Z " fill="#5FA3F7" transform="translate(106,141)"/>
<path d="M0 0 C0.72407043 -0.00700928 1.44814087 -0.01401855 2.19415283 -0.02124023 C4.58368476 -0.03882113 6.97202864 -0.02719697 9.36157227 -0.01367188 C11.02539802 -0.01636708 12.68922224 -0.02024974 14.3530426 -0.02526855 C17.83919275 -0.03116394 21.32493272 -0.02260076 24.81103516 -0.00390625 C29.27459397 0.01886597 33.7371898 0.00577203 38.20071316 -0.01819611 C41.63661418 -0.03266835 45.07228791 -0.02804133 48.50819588 -0.01768494 C50.15359677 -0.01502065 51.79901845 -0.01827693 53.44439507 -0.02760315 C55.74733783 -0.03779075 58.04873456 -0.02223843 60.3515625 0 C62.3153611 0.00477356 62.3153611 0.00477356 64.3188324 0.00964355 C68.29110311 0.59931693 69.96104547 1.66527773 72.74047852 4.51757812 C73.94792472 9.5888522 71.63652179 13.8731344 69.31469727 18.31054688 C66.9132864 21.67728916 64.62984445 22.32085014 60.74047852 23.51757812 C60.41047852 24.17757813 60.08047852 24.83757813 59.74047852 25.51757812 C53.80047852 25.18757813 47.86047852 24.85757812 41.74047852 24.51757812 C41.74047852 23.85757812 41.74047852 23.19757812 41.74047852 22.51757812 C40.09047852 22.51757812 38.44047852 22.51757812 36.74047852 22.51757812 C36.41047852 23.17757813 36.08047852 23.83757813 35.74047852 24.51757812 C34.52231445 24.50597656 33.30415039 24.494375 32.04907227 24.48242188 C30.42537589 24.47303635 28.80167785 24.46393697 27.17797852 24.45507812 C25.97818359 24.44250977 25.97818359 24.44250977 24.75415039 24.4296875 C15.07042973 24.22020098 15.07042973 24.22020098 6.74047852 28.51757812 C6.08047852 28.51757812 5.42047852 28.51757812 4.74047852 28.51757812 C4.74047852 29.83757813 4.74047852 31.15757813 4.74047852 32.51757812 C1.44047852 32.51757812 -1.85952148 32.51757812 -5.25952148 32.51757812 C-5.58952148 33.83757813 -5.91952148 35.15757813 -6.25952148 36.51757812 C-8.56952148 37.17757812 -10.87952148 37.83757813 -13.25952148 38.51757812 C-13.58952148 41.15757813 -13.91952148 43.79757813 -14.25952148 46.51757812 C-15.24952148 45.52757812 -16.23952148 44.53757813 -17.25952148 43.51757812 C-19.56149089 45.40100764 -20.2741382 46.56337717 -21.19702148 49.45507812 C-22.36280255 52.81527062 -23.53164874 54.28568224 -26.25952148 56.51757812 C-27.74452148 57.01257812 -27.74452148 57.01257812 -29.25952148 57.51757812 C-29.75452148 59.99257812 -29.75452148 59.99257812 -30.25952148 62.51757812 C-30.75452148 61.03257813 -30.75452148 61.03257813 -31.25952148 59.51757812 C-31.91952148 59.18757813 -32.57952148 58.85757813 -33.25952148 58.51757812 C-32.92952148 57.85757813 -32.59952148 57.19757812 -32.25952148 56.51757812 C-31.59952148 56.51757812 -30.93952148 56.51757812 -30.25952148 56.51757812 C-30.25952148 55.52757812 -30.25952148 54.53757813 -30.25952148 53.51757812 C-29.59952148 53.51757812 -28.93952148 53.51757812 -28.25952148 53.51757812 C-27.92952148 51.86757813 -27.59952148 50.21757813 -27.25952148 48.51757812 C-26.59952148 48.51757812 -25.93952148 48.51757812 -25.25952148 48.51757812 C-24.95014648 47.89882813 -24.64077148 47.28007813 -24.32202148 46.64257812 C-23.63452148 45.26757812 -22.94702148 43.89257812 -22.25952148 42.51757812 C-21.59952148 42.51757812 -20.93952148 42.51757812 -20.25952148 42.51757812 C-20.25952148 41.85757813 -20.25952148 41.19757812 -20.25952148 40.51757812 C-18.33364569 38.88617875 -16.41625432 37.38034587 -14.38452148 35.89257812 C-13.82893555 35.47234375 -13.27334961 35.05210938 -12.70092773 34.61914062 C-8.52187437 31.51757812 -8.52187437 31.51757812 -6.25952148 31.51757812 C-6.25952148 30.52757813 -6.25952148 29.53757812 -6.25952148 28.51757812 C-7.24952148 28.18757813 -8.23952148 27.85757812 -9.25952148 27.51757812 C-7.93952148 25.53757812 -6.61952148 23.55757812 -5.25952148 21.51757812 C-5.69264648 20.793125 -6.12577148 20.06867187 -6.57202148 19.32226562 C-7.12889648 18.35546875 -7.68577148 17.38867188 -8.25952148 16.39257812 C-8.81639648 15.44125 -9.37327148 14.48992188 -9.94702148 13.50976562 C-11.42420776 10.14213263 -11.8108603 8.15050709 -11.25952148 4.51757812 C-8.02219994 0.09898219 -5.30441972 0.01290171 0 0 Z " fill="#FEFDFB" transform="translate(102.259521484375,-0.517578125)"/>
<path d="M0 0 C3.02969124 2.30841439 3.91787115 3.44935773 4.48774719 7.27015686 C4.48188095 8.56682785 4.47601471 9.86349884 4.4699707 11.19946289 C4.4721611 11.91699234 4.4743515 12.63452179 4.47660828 13.37379456 C4.47891586 15.74055402 4.45268583 18.10606309 4.42578125 20.47265625 C4.42085662 22.11884669 4.41755821 23.76504274 4.41581726 25.41123962 C4.40818062 28.85873338 4.38762982 32.30581146 4.35668945 35.75317383 C4.31708383 40.1740365 4.29907506 44.59462898 4.28938007 49.01564884 C4.27940994 53.23052129 4.25952321 57.44532775 4.23828125 61.66015625 C4.2348855 62.46549364 4.23148975 63.27083103 4.2279911 64.10057259 C4.21642078 66.37710555 4.19790105 68.65346749 4.17700195 70.92993164 C4.16715775 72.22580704 4.15731354 73.52168243 4.14717102 74.85682678 C4 78 4 78 3 81 C-0.79008682 83.52672455 -2.49197342 83.44341245 -7 83 C-11.5815223 81.36914619 -15.64347181 79.43581777 -18 75 C-18.6875 72.75 -18.6875 72.75 -19 71 C-19.66 71.99 -20.32 72.98 -21 74 C-21.66 73.67 -22.32 73.34 -23 73 C-22.47599609 71.44539063 -22.47599609 71.44539063 -21.94140625 69.859375 C-21.48169068 68.48961023 -21.0220597 67.11981707 -20.5625 65.75 C-20.33240234 65.06808594 -20.10230469 64.38617188 -19.86523438 63.68359375 C-14.57932807 47.90248216 -15.62089274 30.64045644 -21 15 C-21.34966068 13.67085505 -21.69119757 12.33922737 -22 11 C-20.68 10.67 -19.36 10.34 -18 10 C-17.9175 9.4225 -17.835 8.845 -17.75 8.25 C-16.54599784 4.63799351 -14.51191523 2.77177263 -11.1328125 1.046875 C-7.18473712 -0.59194874 -4.12787588 -1.71994828 0 0 Z " fill="#FEFDFB" transform="translate(221,50)"/>
<path d="M0 0 C0.33 0 0.66 0 1 0 C1.03738281 0.88042969 1.07476562 1.76085937 1.11328125 2.66796875 C1.21189453 4.41013672 1.21189453 4.41013672 1.3125 6.1875 C1.39951172 7.91033203 1.39951172 7.91033203 1.48828125 9.66796875 C2.03779829 13.24612169 2.67610229 15.2276308 5 18 C7.48513583 18.81406498 7.48513583 18.81406498 10.1875 18.8125 C11.08855469 18.86019531 11.98960938 18.90789062 12.91796875 18.95703125 C13.60503906 18.97121094 14.29210937 18.98539063 15 19 C15.20496094 18.38511719 15.40992187 17.77023438 15.62109375 17.13671875 C19 7 19 7 22 5 C24.19140625 4.69921875 24.19140625 4.69921875 26.5625 4.6875 C27.34753906 4.67074219 28.13257813 4.65398437 28.94140625 4.63671875 C29.96041016 4.81654297 29.96041016 4.81654297 31 5 C33.85055503 9.27583255 33.48658817 12.9850026 33 18 C30.81049385 24.69731294 25.77058245 28.26838597 20 31.875 C15.07279001 33.82323016 9.43212212 33.16185949 4.23046875 33.0078125 C1.10889435 32.7583131 1.10889435 32.7583131 -1 34 C-6.57142857 28.85714286 -6.57142857 28.85714286 -7 25 C-5.33333333 25 -3.66666667 25 -2 25 C-1.29453448 16.66950287 -0.63195215 8.33639002 0 0 Z " fill="#508BF7" transform="translate(81,176)"/>
<path d="M0 0 C2.625 -0.1875 2.625 -0.1875 5 0 C4.50628906 0.60972656 4.01257813 1.21945313 3.50390625 1.84765625 C1.33545446 6.3929565 1.75581072 10.47703998 1.9375 15.4375 C2.30265847 26.6331034 2.30265847 26.6331034 0 32 C0.99 32.33 1.98 32.66 3 33 C3.33 33.99 3.66 34.98 4 36 C4.33 36 4.66 36 5 36 C5 37.65 5 39.3 5 41 C7.64 40.67 10.28 40.34 13 40 C13 34.72 13 29.44 13 24 C18.94 24 24.88 24 31 24 C31.495 26.475 31.495 26.475 32 29 C32.66 28.67 33.32 28.34 34 28 C34.66 28.33 35.32 28.66 36 29 C37.25433458 32.76300374 37.10695422 36.27210909 37.0625 40.1875 C37.05798828 40.93708984 37.05347656 41.68667969 37.04882812 42.45898438 C37.03706354 44.30602383 37.01912865 46.15302213 37 48 C36.67 47.34 36.34 46.68 36 46 C32.535 47.98 32.535 47.98 29 50 C29 51.98 29 53.96 29 56 C24.38 56 19.76 56 15 56 C16.32 55.34 17.64 54.68 19 54 C24.0414874 50.78738231 28.1791205 47.91785836 30 42 C30.3702536 37.45015289 30.45065525 33.35196574 29 29 C27.56208484 29.14168137 26.1246763 29.28851043 24.6875 29.4375 C23.88699219 29.51871094 23.08648437 29.59992188 22.26171875 29.68359375 C19.83912821 29.95265693 19.83912821 29.95265693 17 31 C16.26639432 33.00735831 16.26639432 33.00735831 15.9375 35.375 C15.36829089 38.70351803 14.94048384 40.08927425 13 43 C10.72265625 43.3984375 10.72265625 43.3984375 8.0625 43.375 C6.74958984 43.38660156 6.74958984 43.38660156 5.41015625 43.3984375 C2.56044656 42.92733476 1.71163105 42.2857518 0 40 C-1.18852325 36.43443024 -1.26782715 33.09285633 -1.38671875 29.375 C-1.42500542 28.2600415 -1.42500542 28.2600415 -1.46406555 27.12255859 C-1.51601459 25.55248815 -1.56544856 23.98233276 -1.61254883 22.41210938 C-1.68723245 20.00861043 -1.77787496 17.60604406 -1.86914062 15.203125 C-1.91764946 13.67711426 -1.96520752 12.15107293 -2.01171875 10.625 C-2.04077805 9.90618652 -2.06983734 9.18737305 -2.09977722 8.44677734 C-2.19446885 4.69805836 -2.14133485 3.21200228 0 0 Z " fill="#BDD4F1" transform="translate(83,152)"/>
<path d="M0 0 C1.13308594 0.0928125 1.13308594 0.0928125 2.2890625 0.1875 C5.39340727 1.39668298 6.05121828 2.99365459 7.375 6 C7.80859375 9.19140625 7.80859375 9.19140625 7.8125 12.5625 C7.84150391 14.23505859 7.84150391 14.23505859 7.87109375 15.94140625 C7.375 19 7.375 19 5.6640625 21.37109375 C2.97994025 23.28112614 1.57862471 23.53941025 -1.6875 23.5 C-2.54472656 23.5103125 -3.40195312 23.520625 -4.28515625 23.53125 C-6.625 23 -6.625 23 -8.40234375 21.47265625 C-10.11782608 18.00332617 -10.13863827 14.72552911 -10.125 10.9375 C-10.15335938 10.21755859 -10.18171875 9.49761719 -10.2109375 8.75585938 C-10.21875 6.65234375 -10.21875 6.65234375 -9.625 3 C-6.53584226 0.24989615 -4.07060753 -0.44762695 0 0 Z " fill="#79BCF3" transform="translate(54.625,135)"/>
<path d="M0 0 C0.99 0.495 0.99 0.495 2 1 C2.81640625 3.6171875 2.81640625 3.6171875 3.5625 6.875 C4.28372947 9.9766604 4.9927143 12.9781429 6 16 C6.66 16 7.32 16 8 16 C9.4375 17.49609375 9.4375 17.49609375 11 19.4375 C13.14525044 22.15188238 13.14525044 22.15188238 16 24 C16 24.66 16 25.32 16 26 C16.78375 26.2475 17.5675 26.495 18.375 26.75 C22.98401329 28.33931493 27.48547716 30.16207173 32 32 C32 32.33 32 32.66 32 33 C21.44 33 10.88 33 0 33 C0 22.11 0 11.22 0 0 Z " fill="#FCFDFD" transform="translate(0,192)"/>
<path d="M0 0 C0 0.66 0 1.32 0 2 C1.65 2 3.3 2 5 2 C5 2.33 5 2.66 5 3 C0.71 3 -3.58 3 -8 3 C-8 2.34 -8 1.68 -8 1 C-9.65 1 -11.3 1 -13 1 C-13.33 1.66 -13.66 2.32 -14 3 C-15.21816406 2.98839844 -16.43632812 2.97679687 -17.69140625 2.96484375 C-19.31510262 2.95545822 -20.93880067 2.94635884 -22.5625 2.9375 C-23.36236328 2.92912109 -24.16222656 2.92074219 -24.98632812 2.91210938 C-34.67004878 2.70262285 -34.67004878 2.70262285 -43 7 C-43.66 7 -44.32 7 -45 7 C-45 8.32 -45 9.64 -45 11 C-48.3 11 -51.6 11 -55 11 C-55.33 12.32 -55.66 13.64 -56 15 C-58.31 15.66 -60.62 16.32 -63 17 C-63.33 19.64 -63.66 22.28 -64 25 C-64.99 24.01 -65.98 23.02 -67 22 C-69.3019694 23.88342951 -70.01461672 25.04579905 -70.9375 27.9375 C-72.10328107 31.29769249 -73.27212725 32.76810411 -76 35 C-77.485 35.495 -77.485 35.495 -79 36 C-79.495 38.475 -79.495 38.475 -80 41 C-80.495 39.515 -80.495 39.515 -81 38 C-81.66 37.67 -82.32 37.34 -83 37 C-82.67 36.34 -82.34 35.68 -82 35 C-81.34 35 -80.68 35 -80 35 C-80 34.01 -80 33.02 -80 32 C-79.34 32 -78.68 32 -78 32 C-77.67 30.35 -77.34 28.7 -77 27 C-76.34 27 -75.68 27 -75 27 C-74.690625 26.38125 -74.38125 25.7625 -74.0625 25.125 C-73.375 23.75 -72.6875 22.375 -72 21 C-71.34 21 -70.68 21 -70 21 C-70 20.34 -70 19.68 -70 19 C-68.07412421 17.36860063 -66.15673283 15.86276775 -64.125 14.375 C-63.56941406 13.95476563 -63.01382813 13.53453125 -62.44140625 13.1015625 C-58.26235288 10 -58.26235288 10 -56 10 C-56 9.34 -56 8.68 -56 8 C-38.25734023 -1.97513591 -19.87399205 -2.91706566 0 0 Z " fill="#F6E082" transform="translate(152,21)"/>
<path d="M0 0 C2.375 -0.125 2.375 -0.125 5 0 C7 2 7 2 7.0625 4.5 C7.041875 5.325 7.02125 6.15 7 7 C7.33 7.66 7.66 8.32 8 9 C7.39239518 11.3494053 6.72870472 13.68529088 6 16 C7.11375 16 8.2275 16 9.375 16 C11.25 16 13.125 16 15 16 C15 13.36 15 10.72 15 8 C17.31 8 19.62 8 22 8 C22.33 5.36 22.66 2.72 23 0 C25.31 0 27.62 0 30 0 C28.86334849 8.88211967 20.84152713 19.31936548 14 25 C10.30854857 26.12620552 8.32598777 26.6054953 4.79296875 24.9921875 C4.20128906 24.66476563 3.60960937 24.33734375 3 24 C3.03480469 22.91460937 3.06960937 21.82921875 3.10546875 20.7109375 C3.13362388 19.26564058 3.16092219 17.82032679 3.1875 16.375 C3.21263672 15.66214844 3.23777344 14.94929687 3.26367188 14.21484375 C3.3307404 9.34119781 2.47122935 6.31978674 0 2 C0 1.34 0 0.68 0 0 Z " fill="#CE5636" transform="translate(169,120)"/>
<path d="M0 0 C0.33 0 0.66 0 1 0 C1.03738281 0.88042969 1.07476562 1.76085937 1.11328125 2.66796875 C1.21189453 4.41013672 1.21189453 4.41013672 1.3125 6.1875 C1.39951172 7.91033203 1.39951172 7.91033203 1.48828125 9.66796875 C2.03779829 13.24612169 2.67610229 15.2276308 5 18 C7.48513583 18.81406498 7.48513583 18.81406498 10.1875 18.8125 C11.08855469 18.86019531 11.98960938 18.90789062 12.91796875 18.95703125 C13.60503906 18.97121094 14.29210937 18.98539063 15 19 C15.66 17.35 16.32 15.7 17 14 C18.125 17.75 18.125 17.75 17 20 C14.9375 20.625 14.9375 20.625 13 21 C13 21.66 13 22.32 13 23 C14.32 23.66 15.64 24.32 17 25 C16.01 27.475 16.01 27.475 15 30 C15.66 29.67 16.32 29.34 17 29 C18.99960012 28.960008 21.00047242 28.95653201 23 29 C19.72292767 32.27707233 16.912673 32.96048617 12.30078125 33.16015625 C10.28839034 33.11088125 8.27599951 33.06156052 6.26367188 33.00976562 C2.50904537 32.85779553 2.50904537 32.85779553 -1 34 C-6.57142857 28.85714286 -6.57142857 28.85714286 -7 25 C-5.33333333 25 -3.66666667 25 -2 25 C-1.29453448 16.66950287 -0.63195215 8.33639002 0 0 Z " fill="#5591F6" transform="translate(81,176)"/>
<path d="M0 0 C4.65972222 1.27083333 4.65972222 1.27083333 6.4375 3.9375 C9.17590273 9.02310508 9.95176738 12.31307829 8.4375 17.9375 C7.25 19.875 7.25 19.875 5.4375 20.9375 C2.4375 21.3125 2.4375 21.3125 -0.5625 20.9375 C-4.88544525 17.35500885 -7.22277551 12.14570919 -8.0625 6.6875 C-7.5625 3.9375 -7.5625 3.9375 -6 1.5 C-3.5625 -0.0625 -3.5625 -0.0625 0 0 Z " fill="#EEB95E" transform="translate(98.5625,0.0625)"/>
<path d="M0 0 C2.375 1.6875 2.375 1.6875 4 4 C4.0625 7 4.0625 7 3 10 C-0.24823039 13.34103697 -3.46374796 15.00202455 -8 16 C-11.75 15.8125 -11.75 15.8125 -15 15 C-17.32749345 11.50875983 -17.50299316 10.10777749 -17 6 C-13.48711059 0.87703628 -5.94865635 -2.47860681 0 0 Z " fill="#EDBB63" transform="translate(221,50)"/>
<path d="M0 0 C4.57941759 2.01556153 8.19197124 3.78795686 11 8 C11 11 11 11 10 14 C7.03148945 16.09145061 5.15704455 17.08677834 1.5 16.8125 C0.675 16.544375 -0.15 16.27625 -1 16 C-2.03125 15.731875 -3.0625 15.46375 -4.125 15.1875 C-7.36968808 13.84730275 -8.47092395 13.14310078 -10 10 C-10.4375 6.4375 -10.4375 6.4375 -10 3 C-7.12102969 -0.43261845 -4.2944036 -0.64821186 0 0 Z " fill="#ECBB62" transform="translate(52,50)"/>
<path d="M0 0 C3.5 0.8125 3.5 0.8125 5.4375 2 C7.13492379 4.8956053 6.98756575 6.46048544 6.5 9.8125 C5.25291186 13.47062522 3.80841254 16.69990365 1.5 19.8125 C-2 21.25 -2 21.25 -5.5 20.8125 C-8.48428665 18.65365434 -10.15699463 17.18452147 -11.0625 13.5625 C-9.73422794 7.06872549 -7.70165681 -0.41258876 0 0 Z " fill="#EEBE64" transform="translate(168.5,0.1875)"/>
<path d="M0 0 C5.11044182 0.05214737 8.57505486 0.64654818 13.046875 3.3984375 C13.046875 4.0584375 13.046875 4.7184375 13.046875 5.3984375 C13.706875 5.3984375 14.366875 5.3984375 15.046875 5.3984375 C16.171875 11.0234375 16.171875 11.0234375 15.046875 14.3984375 C11.25678818 16.92516205 9.55490158 16.84184995 5.046875 16.3984375 C0.62579661 14.77843946 -2.30836338 13.36557993 -4.953125 9.3984375 C-4.2420365 0.86537545 -4.2420365 0.86537545 0 0 Z " fill="#EEBE64" transform="translate(208.953125,116.6015625)"/>
<path d="M0 0 C2.625 -0.1875 2.625 -0.1875 5 0 C4.50628906 0.60972656 4.01257813 1.21945313 3.50390625 1.84765625 C1.33545446 6.3929565 1.75581072 10.47703998 1.9375 15.4375 C2.30265847 26.6331034 2.30265847 26.6331034 0 32 C0.99 32.33 1.98 32.66 3 33 C3.33 33.99 3.66 34.98 4 36 C4.33 36 4.66 36 5 36 C5 37.65 5 39.3 5 41 C7.64 40.67 10.28 40.34 13 40 C13 34.72 13 29.44 13 24 C15.64 24 18.28 24 21 24 C20.67 25.98 20.34 27.96 20 30 C19.01 30.33 18.02 30.66 17 31 C16.26639432 33.00735831 16.26639432 33.00735831 15.9375 35.375 C15.36829089 38.70351803 14.94048384 40.08927425 13 43 C10.72265625 43.3984375 10.72265625 43.3984375 8.0625 43.375 C6.74958984 43.38660156 6.74958984 43.38660156 5.41015625 43.3984375 C2.56044656 42.92733476 1.71163105 42.2857518 0 40 C-1.18852325 36.43443024 -1.26782715 33.09285633 -1.38671875 29.375 C-1.42500542 28.2600415 -1.42500542 28.2600415 -1.46406555 27.12255859 C-1.51601459 25.55248815 -1.56544856 23.98233276 -1.61254883 22.41210938 C-1.68723245 20.00861043 -1.77787496 17.60604406 -1.86914062 15.203125 C-1.91764946 13.67711426 -1.96520752 12.15107293 -2.01171875 10.625 C-2.04077805 9.90618652 -2.06983734 9.18737305 -2.09977722 8.44677734 C-2.19446885 4.69805836 -2.14133485 3.21200228 0 0 Z " fill="#ADC8EC" transform="translate(83,152)"/>
<path d="M0 0 C1.9451 2.91765 2.45276317 4.62537285 3 8 C3.99 7.835 4.98 7.67 6 7.5 C12.94880525 6.60622251 20.00882501 6.92364008 27 7 C27 7.66 27 8.32 27 9 C25.35 9.33 23.7 9.66 22 10 C24.475 10.495 24.475 10.495 27 11 C27 11.99 27 12.98 27 14 C26.32533691 13.98952637 25.65067383 13.97905273 24.95556641 13.96826172 C21.84541679 13.92622548 18.73532726 13.90052437 15.625 13.875 C14.56410156 13.85824219 13.50320312 13.84148437 12.41015625 13.82421875 C5.68730739 13.78297428 -0.47111548 14.37829164 -7 16 C-5.828125 9.1640625 -5.828125 9.1640625 -5 7 C-2.96875 5.875 -2.96875 5.875 -1 5 C-0.18828772 2.44480079 -0.18828772 2.44480079 0 0 Z " fill="#E39B5B" transform="translate(69,65)"/>
<path d="M0 0 C3.25157346 2.16771564 3.42358502 2.34442573 4.1640625 5.890625 C5.24218371 11.49864843 5.3822213 17.05239272 5.375 22.75 C5.37693359 24.32974609 5.37693359 24.32974609 5.37890625 25.94140625 C5.27080307 33.9115586 4.22113971 40.63739494 1 48 C0.67 48 0.34 48 0 48 C0 35.46 0 22.92 0 10 C0.66 10 1.32 10 2 10 C1.505 8.63875 1.505 8.63875 1 7.25 C0 4 0 4 0 0 Z " fill="#E59644" transform="translate(200,69)"/>
<path d="M0 0 C2.03833424 1.2739589 4.03852126 2.61061923 6 4 C6 4.66 6 5.32 6 6 C6.66 6 7.32 6 8 6 C9.38938077 7.96147874 10.7260411 9.96166576 12 12 C10.9275 12.268125 9.855 12.53625 8.75 12.8125 C5.43491072 13.86227827 3.56122354 14.74612328 1 17 C1.99 17.33 2.98 17.66 4 18 C4 18.66 4 19.32 4 20 C0.04 20 -3.92 20 -8 20 C-7.34 19.34 -6.68 18.68 -6 18 C-7.093125 17.690625 -8.18625 17.38125 -9.3125 17.0625 C-11.55407994 16.41662103 -13.7869351 15.7376883 -16 15 C-16 11.37 -16 7.74 -16 4 C-15.34 4 -14.68 4 -14 4 C-12.68 7.3 -11.36 10.6 -10 14 C-6.7 14 -3.4 14 0 14 C1.86987216 10.26025568 1.30641834 5.53209172 0.5 1.5 C0.2525 0.7575 0.2525 0.7575 0 0 Z " fill="#A5C3EE" transform="translate(112,148)"/>
<path d="M0 0 C0.495 0.99 0.495 0.99 1 2 C1.66 2.33 2.32 2.66 3 3 C0.76489051 7.36156782 -2.12080626 10.01092238 -6 12.875 C-6.57234375 13.30554688 -7.1446875 13.73609375 -7.734375 14.1796875 C-24.98074777 27 -24.98074777 27 -32 27 C-31.67 25.68 -31.34 24.36 -31 23 C-29.68 23 -28.36 23 -27 23 C-27.33 21.35 -27.66 19.7 -28 18 C-24.04 18 -20.08 18 -16 18 C-16 15.36 -16 12.72 -16 10 C-13.525 10.495 -13.525 10.495 -11 11 C-11 11.66 -11 12.32 -11 13 C-10.34 12.67 -9.68 12.34 -9 12 C-8.53476937 10.10466658 -8.53476937 10.10466658 -8.375 7.9375 C-8.25125 6.638125 -8.1275 5.33875 -8 4 C-7.01 4.66 -6.02 5.32 -5 6 C-2.84725052 5.69159401 -2.84725052 5.69159401 -1 5 C-0.67 3.35 -0.34 1.7 0 0 Z " fill="#C0D8F2" transform="translate(200,198)"/>
<path d="M0 0 C0.33 0 0.66 0 1 0 C1.05394705 2.60444348 1.09364469 5.20776998 1.125 7.8125 C1.14175781 8.55048828 1.15851562 9.28847656 1.17578125 10.04882812 C1.21074628 13.91246426 1.19397555 15.70903668 -1 19 C-3.27734375 19.43359375 -3.27734375 19.43359375 -5.9375 19.4375 C-7.25041016 19.46650391 -7.25041016 19.46650391 -8.58984375 19.49609375 C-11 19 -11 19 -12.8046875 17.42578125 C-14.44682748 14.09320305 -14.29012294 11.44442585 -14.1875 7.75 C-14.16042969 6.48671875 -14.13335937 5.2234375 -14.10546875 3.921875 C-14.07066406 2.95765625 -14.03585938 1.9934375 -14 1 C-12.68 1.33 -11.36 1.66 -10 2 C-10 5.63 -10 9.26 -10 13 C-8.02 13 -6.04 13 -4 13 C-3.67 9.7 -3.34 6.4 -3 3 C-2.01 2.67 -1.02 2.34 0 2 C0 1.34 0 0.68 0 0 Z " fill="#6CB6F5" transform="translate(59,139)"/>
<path d="M0 0 C0.78375 0.825 1.5675 1.65 2.375 2.5 C4.63721264 5.22988506 4.63721264 5.22988506 7 5 C8.5635348 8.12706959 8.39958487 11.57982443 8 15 C7.01 16.485 7.01 16.485 6 18 C3.65234375 18.328125 3.65234375 18.328125 0.9375 18.25 C0.03902344 18.23453125 -0.85945313 18.2190625 -1.78515625 18.203125 C-4 18 -4 18 -5 17 C-5.29386153 13.27775401 -5.14809171 12.22213757 -3 9 C-2.30643577 6.67451993 -1.63850788 4.34119555 -1 2 C-0.67 1.34 -0.34 0.68 0 0 Z " fill="#589AF6" transform="translate(106,145)"/>
<path d="M0 0 C2.375 -0.125 2.375 -0.125 5 0 C7 2 7 2 7.0625 4.5 C7.041875 5.325 7.02125 6.15 7 7 C7.33 7.66 7.66 8.32 8 9 C7.39239518 11.3494053 6.72870472 13.68529088 6 16 C8.31 16 10.62 16 13 16 C13 16.66 13 17.32 13 18 C13.66 18 14.32 18 15 18 C13.125 24.875 13.125 24.875 12 26 C10.47480724 25.91062197 8.95318071 25.75462854 7.4375 25.5625 C6.61121094 25.46066406 5.78492188 25.35882813 4.93359375 25.25390625 C4.29550781 25.17011719 3.65742188 25.08632812 3 25 C3.03480469 23.84242188 3.06960937 22.68484375 3.10546875 21.4921875 C3.13362207 19.9531396 3.16092056 18.41407589 3.1875 16.875 C3.21263672 16.11445313 3.23777344 15.35390625 3.26367188 14.5703125 C3.32848902 9.55778692 2.56832348 6.43558228 0 2 C0 1.34 0 0.68 0 0 Z " fill="#BE402F" transform="translate(169,120)"/>
<path d="M0 0 C10.23 0 20.46 0 31 0 C31 2.31 31 4.62 31 7 C29.96875 6.67 28.9375 6.34 27.875 6 C19.58807834 3.91719081 10.35469348 4.40862981 2 6 C1.34 4.02 0.68 2.04 0 0 Z " fill="#D66A3B" transform="translate(129,104)"/>
<path d="M0 0 C2.04119788 1.61594832 4.04072937 3.2856382 6 5 C6 5.66 6 6.32 6 7 C6.99 7.33 7.98 7.66 9 8 C8.34 11.3 7.68 14.6 7 18 C6.01 18 5.02 18 4 18 C3.54625 18.474375 3.0925 18.94875 2.625 19.4375 C0.53105687 21.45090685 -1.18824386 21.49532582 -4 22 C-4.66 22.66 -5.32 23.32 -6 24 C-8.5 22.625 -8.5 22.625 -11 21 C-11 20.34 -11 19.68 -11 19 C-7.97265625 18.75585938 -7.97265625 18.75585938 -4.9453125 18.51171875 C-2.60480784 18.12606964 -2.60480784 18.12606964 -1 15 C-0.34 15 0.32 15 1 15 C0.67 10.05 0.34 5.1 0 0 Z " fill="#C2D7F2" transform="translate(61,139)"/>
<path d="M0 0 C4.34299678 5.79066237 5.30952609 8.96227101 5.1875 16.1875 C5.18685547 16.92419922 5.18621094 17.66089844 5.18554688 18.41992188 C5.14050904 23.85949096 5.14050904 23.85949096 4 25 C1.32941149 25.14115161 -1.32432238 25.04247107 -4 25 C-2.68 24.34 -1.36 23.68 0 23 C0 15.41 0 7.82 0 0 Z " fill="#A2B9DE" transform="translate(168,120)"/>
<path d="M0 0 C3.96 0 7.92 0 12 0 C12.95261487 4.76307437 13.08333357 9.1666528 13 14 C1.43333333 4.3 1.43333333 4.3 0 0 Z " fill="#E28646" transform="translate(115,88)"/>
<path d="M0 0 C6.6 0 13.2 0 20 0 C22 5 22 5 22 6 C19.36 6.33 16.72 6.66 14 7 C14 6.34 14 5.68 14 5 C13.01 4.67 12.02 4.34 11 4 C11.33 4.99 11.66 5.98 12 7 C9.36 6.67 6.72 6.34 4 6 C4.99 5.67 5.98 5.34 7 5 C7 4.01 7 3.02 7 2 C4.69 1.67 2.38 1.34 0 1 C0 0.67 0 0.34 0 0 Z " fill="#CFE8FA" transform="translate(162,145)"/>
<path d="M0 0 C0.99 0 1.98 0 3 0 C3 0.66 3 1.32 3 2 C3.66 2 4.32 2 5 2 C6.125 7.625 6.125 7.625 5 11 C1.3558226 13.4294516 -0.71241272 13.16179575 -5 13 C-5 12.34 -5 11.68 -5 11 C-4.34 11 -3.68 11 -3 11 C-2.67 9.68 -2.34 8.36 -2 7 C-1.34 7 -0.68 7 0 7 C0 6.34 0 5.68 0 5 C-0.99 5 -1.98 5 -3 5 C-3 4.01 -3 3.02 -3 2 C-2.34 2 -1.68 2 -1 2 C-0.67 1.34 -0.34 0.68 0 0 Z " fill="#E9AE56" transform="translate(219,120)"/>
<path d="M0 0 C0.33 0 0.66 0 1 0 C1.185625 1.11375 1.37125 2.2275 1.5625 3.375 C2.036875 4.57125 2.51125 5.7675 3 7 C6.51400668 8.54086322 6.51400668 8.54086322 10 9 C8.625 10.5 8.625 10.5 7 12 C6.34 12 5.68 12 5 12 C4.731875 12.969375 4.46375 13.93875 4.1875 14.9375 C3.795625 15.948125 3.40375 16.95875 3 18 C2.01 18.33 1.02 18.66 0 19 C-0.6700834 16.87607494 -1.33596797 14.75082476 -2 12.625 C-2.37125 11.44164063 -2.7425 10.25828125 -3.125 9.0390625 C-4 6 -4 6 -4 4 C-2.68 3.67 -1.36 3.34 0 3 C0 2.01 0 1.02 0 0 Z " fill="#FBF7EF" transform="translate(203,57)"/>
<path d="M0 0 C0 1.65 0 3.3 0 5 C-0.66 5 -1.32 5 -2 5 C-2.33 7.64 -2.66 10.28 -3 13 C-5.6875 13.375 -5.6875 13.375 -9 13 C-11.06398076 11.176017 -12.39041053 9.27236161 -14 7 C-12 6 -10 5 -8 4 C-7.01 4.33 -6.02 4.66 -5 5 C-4.67 4.01 -4.34 3.02 -4 2 C-1 0 -1 0 0 0 Z " fill="#D1E2F7" transform="translate(67,155)"/>
<path d="M0 0 C5.2013691 0.90559551 8.44198973 4.28887863 12 8 C13.59027779 10.28381561 14.77084063 12.49046628 16 15 C13.36 15 10.72 15 8 15 C8 12.36 8 9.72 8 7 C6.2984375 7.0309375 6.2984375 7.0309375 4.5625 7.0625 C1 7 1 7 0 6 C-0.04080783 4.00041636 -0.04254356 1.99954746 0 0 Z " fill="#B3C7E6" transform="translate(112,89)"/>
<path d="M0 0 C1.65 0.33 3.3 0.66 5 1 C5.4699161 5.69916104 4.64981753 9.23671199 2.48828125 13.36328125 C0.51272453 15.53587513 -0.8652471 15.68653866 -3.75 16 C-5.16619517 16.03654697 -6.58416052 16.04840477 -8 16 C-4.25 13 -4.25 13 -2 13 C-1.93941406 12.22914062 -1.87882813 11.45828125 -1.81640625 10.6640625 C-1.73261719 9.66117188 -1.64882812 8.65828125 -1.5625 7.625 C-1.48128906 6.62726562 -1.40007812 5.62953125 -1.31640625 4.6015625 C-1 2 -1 2 0 0 Z " fill="#EAAE54" transform="translate(170,3)"/>
<path d="M0 0 C2.625 -0.1875 2.625 -0.1875 5 0 C4.50628906 0.61617187 4.01257813 1.23234375 3.50390625 1.8671875 C1.36110447 6.33089407 1.76245113 10.24980328 1.9375 15.125 C2.0877713 22.64568995 1.9224952 29.67048704 0 37 C-0.33 37 -0.66 37 -1 37 C-1.19239902 32.21321897 -1.37109864 27.42619673 -1.53710938 22.63842773 C-1.59551552 21.00970751 -1.65766607 19.38111708 -1.72363281 17.75268555 C-1.8177949 15.41218701 -1.8984892 13.07155233 -1.9765625 10.73046875 C-2.00875885 10.00224411 -2.0409552 9.27401947 -2.0741272 8.52372742 C-2.18607509 4.74726048 -2.15661556 3.23492334 0 0 Z " fill="#86B2EB" transform="translate(83,152)"/>
<path d="M0 0 C5.66666667 0 11.33333333 0 17 0 C16.67 2.64 16.34 5.28 16 8 C9.97229862 7.52412884 5.23321711 4.80277043 0 2 C0 1.34 0 0.68 0 0 Z " fill="#ADC6EA" transform="translate(16,216)"/>
<path d="M0 0 C2 3 2 3 1.7578125 5.04296875 C1.171875 7.02864583 0.5859375 9.01432292 0 11 C0.66 11 1.32 11 2 11 C2.33 10.01 2.66 9.02 3 8 C2.67 11.63 2.34 15.26 2 19 C1.01 19 0.02 19 -1 19 C-1 26.92 -1 34.84 -1 43 C-1.33 43 -1.66 43 -2 43 C-2.04975831 38.16196154 -2.08588788 33.32407491 -2.10986328 28.48583984 C-2.11986737 26.84290977 -2.13347494 25.19999726 -2.15087891 23.55712891 C-2.17537515 21.18387495 -2.18653917 18.81085815 -2.1953125 16.4375 C-2.20563507 15.71320801 -2.21595764 14.98891602 -2.22659302 14.24267578 C-2.2276826 9.19283085 -1.38239063 4.85989233 0 0 Z " fill="#7EB5F7" transform="translate(69,149)"/>
<path d="M0 0 C3.375 0.875 3.375 0.875 5.375 2.875 C3.725 2.875 2.075 2.875 0.375 2.875 C0.271875 3.390625 0.16875 3.90625 0.0625 4.4375 C-0.86763866 7.73526435 -2.23895512 10.74133332 -3.625 13.875 C-4.285 13.875 -4.945 13.875 -5.625 13.875 C-7.71991746 10.47075912 -8.12073145 7.84085158 -7.625 3.875 C-5.30290294 0.25252859 -4.34513693 -0.14983231 0 0 Z " fill="#EEC46F" transform="translate(98.625,0.125)"/>
<path d="M0 0 C2.475 0.495 2.475 0.495 5 1 C5 1.66 5 2.32 5 3 C5.9075 3.12375 6.815 3.2475 7.75 3.375 C10.58970323 3.92109677 12.52590591 4.57263803 15 6 C15 6.66 15 7.32 15 8 C10.05 8 5.1 8 0 8 C0 5.36 0 2.72 0 0 Z " fill="#BDCAE5" transform="translate(96,80)"/>
<path d="M0 0 C0.33 0 0.66 0 1 0 C1.03738281 0.88042969 1.07476562 1.76085937 1.11328125 2.66796875 C1.17902344 3.82941406 1.24476562 4.99085938 1.3125 6.1875 C1.37050781 7.33605469 1.42851563 8.48460937 1.48828125 9.66796875 C2.03779829 13.24612169 2.67610229 15.2276308 5 18 C7.48513583 18.81406498 7.48513583 18.81406498 10.1875 18.8125 C11.08855469 18.86019531 11.98960938 18.90789062 12.91796875 18.95703125 C13.60503906 18.97121094 14.29210937 18.98539063 15 19 C15.66 17.35 16.32 15.7 17 14 C18.125 17.75 18.125 17.75 17 20 C14.9375 20.625 14.9375 20.625 13 21 C13 21.66 13 22.32 13 23 C9.03993403 22.44743266 5.66666608 21.58558533 2 20 C1.01 19.67 0.02 19.34 -1 19 C-0.67 12.73 -0.34 6.46 0 0 Z " fill="#5B95F0" transform="translate(81,176)"/>
<path d="M0 0 C2.875 -0.1875 2.875 -0.1875 6 0 C8 3 8 3 7.75 6.0625 C7 9 7 9 5 11 C2.4375 10.75 2.4375 10.75 0 10 C-0.33 9.34 -0.66 8.68 -1 8 C-0.06553465 5.96855359 0.93224776 3.96466413 2 2 C1.34 2 0.68 2 0 2 C0 1.34 0 0.68 0 0 Z " fill="#ECB35E" transform="translate(217,51)"/>
<path d="M0 0 C0.33 1.32 0.66 2.64 1 4 C-0.39176632 4.96423026 -1.7886223 5.92111602 -3.1875 6.875 C-3.96480469 7.40867188 -4.74210938 7.94234375 -5.54296875 8.4921875 C-9.06043374 10.65075902 -11.84363635 12 -16 12 C-15.67 10.68 -15.34 9.36 -15 8 C-13.68 8 -12.36 8 -11 8 C-11.33 6.35 -11.66 4.7 -12 3 C-8.04 3 -4.08 3 0 3 C0 2.01 0 1.02 0 0 Z " fill="#A7C0E5" transform="translate(184,213)"/>
<path d="M0 0 C2.375 0.3125 2.375 0.3125 5 1 C7 4 7 4 6.6875 7.125 C6 10 6 10 5 11 C3.48071962 11.07179964 1.95832518 11.08392007 0.4375 11.0625 C-0.38878906 11.05347656 -1.21507812 11.04445313 -2.06640625 11.03515625 C-2.70449219 11.02355469 -3.34257813 11.01195313 -4 11 C-2.68 10.67 -1.36 10.34 0 10 C0 6.7 0 3.4 0 0 Z " fill="#EBAD58" transform="translate(56,54)"/>
<path d="M0 0 C0 0.33 0 0.66 0 1 C-3.96 1 -7.92 1 -12 1 C-12 1.66 -12 2.32 -12 3 C-10.02 3 -8.04 3 -6 3 C-7.73070701 5.15199754 -8.60619233 5.93393358 -11.375 6.3984375 C-12.24125 6.39070312 -13.1075 6.38296875 -14 6.375 C-14.86625 6.38273438 -15.7325 6.39046875 -16.625 6.3984375 C-19.39380767 5.93393358 -20.26929299 5.15199754 -22 3 C-14.69065285 -0.50848663 -8.00945568 -0.30372936 0 0 Z " fill="#67ADF3" transform="translate(98,138)"/>
<path d="M0 0 C2.375 -0.125 2.375 -0.125 5 0 C7 2 7 2 7.0625 4.5 C7.041875 5.325 7.02125 6.15 7 7 C7.33 7.66 7.66 8.32 8 9 C7.73046875 11.34765625 7.73046875 11.34765625 7.1875 14.0625 C6.93033203 15.41021484 6.93033203 15.41021484 6.66796875 16.78515625 C6.44753906 17.51605469 6.22710937 18.24695313 6 19 C5.34 19.33 4.68 19.66 4 20 C3.96261719 19.20335937 3.92523438 18.40671875 3.88671875 17.5859375 C3.52066068 11.68594268 3.12544351 7.16377623 0 2 C0 1.34 0 0.68 0 0 Z " fill="#C15239" transform="translate(169,120)"/>
<path d="M0 0 C1.37445518 0.08781611 2.74820605 0.18724794 4.12109375 0.296875 C4.81912109 0.33683594 5.51714844 0.37679687 6.23632812 0.41796875 C8.0181757 0.54586082 9.79100402 0.78810153 11.55859375 1.046875 C11.88859375 1.706875 12.21859375 2.366875 12.55859375 3.046875 C13.54859375 3.376875 14.53859375 3.706875 15.55859375 4.046875 C16.24609375 6.109375 16.24609375 6.109375 16.55859375 8.046875 C15.90632813 7.6859375 15.2540625 7.325 14.58203125 6.953125 C7.95820319 3.28028003 7.95820319 3.28028003 0.55859375 3.046875 C-0.43140625 3.706875 -1.42140625 4.366875 -2.44140625 5.046875 C-2.83648518 9.39274328 -2.89471627 11.36690997 -0.44140625 15.046875 C-2.09140625 15.376875 -3.74140625 15.706875 -5.44140625 16.046875 C-5.49525146 13.75546214 -5.53412712 11.46369312 -5.56640625 9.171875 C-5.58960938 7.89570312 -5.6128125 6.61953125 -5.63671875 5.3046875 C-5.36077536 0.70195181 -4.60760526 0.06275966 0 0 Z " fill="#FCF9EB" transform="translate(45.44140625,47.953125)"/>
<path d="M0 0 C0 0.33 0 0.66 0 1 C-5.05002222 2.03590199 -9.87416389 2.10251672 -15 2 C-15.99 4.31 -16.98 6.62 -18 9 C-19.32 8.67 -20.64 8.34 -22 8 C-22 6.68 -22 5.36 -22 4 C-23.32 3.67 -24.64 3.34 -26 3 C-17.34796755 -0.49409003 -9.15244471 -0.30659554 0 0 Z " fill="#DDDBE3" transform="translate(88,78)"/>
<path d="M0 0 C2.97090589 4.45635883 2.45347708 9.47851108 1.546875 14.51953125 C1.06811121 16.691067 0.55802941 18.84760084 0 21 C-0.33 21 -0.66 21 -1 21 C-1.33 19.68 -1.66 18.36 -2 17 C-2.66 17.99 -3.32 18.98 -4 20 C-4.66 19.67 -5.32 19.34 -6 19 C-5.65066406 17.96359375 -5.30132812 16.9271875 -4.94140625 15.859375 C-4.48169068 14.48961023 -4.0220597 13.11981707 -3.5625 11.75 C-3.33240234 11.06808594 -3.10230469 10.38617188 -2.86523438 9.68359375 C-1.79196286 6.47933387 -0.73984392 3.29953381 0 0 Z " fill="#FAF4EC" transform="translate(204,104)"/>
<path d="M0 0 C1.65 0 3.3 0 5 0 C5 3.63 5 7.26 5 11 C3.35 11.33 1.7 11.66 0 12 C0 8.04 0 4.08 0 0 Z " fill="#A5C2EA" transform="translate(51,141)"/>
<path d="M0 0 C1.98 0 3.96 0 6 0 C5.84660156 0.51046875 5.69320312 1.0209375 5.53515625 1.546875 C4.83094597 4.7749338 4.65111796 7.95418001 4.4375 11.25 C4.35371094 12.51328125 4.26992188 13.7765625 4.18359375 15.078125 C4.12300781 16.04234375 4.06242187 17.0065625 4 18 C3.67 17.34 3.34 16.68 3 16 C2.34 16 1.68 16 1 16 C0.67 10.72 0.34 5.44 0 0 Z " fill="#E6F2FD" transform="translate(40,136)"/>
<path d="M0 0 C0.66 0.33 1.32 0.66 2 1 C2.625 3.5625 2.625 3.5625 3 6 C2.4225 6.020625 1.845 6.04125 1.25 6.0625 C-1.46058961 7.19191234 -1.68946738 7.95694265 -3 10.5 C-4.76388889 13.90277778 -4.76388889 13.90277778 -7.125 14.875 C-7.74375 14.91625 -8.3625 14.9575 -9 15 C-9.99 15.495 -9.99 15.495 -11 16 C-9.68129935 11.31128657 -6.87438329 8.37168011 -3.65625 4.8671875 C-1.83198095 2.89656809 -1.83198095 2.89656809 0 0 Z " fill="#F6F3EC" transform="translate(194,130)"/>
<path d="M0 0 C2.66673742 -0.02727345 5.33318869 -0.04696948 8 -0.0625 C8.74378906 -0.07087891 9.48757812 -0.07925781 10.25390625 -0.08789062 C15.26148844 -0.10966272 20.04279032 0.28458451 25 1 C25 1.33 25 1.66 25 2 C23.96101563 2.04898438 22.92203125 2.09796875 21.8515625 2.1484375 C14.08046683 2.55209446 6.58427772 3.12216201 -1 5 C-0.67 3.35 -0.34 1.7 0 0 Z " fill="#E6904D" transform="translate(63,76)"/>
<path d="M0 0 C-1.32 0.33 -2.64 0.66 -4 1 C-4 1.99 -4 2.98 -4 4 C-3.34 4.33 -2.68 4.66 -2 5 C-3.65 5.66 -5.3 6.32 -7 7 C-7.33 9.31 -7.66 11.62 -8 14 C-10.49619254 12.12785559 -10.96865123 11.2104846 -11.4375 8.0625 C-10.89774072 4.28418504 -10.01127215 3.27880054 -7 1 C-2.5 -1.25 -2.5 -1.25 0 0 Z " fill="#F2C971" transform="translate(215,51)"/>
<path d="M0 0 C7.24177072 2.13961407 7.24177072 2.13961407 10 5 C10.75 8.1875 10.75 8.1875 11 11 C10.01 11 9.02 11 8 11 C8 9.68 8 8.36 8 7 C5.69 7 3.38 7 1 7 C0.31292445 4.50935112 0 2.62113708 0 0 Z " fill="#F0C467" transform="translate(160,25)"/>
<path d="M0 0 C0.66 0.66 1.32 1.32 2 2 C3.5207704 2.75214998 5.06557295 3.45667412 6.625 4.125 C7.44226563 4.47820313 8.25953125 4.83140625 9.1015625 5.1953125 C9.72804687 5.46085937 10.35453125 5.72640625 11 6 C9.625 8.125 9.625 8.125 7 10 C3.55249736 9.75143398 0.31999482 8.93770846 -3 8 C-1.68 7.67 -0.36 7.34 1 7 C0.67 6.34 0.34 5.68 0 5 C-0.66 5 -1.32 5 -2 5 C-1.34 3.35 -0.68 1.7 0 0 Z " fill="#FAF8F0" transform="translate(155,15)"/>
<path d="M0 0 C4.62 0 9.24 0 14 0 C13.67 2.31 13.34 4.62 13 7 C9.37 5.68 5.74 4.36 2 3 C2 2.34 2 1.68 2 1 C1.34 0.67 0.68 0.34 0 0 Z " fill="#E19957" transform="translate(99,80)"/>
<path d="M0 0 C0.66 0 1.32 0 2 0 C3.32 3.3 4.64 6.6 6 10 C9.3 10.33 12.6 10.66 16 11 C16 11.33 16 11.66 16 12 C13.89590361 12.02701408 11.79170822 12.04640223 9.6875 12.0625 C8.51574219 12.07410156 7.34398438 12.08570313 6.13671875 12.09765625 C3 12 3 12 0 11 C0 7.37 0 3.74 0 0 Z " fill="#92B5EC" transform="translate(96,152)"/>
<path d="M0 0 C1 2 1 2 1 9 C-3.62 9 -8.24 9 -13 9 C-11.68 8.34 -10.36 7.68 -9 7 C-7.58293822 6.00884547 -6.18690837 4.98700132 -4.8125 3.9375 C-4.11769531 3.41027344 -3.42289063 2.88304687 -2.70703125 2.33984375 C-1.07033279 1.11021516 -1.07033279 1.11021516 0 0 Z " fill="#B1CCEE" transform="translate(111,199)"/>
<path d="M0 0 C0 0.66 0 1.32 0 2 C1.65 1.67 3.3 1.34 5 1 C5 3.31 5 5.62 5 8 C3.02 8 1.04 8 -1 8 C-1.433125 7.0409375 -1.433125 7.0409375 -1.875 6.0625 C-2.82823451 3.84793921 -2.82823451 3.84793921 -5 3 C-2.25 0 -2.25 0 0 0 Z " fill="#EDF3F9" transform="translate(62,80)"/>
<path d="M0 0 C5.28 0.33 10.56 0.66 16 1 C16 1.66 16 2.32 16 3 C17.65 3 19.3 3 21 3 C21 3.33 21 3.66 21 4 C16.71 4 12.42 4 8 4 C8 3.34 8 2.68 8 2 C6.35 2 4.7 2 3 2 C2.67 2.66 2.34 3.32 2 4 C-0.31 4 -2.62 4 -5 4 C-5 3.67 -5 3.34 -5 3 C-3.35 3 -1.7 3 0 3 C0 2.01 0 1.02 0 0 Z " fill="#F0D775" transform="translate(136,20)"/>
<path d="M0 0 C2.31 0 4.62 0 7 0 C6.49701212 4.40114397 4.91227269 6.71195019 2 10 C-0.4294516 6.3558226 -0.16179575 4.28758728 0 0 Z " fill="#D86D38" transform="translate(192,120)"/>
<path d="M0 0 C6.0546875 -0.1953125 6.0546875 -0.1953125 8 0 C10 2 10 2 10 5 C6.7 5.33 3.4 5.66 0 6 C0 4.02 0 2.04 0 0 Z " fill="#E9F2FB" transform="translate(48,129)"/>
<path d="M0 0 C0.66 0 1.32 0 2 0 C3.3260274 7.23287671 3.3260274 7.23287671 1.9375 10.5 C-0.74530648 12.57701147 -2.69943219 12.2933838 -6 12 C-4.6875 10 -4.6875 10 -3 8 C-2.01 8 -1.02 8 0 8 C-0.185625 7.236875 -0.37125 6.47375 -0.5625 5.6875 C-1 3 -1 3 0 0 Z " fill="#E7AF5C" transform="translate(105,8)"/>
<path d="M0 0 C0.66 0.33 1.32 0.66 2 1 C2.37851209 6.93002267 1.10575375 11.47239641 -1 17 C-1.33 17 -1.66 17 -2 17 C-2.05398987 14.72942623 -2.09278742 12.45848712 -2.125 10.1875 C-2.14820313 8.92292969 -2.17140625 7.65835938 -2.1953125 6.35546875 C-2 3 -2 3 0 0 Z " fill="#DF853C" transform="translate(202,100)"/>
<path d="M0 0 C5.4389165 -0.21755666 9.87080814 -0.10428384 15 2 C15 2.66 15 3.32 15 4 C11.66914012 4.06531098 8.58200765 4.12181556 5.3125 3.4375 C2.83606542 2.96898535 1.36684269 3.21105244 -1 4 C-0.34 3.67 0.32 3.34 1 3 C0.67 2.01 0.34 1.02 0 0 Z " fill="#D0DFF2" transform="translate(143,108)"/>
<path d="M0 0 C2.64 0 5.28 0 8 0 C8 2.64 8 5.28 8 8 C4.63820226 6.55922954 2.40843732 4.75249979 0 2 C0 1.34 0 0.68 0 0 Z " fill="#C0D3F1" transform="translate(8,208)"/>
<path d="M0 0 C2.4375 0.375 2.4375 0.375 5 1 C5.33 1.66 5.66 2.32 6 3 C6.66 2.67 7.32 2.34 8 2 C8 4.64 8 7.28 8 10 C6.84481082 9.09515208 5.70114594 8.1755794 4.5625 7.25 C3.60537109 6.48429687 3.60537109 6.48429687 2.62890625 5.703125 C0.81189446 3.80332371 0.39576803 2.56413092 0 0 Z " fill="#DC7B45" transform="translate(120,92)"/>
<path d="M0 0 C2.475 0.495 2.475 0.495 5 1 C5 1.66 5 2.32 5 3 C6.32 2.67 7.64 2.34 9 2 C6.42215154 4.64752004 4.08351902 6.94432065 1 9 C0.67 6.03 0.34 3.06 0 0 Z " fill="#B5CDED" transform="translate(184,208)"/>
<path d="M0 0 C1.65 1.32 3.3 2.64 5 4 C5.35627284 7.44397075 5.56430248 9.87139505 4 13 C3.01 13 2.02 13 1 13 C0.67 8.71 0.34 4.42 0 0 Z " fill="#BACFEF" transform="translate(61,139)"/>
<path d="M0 0 C0.66 0.33 1.32 0.66 2 1 C2.66 1 3.32 1 4 1 C3.67 2.65 3.34 4.3 3 6 C2.34 6 1.68 6 1 6 C1 6.66 1 7.32 1 8 C1.66 8.33 2.32 8.66 3 9 C2.34 9 1.68 9 1 9 C0.67 9.66 0.34 10.32 0 11 C-2 9 -2 9 -2.25 5.5 C-2 2 -2 2 0 0 Z " fill="#F2CE77" transform="translate(44,51)"/>
<path d="M0 0 C0.99 0.33 1.98 0.66 3 1 C3.33 3.64 3.66 6.28 4 9 C6.97 9.33 9.94 9.66 13 10 C13 10.33 13 10.66 13 11 C11.39667209 11.08121924 9.79215974 11.13929134 8.1875 11.1875 C7.29417969 11.22230469 6.40085937 11.25710937 5.48046875 11.29296875 C3 11 3 11 1.1875 9.75 C-0.91550277 6.65083803 -0.17947602 3.64934583 0 0 Z " fill="#9FC1EB" transform="translate(83,184)"/>
<path d="M0 0 C2 1 2 1 3 3.125 C3 7.16942294 1.09831106 8.75091189 -1.5546875 11.64453125 C-3 13 -3 13 -4 13 C-4.1875 10.1875 -4.1875 10.1875 -4 7 C-2.5625 5.375 -2.5625 5.375 -1 4 C-0.28552357 1.89667109 -0.28552357 1.89667109 0 0 Z " fill="#C24D35" transform="translate(186,132)"/>
<path d="M0 0 C1.32 0.66 2.64 1.32 4 2 C3.67 3.65 3.34 5.3 3 7 C2.01 6.01 1.02 5.02 0 4 C-0.99 4.66 -1.98 5.32 -3 6 C-3.99 6 -4.98 6 -6 6 C-6.33 7.32 -6.66 8.64 -7 10 C-7 8.68 -7 7.36 -7 6 C-8.32 5.67 -9.64 5.34 -11 5 C-9 4 -9 4 -6.0625 3.625 C-2.90721588 2.98106446 -1.93622002 2.47405891 0 0 Z " fill="#FBF5E6" transform="translate(62,62)"/>
<path d="M0 0 C0.33 0.66 0.66 1.32 1 2 C1.66 2 2.32 2 3 2 C3.33 1.34 3.66 0.68 4 0 C6.62386487 3.06117568 7 3.73173127 7 8 C5.35 7.67 3.7 7.34 2 7 C2 6.34 2 5.68 2 5 C1.34 5 0.68 5 0 5 C0 3.35 0 1.7 0 0 Z " fill="#E59F4A" transform="translate(192,56)"/>
<path d="M0 0 C5.41538462 -0.36923077 5.41538462 -0.36923077 8.375 1.5 C8.91125 1.995 9.4475 2.49 10 3 C7.1875 4.5625 7.1875 4.5625 4 6 C1 5 1 5 0 4 C-0.33 3.34 -0.66 2.68 -1 2 C-0.67 1.34 -0.34 0.68 0 0 Z " fill="#EEC36A" transform="translate(46,50)"/>
<path d="M0 0 C1.14926266 0.95421808 2.29430541 1.91352045 3.4375 2.875 C4.07558594 3.40867187 4.71367187 3.94234375 5.37109375 4.4921875 C7 6 7 6 8 8 C5.36 8 2.72 8 0 8 C0 5.36 0 2.72 0 0 Z " fill="#B0C5E7" transform="translate(160,112)"/>
<path d="M0 0 C5.02692063 0.45699278 8.14896261 2.99241748 12 6 C7.5 10 7.5 10 3 10 C3.33 9.01 3.66 8.02 4 7 C4.99 7.33 5.98 7.66 7 8 C7 7.01 7 6.02 7 5 C6.34 5 5.68 5 5 5 C3.5 3.625 3.5 3.625 2 2 C1.34 1.34 0.68 0.68 0 0 Z " fill="#EABA61" transform="translate(168,30)"/>
<path d="M0 0 C0.33 0 0.66 0 1 0 C1.1546875 1.423125 1.1546875 1.423125 1.3125 2.875 C1.68539295 6.29107501 1.68539295 6.29107501 5 8 C8.12521833 8.16699232 8.12521833 8.16699232 11 8 C11 8.66 11 9.32 11 10 C7.8125 10.8125 7.8125 10.8125 4 11 C1.0625 8.875 1.0625 8.875 -1 6 C-1.375 3.25 -1.375 3.25 -1 1 C-0.67 0.67 -0.34 0.34 0 0 Z " fill="#ECC677" transform="translate(159,10)"/>
<path d="M0 0 C1.43902893 0.08032857 2.87760191 0.17713226 4.3125 0.3125 C4.3125 0.6425 4.3125 0.9725 4.3125 1.3125 C2.641875 1.43625 2.641875 1.43625 0.9375 1.5625 C-2.64610815 1.92761715 -2.64610815 1.92761715 -4.1875 4 C-4.83593292 6.99900224 -4.36214772 9.34405004 -3.6875 12.3125 C-4.6775 11.9825 -5.6675 11.6525 -6.6875 11.3125 C-7.55346404 7.92736785 -7.83871921 5.8093631 -6.8125 2.4375 C-4.25578796 -0.11921204 -3.49872559 0.0055098 0 0 Z " fill="#EFCC7A" transform="translate(211.6875,116.6875)"/>
<path d="M0 0 C0.99 0.99 1.98 1.98 3 3 C2.34 4.32 1.68 5.64 1 7 C-1.4375 6.625 -1.4375 6.625 -4 6 C-4.33 5.34 -4.66 4.68 -5 4 C-3.36587557 2.29159719 -2.13093906 1.06546953 0 0 Z " fill="#E7AC52" transform="translate(221,55)"/>
<path d="M0 0 C0.99 0.33 1.98 0.66 3 1 C3 1.66 3 2.32 3 3 C3.66 3 4.32 3 5 3 C6.38938077 4.96147874 7.7260411 6.96166576 9 9 C6.69 9.33 4.38 9.66 2 10 C1.67 9.01 1.34 8.02 1 7 C1.99 6.67 2.98 6.34 4 6 C4 5.34 4 4.68 4 4 C3.01 4 2.02 4 1 4 C0.67 2.68 0.34 1.36 0 0 Z " fill="#B0CAE9" transform="translate(115,151)"/>
<path d="M0 0 C4.29 0 8.58 0 13 0 C12.67 1.32 12.34 2.64 12 4 C3.42857143 4.28571429 3.42857143 4.28571429 0 2 C0 1.34 0 0.68 0 0 Z " fill="#D57045" transform="translate(135,104)"/>
<path d="M0 0 C0.99 0 1.98 0 3 0 C3.33 1.32 3.66 2.64 4 4 C3.195625 4.226875 2.39125 4.45375 1.5625 4.6875 C0.716875 5.120625 -0.12875 5.55375 -1 6 C-1.89386164 8.54775306 -1.89386164 8.54775306 -2 11 C-2.33 10.01 -2.66 9.02 -3 8 C-3.66 7.67 -4.32 7.34 -5 7 C-4.67 6.34 -4.34 5.68 -4 5 C-3.34 5 -2.68 5 -2 5 C-2 4.01 -2 3.02 -2 2 C-1.34 2 -0.68 2 0 2 C0 1.34 0 0.68 0 0 Z " fill="#F2CE75" transform="translate(74,51)"/>
<path d="M0 0 C1.21236328 0.02707031 1.21236328 0.02707031 2.44921875 0.0546875 C3.37154297 0.08949219 3.37154297 0.08949219 4.3125 0.125 C4.3125 0.455 4.3125 0.785 4.3125 1.125 C3.19875 1.434375 2.085 1.74375 0.9375 2.0625 C-2.4820155 2.94826483 -2.4820155 2.94826483 -4.6875 4.125 C-4.9040625 5.115 -4.9040625 5.115 -5.125 6.125 C-5.310625 6.785 -5.49625 7.445 -5.6875 8.125 C-6.6775 8.455 -7.6675 8.785 -8.6875 9.125 C-8.375 5.75 -8.375 5.75 -7.6875 2.125 C-4.48369983 -0.01086678 -3.66810033 -0.10632175 0 0 Z " fill="#6497F5" transform="translate(107.6875,180.875)"/>
<path d="M0 0 C2.375 -0.125 2.375 -0.125 5 0 C7 2 7 2 7.0625 4.5 C7.041875 5.325 7.02125 6.15 7 7 C7.33 7.66 7.66 8.32 8 9 C7.34 10.32 6.68 11.64 6 13 C5.67 10.03 5.34 7.06 5 4 C3.68 4 2.36 4 1 4 C0.67 2.68 0.34 1.36 0 0 Z " fill="#D05836" transform="translate(169,120)"/>
<path d="M0 0 C1.875 0.25 1.875 0.25 4 1 C5.3125 2.9375 5.3125 2.9375 6 5 C5.67 5.66 5.34 6.32 5 7 C3.35 6.67 1.7 6.34 0 6 C0 4.02 0 2.04 0 0 Z " fill="#B4CAEB" transform="translate(112,89)"/>
<path d="M0 0 C3.96 0 7.92 0 12 0 C12.33 0.66 12.66 1.32 13 2 C13.99 2.33 14.98 2.66 16 3 C16.6875 5.0625 16.6875 5.0625 17 7 C16.35933594 6.6390625 15.71867187 6.278125 15.05859375 5.90625 C9.74220085 3.05393786 6.04748452 1.34266473 0 2 C0 1.34 0 0.68 0 0 Z " fill="#FCF1DC" transform="translate(45,49)"/>
<path d="M0 0 C1.17571451 3.67410785 1.07366746 7.16929183 1 11 C-0.65 11.33 -2.3 11.66 -4 12 C-3.33501617 7.61110675 -1.81242323 4.0188515 0 0 Z " fill="#E7AF74" transform="translate(68,60)"/>
<path d="M0 0 C0.66 0 1.32 0 2 0 C3.15837626 4.05431692 2.83691257 6.21812119 1 10 C0.34 10 -0.32 10 -1 10 C-2.25 3.375 -2.25 3.375 0 0 Z " fill="#F1C86A" transform="translate(94,4)"/>
<path d="M0 0 C2 3 2 3 2 6 C-1 8.1875 -1 8.1875 -4 10 C-4.33 9.34 -4.66 8.68 -5 8 C-4.34 8 -3.68 8 -3 8 C-2.690625 7.05125 -2.38125 6.1025 -2.0625 5.125 C-1 2 -1 2 0 0 Z M-6 10 C-5.34 10 -4.68 10 -4 10 C-4 10.66 -4 11.32 -4 12 C-4.99 11.67 -5.98 11.34 -7 11 C-6.67 10.67 -6.34 10.34 -6 10 Z " fill="#FAF2E3" transform="translate(173,12)"/>
<path d="M0 0 C0.99 0.33 1.98 0.66 3 1 C3 4.63 3 8.26 3 12 C2.01 12 1.02 12 0 12 C0 8.04 0 4.08 0 0 Z " fill="#68BDFC" transform="translate(46,140)"/>
<path d="M0 0 C2.31 0 4.62 0 7 0 C7 2.31 7 4.62 7 7 C5.83040013 6.02433888 4.66438823 5.044375 3.5 4.0625 C2.8503125 3.51722656 2.200625 2.97195312 1.53125 2.41015625 C1.0259375 1.94480469 0.520625 1.47945313 0 1 C0 0.67 0 0.34 0 0 Z " fill="#D2683B" transform="translate(161,112)"/>
<path d="M0 0 C1.875 0.8125 1.875 0.8125 3.875 2.8125 C3.5 4.9375 3.5 4.9375 2.875 6.8125 C2.215 5.8225 1.555 4.8325 0.875 3.8125 C-2.69269552 3.07643501 -2.69269552 3.07643501 -6.125 2.8125 C-2.70744111 -0.23889186 -2.70744111 -0.23889186 0 0 Z " fill="#D88550" transform="translate(123.125,89.1875)"/>
<path d="M0 0 C1.65 0 3.3 0 5 0 C5 0.99 5 1.98 5 3 C4.34 3 3.68 3 3 3 C2.67 4.32 2.34 5.64 2 7 C1.34 7 0.68 7 0 7 C0 4.69 0 2.38 0 0 Z " fill="#9BB7E1" transform="translate(51,141)"/>
<path d="M0 0 C0.99 0 1.98 0 3 0 C2.67 4.62 2.34 9.24 2 14 C0 12 0 12 -0.1953125 9.1796875 C-0.17210938 8.08914062 -0.14890625 6.99859375 -0.125 5.875 C-0.10695313 4.77929688 -0.08890625 3.68359375 -0.0703125 2.5546875 C-0.04710938 1.71164063 -0.02390625 0.86859375 0 0 Z " fill="#569CF2" transform="translate(69,184)"/>
<path d="M0 0 C-0.33 1.32 -0.66 2.64 -1 4 C-1.99 4 -2.98 4 -4 4 C-4 5.32 -4 6.64 -4 8 C-4.99 7.67 -5.98 7.34 -7 7 C-6.6875 4.625 -6.6875 4.625 -6 2 C-3 0 -3 0 0 0 Z " fill="#EFCD7A" transform="translate(168,0)"/>
<path d="M0 0 C0.4125 0.66 0.825 1.32 1.25 2 C1.8275 2.66 2.405 3.32 3 4 C4.32 4 5.64 4 7 4 C7 4.99 7 5.98 7 7 C4.03 6.67 1.06 6.34 -2 6 C-1.34 4.02 -0.68 2.04 0 0 Z " fill="#AC3C30" transform="translate(174,139)"/>
<path d="M0 0 C5.28 0.33 10.56 0.66 16 1 C16 1.33 16 1.66 16 2 C10.39 2.66 4.78 3.32 -1 4 C-0.67 2.68 -0.34 1.36 0 0 Z " fill="#C7E4FD" transform="translate(80,136)"/>
<path d="M0 0 C4.455 0.99 4.455 0.99 9 2 C8.67 3.32 8.34 4.64 8 6 C7.01 6.495 7.01 6.495 6 7 C1.125 2.25 1.125 2.25 0 0 Z " fill="#7EA6ED" transform="translate(74,203)"/>
<path d="M0 0 C0.99 0 1.98 0 3 0 C3 0.66 3 1.32 3 2 C4.98 2 6.96 2 9 2 C5.55549263 4.29633824 3.06187717 4.54016485 -1 5 C-0.67 3.35 -0.34 1.7 0 0 Z " fill="#D78655" transform="translate(63,76)"/>
<path d="M0 0 C2.03833424 1.2739589 4.03852126 2.61061923 6 4 C6 4.66 6 5.32 6 6 C4.02 6 2.04 6 0 6 C0 4.02 0 2.04 0 0 Z " fill="#C1DAF5" transform="translate(72,202)"/>
<path d="M0 0 C0.99 0 1.98 0 3 0 C3 4.95 3 9.9 3 15 C2.34 15 1.68 15 1 15 C1.01160156 14.16855469 1.02320312 13.33710938 1.03515625 12.48046875 C1.04417969 11.39378906 1.05320312 10.30710938 1.0625 9.1875 C1.07410156 8.10855469 1.08570312 7.02960938 1.09765625 5.91796875 C1.13624766 2.93487831 1.13624766 2.93487831 0 0 Z " fill="#A6CAF9" transform="translate(112,181)"/>
<path d="M0 0 C4.29 0 8.58 0 13 0 C13 0.66 13 1.32 13 2 C7.06 2.495 7.06 2.495 1 3 C0.67 2.01 0.34 1.02 0 0 Z " fill="#D6D4E0" transform="translate(169,145)"/>
<path d="M0 0 C4.455 0.99 4.455 0.99 9 2 C8.67 2.66 8.34 3.32 8 4 C5.36 4 2.72 4 0 4 C0 2.68 0 1.36 0 0 Z " fill="#BBD3F2" transform="translate(96,84)"/>
<path d="M0 0 C0.66 0 1.32 0 2 0 C2.66 1.98 3.32 3.96 4 6 C3.01 6.99 2.02 7.98 1 9 C-0.61949011 6.42786866 -1.04408751 5.32330841 -0.625 2.25 C-0.41875 1.5075 -0.2125 0.765 0 0 Z " fill="#EEB462" transform="translate(69,59)"/>
<path d="M0 0 C0.66 0.33 1.32 0.66 2 1 C0.515 4.465 0.515 4.465 -1 8 C-0.34 8 0.32 8 1 8 C0.67 9.32 0.34 10.64 0 12 C-2.31332486 8.53001271 -2.33957563 7.07490752 -2 3 C-1.34 2.01 -0.68 1.02 0 0 Z " fill="#EDCE81" transform="translate(206,53)"/>
<path d="M0 0 C-0.61359375 0.24492188 -1.2271875 0.48984375 -1.859375 0.7421875 C-4.42635567 2.25052285 -5.03857904 3.44256788 -6.25 6.125 C-6.58515625 6.84945313 -6.9203125 7.57390625 -7.265625 8.3203125 C-7.50796875 8.87460938 -7.7503125 9.42890625 -8 10 C-8.33 10 -8.66 10 -9 10 C-9.32523926 6.42236811 -9.42956587 4.60457419 -7.3125 1.625 C-4.61209763 -0.27258004 -3.22939919 -0.35882213 0 0 Z " fill="#F0D592" transform="translate(100,0)"/>
<path d="M0 0 C2.97 0.33 5.94 0.66 9 1 C9 1.99 9 2.98 9 4 C4.53159589 3.50351065 3.31012244 3.31012244 0 0 Z " fill="#A5BDE3" transform="translate(23,220)"/>
<path d="M0 0 C2.31 0 4.62 0 7 0 C7 0.99 7 1.98 7 3 C4.69 3 2.38 3 0 3 C0 2.01 0 1.02 0 0 Z " fill="#FCF6F1" transform="translate(213,133)"/>
<path d="M0 0 C1.98 1.65 3.96 3.3 6 5 C4.68 5.99 3.36 6.98 2 8 C2 6.68 2 5.36 2 4 C1.01 3.67 0.02 3.34 -1 3 C-0.67 2.01 -0.34 1.02 0 0 Z " fill="#B8C0D8" transform="translate(118,92)"/>
<path d="M0 0 C1.98 0 3.96 0 6 0 C5.67 0.66 5.34 1.32 5 2 C6.32 2.66 7.64 3.32 9 4 C3.48 4.368 3.48 4.368 1.125 2.5625 C0 1 0 1 0 0 Z " fill="#E8B86A" transform="translate(95,17)"/>
<path d="M0 0 C0.66 0.33 1.32 0.66 2 1 C1.67 1.66 1.34 2.32 1 3 C1.66 3.33 2.32 3.66 3 4 C-0.3 4 -3.6 4 -7 4 C-5.68 3.34 -4.36 2.68 -3 2 C-2.01 1.34 -1.02 0.68 0 0 Z " fill="#A7C5F4" transform="translate(105,204)"/>
<path d="M0 0 C2 3 2 3 1.7578125 5.04296875 C1.171875 7.02864583 0.5859375 9.01432292 0 11 C-0.33 11 -0.66 11 -1 11 C-1.125 3.375 -1.125 3.375 0 0 Z " fill="#6EAEF2" transform="translate(69,149)"/>
<path d="M0 0 C0 0.66 0 1.32 0 2 C-3.375 2.125 -3.375 2.125 -7 2 C-7.66 1.34 -8.32 0.68 -9 0 C-5.52176885 -1.15941038 -3.54104422 -0.70820884 0 0 Z " fill="#C2D2E5" transform="translate(158,110)"/>
<path d="M0 0 C0.99 0 1.98 0 3 0 C3 1.32 3 2.64 3 4 C1.02 4 -0.96 4 -3 4 C-1.6875 2 -1.6875 2 0 0 Z " fill="#EBAD4D" transform="translate(102,16)"/>
<path d="M0 0 C0.33 0 0.66 0 1 0 C1 1.65 1 3.3 1 5 C1.99 5.33 2.98 5.66 4 6 C3.34 7.32 2.68 8.64 2 10 C-0.4294516 6.3558226 -0.16179575 4.28758728 0 0 Z " fill="#D3653F" transform="translate(192,120)"/>
<path d="M0 0 C1.5 1.375 1.5 1.375 3 3 C3 3.66 3 4.32 3 5 C3.66 5.33 4.32 5.66 5 6 C3.35 6.33 1.7 6.66 0 7 C0 4.69 0 2.38 0 0 Z " fill="#B7C7DD" transform="translate(128,105)"/>
<path d="M0 0 C0.66 0 1.32 0 2 0 C2 0.99 2 1.98 2 3 C1.34 3 0.68 3 0 3 C-0.66 4.32 -1.32 5.64 -2 7 C-2.33 5.68 -2.66 4.36 -3 3 C-2.34 3 -1.68 3 -1 3 C-0.67 2.01 -0.34 1.02 0 0 Z " fill="#FAF5E7" transform="translate(70,53)"/>
<path d="M0 0 C2.31 0 4.62 0 7 0 C6.67 1.98 6.34 3.96 6 6 C5.7525 5.38125 5.505 4.7625 5.25 4.125 C3.79371361 1.64931313 2.62187494 1.04874998 0 0 Z " fill="#FBF9EC" transform="translate(100,0)"/>
</svg>
